<?xml version="1.0" encoding="UTF-8" standalone="no"?>
<!DOCTYPE svg PUBLIC "-//W3C//DTD SVG 1.1//EN" "http://www.w3.org/Graphics/SVG/1.1/DTD/svg11.dtd">
<svg xmlns="http://www.w3.org/2000/svg" xmlns:xlink="http://www.w3.org/1999/xlink" version="1.1" width="381.12pt" height="786.95999pt" viewBox="0 0 381.12 786.95999">
<g enable-background="new">
<clipPath id="cp0">
<path transform="matrix(.24,0,0,.24,0,0)" d="M 0 0 L 1587.5 0 L 1587.5 3278.125 L 0 3278.125 Z " fill-rule="evenodd"/>
</clipPath>
<g clip-path="url(#cp0)">
<path transform="matrix(.75,0,0,.75,0,0)" d="M 0 0 L 508 0 L 508 1050 L 0 1050 Z " fill="#ffffff"/>
</g>
<clipPath id="cp1">
<path transform="matrix(.24,0,0,.24,0,0)" d="M 0 0 L 1587.5 0 L 1587.5 3278.125 L 0 3278.125 Z "/>
</clipPath>
<g clip-path="url(#cp1)">
<clipPath id="cp2">
<path transform="matrix(.24,0,0,.24,0,0)" d="M 0 0 L 1587.5 0 L 1587.5 3281.25 L 0 3281.25 Z "/>
</clipPath>
<g clip-path="url(#cp2)">
<clipPath id="cp3">
<path transform="matrix(.24,0,0,.24,0,0)" d="M 310.93818 411.21876 L 1161.6245 411.21876 L 1161.6245 766.01248 L 310.93818 766.01248 Z "/>
</clipPath>
<g clip-path="url(#cp3)">
<clipPath id="cp4">
<path transform="matrix(.24,0,0,.24,0,0)" d="M 310.93818 695.0537 L 310.93818 482.1775 C 310.93815 477.51829 311.39247 472.9038 312.30107 468.3341 C 313.20967 463.7644 314.5551 459.32728 316.3374 455.02275 C 318.1197 450.7182 320.30458 446.6289 322.89207 442.7549 C 325.47956 438.88093 328.41993 435.29664 331.71318 432.00209 C 335.0064 428.7075 338.58927 425.76597 342.46174 423.17744 C 346.33418 420.5889 350.4218 418.40315 354.72465 416.62013 C 359.02748 414.83714 363.46284 413.49116 368.0307 412.58219 C 372.59858 411.67323 377.21119 411.21876 381.86857 411.21876 L 1090.6941 411.21876 C 1095.3515 411.21876 1099.964 411.67323 1104.5317 412.58219 C 1109.0996 413.49119 1113.5349 414.83717 1117.8378 416.62016 C 1122.1406 418.40318 1126.2283 420.58894 1130.1007 423.17744 C 1133.9732 425.76597 1137.556 428.7075 1140.8494 432.00209 C 1144.1426 435.29664 1147.0829 438.88093 1149.6704 442.7549 C 1152.2578 446.6289 1154.4428 450.71818 1156.2251 455.0227 C 1158.0075 459.32728 1159.3529 463.7644 1160.2615 468.3341 C 1161.1702 472.9038 1161.6245 477.51829 1161.6245 482.1775 L 1161.6245 695.0537 C 1161.6245 699.7129 1161.1702 704.32736 1160.2615 708.89706 C 1159.3529 713.4667 1158.0075 717.90377 1156.2251 722.2084 C 1154.4428 726.51296 1152.2578 730.6022 1149.6704 734.47616 C 1147.0829 738.35018 1144.1426 741.93447 1140.8494 745.22909 C 1137.556 748.5236 1133.9732 751.46517 1130.1007 754.05368 C 1126.2283 756.64218 1122.1406 758.82797 1117.8378 760.61099 C 1113.5349 762.3939 1109.0996 763.7399 1104.5317 764.6489 C 1099.964 765.5579 1095.3515 766.0124 1090.6941 766.01248 L 381.86857 766.01248 C 377.21119 766.0124 372.59858 765.55789 368.0307 764.64889 C 363.46284 763.73989 359.02748 762.3939 354.72465 760.61099 C 350.4218 758.82797 346.33418 756.64218 342.46174 754.05368 C 338.58927 751.46517 335.00645 748.5236 331.7132 745.22909 C 328.41996 741.93447 325.47956 738.35018 322.89207 734.47616 C 320.30458 730.6022 318.1197 726.51296 316.3374 722.2084 C 314.5551 717.90377 313.20967 713.4666 312.30107 708.897 C 311.39247 704.32736 310.93815 699.7129 310.93818 695.0537 Z "/>
</clipPath>
<g clip-path="url(#cp4)">
<path transform="matrix(.65151259,0,0,.6517731,74.62516,98.6925)" stroke-width="4" stroke-linecap="butt" stroke-miterlimit="4" stroke-linejoin="miter" fill="none" stroke="#1a1a1a" d="M 26.128878 0 L 287.2415 0 C 288.09724 0 288.95094 .04193922 289.80256 .12581767 C 290.65419 .20969612 291.49964 .3351099 292.33894 .502059 C 293.17826 .66900816 294.00736 .8766886 294.82624 1.1251006 C 295.64515 1.3735126 296.4499 1.6614597 297.2405 1.9889422 C 298.03117 2.3164247 298.80384 2.6818655 299.5585 3.0852648 C 300.31324 3.488664 301.04634 3.928079 301.75785 4.4035098 C 302.46943 4.8789408 303.15596 5.3880984 303.81745 5.930982 C 304.47895 6.4738667 305.11225 7.0478627 305.71736 7.652971 C 306.32249 8.25808 306.89649 8.891388 307.43937 9.552894 C 307.98225 10.214399 308.49137 10.900918 308.9668 11.61245 C 309.44224 12.323983 309.88163 13.057103 310.28504 13.81181 C 310.68846 14.566516 311.0539 15.339175 311.38139 16.129788 C 311.70887 16.9204 311.99684 17.725159 312.24528 18.544064 C 312.49366 19.362967 312.70133 20.192074 312.8683 21.031384 C 313.03526 21.870696 313.16069 22.716168 313.24458 23.567799 C 313.32844 24.419432 313.37037 25.273125 313.37037 26.128878 L 313.37037 104.5155 C 313.37037 105.371257 313.32844 106.224948 313.24458 107.07658 C 313.16069 107.92821 313.03526 108.77368 312.8683 109.61298 C 312.70133 110.4523 312.49366 111.2814 312.24528 112.1003 C 311.99684 112.919208 311.70887 113.72396 311.38139 114.51457 C 311.0539 115.30518 310.68846 116.07784 310.28504 116.83255 C 309.88163 117.58726 309.4422 118.32038 308.96678 119.031909 C 308.49137 119.74345 307.9822 120.42997 307.43934 121.09148 C 306.89646 121.75298 306.32249 122.386287 305.71736 122.991397 C 305.11225 123.596508 304.47895 124.1705 303.81745 124.71339 C 303.15596 125.25627 302.46943 125.76542 301.75785 126.240848 C 301.04634 126.71628 300.31324 127.15569 299.55854 127.5591 C 298.80384 127.9625 298.03117 128.32794 297.24055 128.65543 C 296.44993 128.98291 295.64518 129.27086 294.82627 129.51927 C 294.0074 129.7677 293.17829 129.97537 292.33897 130.14232 C 291.49967 130.30927 290.6542 130.4347 289.80256 130.51857 C 288.95094 130.60245 288.09724 130.64438 287.2415 130.64438 L 26.128878 130.64438 C 25.273125 130.64438 24.419434 130.60245 23.5678 130.51857 C 22.716168 130.4347 21.870697 130.30927 21.031386 130.14232 C 20.192076 129.97537 19.362969 129.7677 18.544066 129.51927 C 17.725159 129.27086 16.9204 128.98291 16.129788 128.65543 C 15.339175 128.32796 14.566516 127.96251 13.81181 127.559108 C 13.057103 127.15571 12.323983 126.71629 11.61245 126.24085 C 10.900918 125.76543 10.214399 125.25628 9.552894 124.713397 C 8.891388 124.17051 8.25808 123.59651 7.652971 122.9914 C 7.0478627 122.38629 6.4738667 121.75299 5.930982 121.091487 C 5.3880984 120.42998 4.8789408 119.743457 4.403509 119.03191 C 3.9280787 118.32039 3.488664 117.58727 3.0852648 116.832569 C 2.6818655 116.07786 2.3164247 115.3052 1.9889422 114.51458 C 1.6614597 113.72397 1.3735126 112.91921 1.1251006 112.10031 C .8766886 111.28141 .66900816 110.4523 .502059 109.61298 C .3351099 108.77368 .20969612 107.92821 .12581767 107.07658 C .04193922 106.224948 0 105.371257 0 104.5155 L 0 26.128878 C 0 25.273125 .04193922 24.419434 .12581767 23.5678 C .20969612 22.716168 .3351099 21.870697 .502059 21.031386 C .66900816 20.192076 .8766886 19.362969 1.1251006 18.544066 C 1.3735126 17.725159 1.6614597 16.9204 1.9889422 16.129788 C 2.3164247 15.339175 2.6818655 14.566516 3.0852648 13.81181 C 3.488664 13.057103 3.928079 12.323983 4.4035098 11.61245 C 4.8789408 10.900918 5.3880984 10.214399 5.930982 9.552894 C 6.4738667 8.891388 7.0478627 8.25808 7.652971 7.652971 C 8.25808 7.0478627 8.891388 6.4738667 9.552894 5.930982 C 10.214399 5.3880984 10.900918 4.8789408 11.61245 4.403509 C 12.323983 3.9280787 13.057103 3.488664 13.81181 3.0852648 C 14.566516 2.6818655 15.339175 2.3164247 16.129788 1.9889422 C 16.9204 1.6614597 17.725159 1.3735126 18.544064 1.1251006 C 19.362967 .8766886 20.192074 .66900816 21.031384 .502059 C 21.870696 .3351099 22.716168 .20969612 23.567799 .12581767 C 24.419432 .04193922 25.273125 0 26.128878 0 Z "/>
</g>
</g>
</g>
</g>
<clipPath id="cp5">
<path transform="matrix(.24,0,0,.24,0,0)" d="M 0 0 L 1587.5 0 L 1587.5 3278.125 L 0 3278.125 Z " fill-rule="evenodd"/>
</clipPath>
<g clip-path="url(#cp5)">
<g id="Layer-1" data-name="P">
</g>
<text fill="#1a1a1a" xml:space="preserve" transform="matrix(.65151259 0 0 .6517731 78.88098 102.95001)" font-size="24" font-family="OpenSans"><tspan y="66.28997" x="7.981087 23.533087 38.029088 52.74109 59.125089 65.36509 82.83709 94.28509 107.749088 117.541088 123.78108 138.27709 146.41309 152.65309 167.3651 173.4371 187.9331 199.3571 211.9571 223.3811 238.1171 251.46109 257.53309 272.26908 278.50907">Bob: User of blockchain X</tspan></text>
</g>
<clipPath id="cp6">
<path transform="matrix(.24,0,0,.24,0,0)" d="M 0 0 L 1587.5 0 L 1587.5 3278.125 L 0 3278.125 Z "/>
</clipPath>
<g clip-path="url(#cp6)">
<clipPath id="cp7">
<path transform="matrix(.24,0,0,.24,0,0)" d="M 0 0 L 1587.5 0 L 1587.5 3281.25 L 0 3281.25 Z "/>
</clipPath>
<g clip-path="url(#cp7)">
<clipPath id="cp8">
<path transform="matrix(.24,0,0,.24,0,0)" d="M 558.964 56.406248 L 913.6159 56.406248 L 913.6159 411.19999 L 558.964 411.19999 Z "/>
</clipPath>
<g clip-path="url(#cp8)">
<clipPath id="cp9">
<path transform="matrix(.24,0,0,.24,0,0)" d="M 558.964 233.80312 C 558.964 222.15506 560.09976 210.61893 562.3712 199.19469 C 564.6427 187.77045 568.0063 176.67765 572.46206 165.91626 C 576.9178 155.15486 582.38 144.93167 588.84878 135.24669 C 595.3175 125.56169 602.66848 116.60099 610.90158 108.364589 C 619.13467 100.128177 628.09176 92.774318 637.7728 86.303 C 647.454 79.831699 657.6731 74.36729 668.4302 69.909778 C 679.1872 65.45226 690.2756 62.087297 701.6953 59.814878 C 713.115 57.542459 724.64657 56.40625 736.2899 56.406248 C 747.9333 56.40625 759.4648 57.542459 770.8844 59.814878 C 782.30416 62.087297 793.3925 65.45226 804.14956 69.909778 C 814.9066 74.36729 825.12576 79.831699 834.8069 86.303 C 844.48806 92.774318 853.4452 100.128177 861.6783 108.364589 C 869.9114 116.60099 877.26229 125.56169 883.73098 135.24669 C 890.19967 144.93167 895.6619 155.15486 900.1177 165.91626 C 904.5734 176.67765 907.937 187.77045 910.20858 199.19467 C 912.48007 210.61891 913.61587 222.15506 913.6159 233.80312 C 913.61587 245.45116 912.48007 256.98728 910.20858 268.4115 C 907.937 279.83573 904.57339 290.92857 900.1176 301.68995 C 895.66189 312.45133 890.19967 322.67454 883.73098 332.35954 C 877.26229 342.04454 869.9113 351.00523 861.6782 359.24165 C 853.44509 367.47804 844.4879 374.83189 834.80679 381.30317 C 825.1257 387.77445 814.9066 393.23887 804.14956 397.69639 C 793.3925 402.1539 782.30416 405.51887 770.8844 407.7913 C 759.4648 410.06373 747.9333 411.19996 736.2899 411.19999 C 724.64657 411.19996 713.115 410.06376 701.6953 407.79133 C 690.2756 405.5189 679.1872 402.1539 668.4301 397.69639 C 657.673 393.23887 647.4539 387.77449 637.7728 381.3032 C 628.09176 374.83189 619.13467 367.47804 610.90158 359.24165 C 602.66848 351.00523 595.3175 342.04454 588.8488 332.35954 C 582.38 322.67454 576.9178 312.45133 572.46206 301.68995 C 568.0063 290.92857 564.6427 279.83576 562.3712 268.41154 C 560.09976 256.9873 558.964 245.45116 558.964 233.80312 Z "/>
</clipPath>
<g clip-path="url(#cp9)">
<path transform="matrix(.65151259,0,0,.6517731,134.15135,13.537498)" stroke-width="4" stroke-linecap="butt" stroke-miterlimit="4" stroke-linejoin="miter" fill="none" stroke="#1a1a1a" d="M 130.64438 65.32219 C 130.6444 67.46157 130.53954 69.5958 130.32984 71.724887 C 130.12014 73.853969 129.8066 75.96764 129.38922 78.06591 C 128.97187 80.164188 128.45267 82.23695 127.83163 84.28422 C 127.210597 86.33148 126.49072 88.343379 125.67201 90.3199 C 124.85331 92.29644 123.93971 94.22809 122.93122 96.11486 C 121.922718 98.00162 120.82418 99.83441 119.635608 101.61324 C 118.44703 103.39208 117.17413 105.10838 115.816928 106.762149 C 114.45971 108.41592 113.02472 109.99918 111.511959 111.51195 C 109.99919 113.02472 108.415927 114.45971 106.76215 115.81692 C 105.10838 117.174129 103.39209 118.447017 101.61326 119.63559 C 99.83443 120.82417 98.001628 121.922718 96.11485 122.931209 C 94.22809 123.939708 92.29644 124.8533 90.3199 125.672008 C 88.343379 126.49072 86.33149 127.210597 84.284229 127.83162 C 82.23696 128.45267 80.164188 128.97187 78.06591 129.38922 C 75.96764 129.8066 73.85397 130.12014 71.72489 130.32984 C 69.59581 130.53954 67.46157 130.64438 65.32219 130.64438 C 63.18281 130.64438 61.04858 130.53954 58.919496 130.32984 C 56.790414 130.12014 54.676736 129.8066 52.578458 129.38922 C 50.480188 128.97187 48.407419 128.45267 46.360158 127.83163 C 44.312898 127.210597 42.301004 126.49072 40.324468 125.67201 C 38.34794 124.85331 36.41629 123.93971 34.529527 122.93122 C 32.642759 121.922718 30.809956 120.82418 29.031123 119.635608 C 27.252293 118.44703 25.535996 117.17413 23.882229 115.816928 C 22.228466 114.45971 20.645199 113.02472 19.132426 111.511959 C 17.619654 109.99919 16.184664 108.415927 14.827454 106.76215 C 13.470244 105.10838 12.1973509 103.39209 11.008773 101.61326 C 9.820196 99.83443 8.721659 98.001628 7.7131607 96.11485 C 6.704663 94.22809 5.791061 92.29644 4.972355 90.3199 C 4.153649 88.343379 3.4337812 86.33149 2.8127514 84.284229 C 2.1917215 82.23696 1.67252 80.164188 1.2551473 78.06591 C .83777466 75.96764 .52424028 73.85397 .31454418 71.72489 C .10484806 69.59581 0 67.46157 0 65.32219 C 0 63.18281 .10484806 61.04858 .31454418 58.919496 C .52424028 56.790414 .83777466 54.676736 1.2551473 52.578458 C 1.67252 50.480188 2.1917215 48.407419 2.8127514 46.360158 C 3.4337812 44.312898 4.153649 42.301004 4.972355 40.324468 C 5.791061 38.34794 6.704663 36.41629 7.7131607 34.529527 C 8.721659 32.642759 9.820196 30.809956 11.008773 29.031123 C 12.1973509 27.252293 13.470244 25.535996 14.827454 23.882229 C 16.184664 22.228466 17.619654 20.645199 19.132426 19.132426 C 20.645199 17.619654 22.228466 16.184664 23.882229 14.827454 C 25.535994 13.470244 27.25229 12.1973509 29.03112 11.008773 C 30.809954 9.820196 32.642755 8.721659 34.529523 7.7131607 C 36.41629 6.704663 38.34794 5.791061 40.324468 4.972355 C 42.301004 4.153649 44.3129 3.4337812 46.36016 2.8127514 C 48.40742 2.1917215 50.480188 1.67252 52.578458 1.2551473 C 54.676736 .83777466 56.790414 .52424028 58.919496 .31454418 C 61.04858 .10484806 63.18281 0 65.32219 0 C 67.46157 0 69.5958 .10484806 71.724887 .31454418 C 73.853969 .52424028 75.96764 .83777466 78.06591 1.2551473 C 80.164188 1.67252 82.23695 2.1917215 84.28422 2.8127514 C 86.33148 3.4337812 88.343379 4.153649 90.3199 4.972355 C 92.29644 5.791061 94.22809 6.704663 96.11486 7.7131607 C 98.00162 8.721659 99.83441 9.820196 101.61324 11.008773 C 103.39208 12.1973509 105.10838 13.470244 106.762149 14.827454 C 108.41592 16.184664 109.99918 17.619654 111.51195 19.132426 C 113.02472 20.645199 114.45971 22.228466 115.81692 23.882229 C 117.174129 25.535994 118.447017 27.25229 119.63559 29.03112 C 120.82417 30.809954 121.922718 32.642755 122.931209 34.529523 C 123.939708 36.41629 124.8533 38.34794 125.672008 40.324468 C 126.49072 42.301004 127.210597 44.3129 127.83162 46.36016 C 128.45267 48.40742 128.97187 50.480188 129.38922 52.578458 C 129.8066 54.676736 130.12014 56.790414 130.32984 58.919496 C 130.53954 61.04858 130.6444 63.18281 130.64438 65.32219 Z "/>
</g>
</g>
</g>
</g>
<clipPath id="cp10">
<path transform="matrix(.24,0,0,.24,0,0)" d="M 0 0 L 1587.5 0 L 1587.5 3278.125 L 0 3278.125 Z "/>
</clipPath>
<g clip-path="url(#cp10)">
<clipPath id="cp11">
<path transform="matrix(.24,0,0,.24,0,0)" d="M 0 0 L 1587.5 0 L 1587.5 3281.25 L 0 3281.25 Z "/>
</clipPath>
<g clip-path="url(#cp11)">
<clipPath id="cp12">
<path transform="matrix(.24,0,0,.24,0,0)" d="M 310.93818 1320.3125 L 1161.6245 1320.3125 L 1161.6245 1911.7389 L 310.93818 1911.7389 Z "/>
</clipPath>
<g clip-path="url(#cp12)">
<clipPath id="cp13">
<path transform="matrix(.24,0,0,.24,0,0)" d="M 310.93818 1793.4536 L 310.93818 1438.5978 C 310.93815 1430.831 311.69544 1423.1389 313.21006 1415.5213 C 314.72468 1407.9038 316.96748 1400.5073 319.93849 1393.3318 C 322.90946 1386.1564 326.55158 1379.3397 330.86485 1372.8818 C 335.17805 1366.4242 340.07954 1360.4494 345.56925 1354.9574 C 351.05894 1349.4653 357.03138 1344.5619 363.48658 1340.2471 C 369.9418 1335.932 376.75575 1332.2883 383.92839 1329.3163 C 391.101 1326.3441 398.49458 1324.1005 406.109 1322.5853 C 413.72346 1321.0701 421.4125 1320.3125 429.17616 1320.3125 L 1043.3865 1320.3125 C 1051.15 1320.3125 1058.8391 1321.0701 1066.4535 1322.5853 C 1074.0679 1324.1005 1081.4613 1326.3441 1088.634 1329.3163 C 1095.8068 1332.2883 1102.6206 1335.932 1109.0758 1340.2471 C 1115.531 1344.5619 1121.5036 1349.4653 1126.9933 1354.9574 C 1132.4829 1360.4494 1137.3844 1366.4242 1141.6976 1372.8818 C 1146.011 1379.3397 1149.6531 1386.1564 1152.624 1393.3318 C 1155.5951 1400.5073 1157.8379 1407.9038 1159.3524 1415.5213 C 1160.8672 1423.1389 1161.6245 1430.831 1161.6245 1438.5978 L 1161.6245 1793.4536 C 1161.6245 1801.2202 1160.8672 1808.9122 1159.3524 1816.5298 C 1157.8379 1824.1471 1155.5951 1831.5436 1152.624 1838.7192 C 1149.6531 1845.8947 1146.011 1852.7113 1141.6976 1859.1691 C 1137.3844 1865.627 1132.4829 1871.6018 1126.9933 1877.0938 C 1121.5036 1882.5856 1115.5311 1887.489 1109.0759 1891.8038 C 1102.6207 1896.1189 1095.8068 1899.7625 1088.634 1902.7346 C 1081.4613 1905.7068 1074.0679 1907.9506 1066.4535 1909.4658 C 1058.8391 1910.9811 1051.15 1911.7388 1043.3865 1911.7389 L 429.17616 1911.7389 C 421.4125 1911.7388 413.72346 1910.9812 406.109 1909.466 C 398.49458 1907.9507 391.101 1905.7069 383.92839 1902.7348 C 376.75575 1899.7626 369.9418 1896.119 363.48658 1891.804 C 357.03138 1887.489 351.05894 1882.5856 345.56925 1877.0938 C 340.07954 1871.6018 335.17805 1865.627 330.86485 1859.1692 C 326.55158 1852.7113 322.90946 1845.8945 319.93846 1838.7191 C 316.96745 1831.5436 314.72465 1824.1471 313.21006 1816.5297 C 311.69544 1808.9122 310.93815 1801.2202 310.93818 1793.4536 Z "/>
</clipPath>
<g clip-path="url(#cp13)">
<path transform="matrix(.65151259,0,0,.6517731,74.62516,316.875)" stroke-width="4" stroke-linecap="butt" stroke-miterlimit="4" stroke-linejoin="miter" fill="none" stroke="#1a1a1a" d="M 43.555749 0 L 269.8146 0 C 271.24116 0 272.6642 .06991093 274.08384 .2097328 C 275.50349 .34955467 276.9128 .55861416 278.3119 .8369113 C 279.711 1.1152086 281.09309 1.4614034 282.45817 1.8754957 C 283.82325 2.289588 285.16474 2.769584 286.48265 3.3154834 C 287.80055 3.8613833 289.08854 4.470558 290.3466 5.1430079 C 291.60469 5.8154575 292.82676 6.5479438 294.01286 7.3404667 C 295.19898 8.13299 296.34339 8.981734 297.44609 9.8867 C 298.5488 10.791664 299.6045 11.748491 300.61317 12.757182 C 301.62187 13.765873 302.57868 14.821569 303.4836 15.924272 C 304.3886 17.026976 305.23735 18.171374 306.02986 19.357468 C 306.82237 20.543562 307.55488 21.765643 308.22734 23.023707 C 308.89979 24.281773 309.50895 25.569764 310.0548 26.887682 C 310.60075 28.205603 311.08076 29.547102 311.49485 30.912182 C 311.90895 32.27726 312.25517 33.659349 312.53346 35.05844 C 312.81175 36.45754 313.02079 37.8669 313.1606 39.286539 C 313.30046 40.706174 313.37037 42.129247 313.37037 43.555749 L 313.37037 174.22299 C 313.37037 175.64949 313.30046 177.07257 313.1606 178.4922 C 313.02079 179.91184 312.81175 181.32118 312.53346 182.72028 C 312.25517 184.11937 311.90895 185.50147 311.49485 186.86655 C 311.08076 188.23163 310.60075 189.57312 310.0548 190.89102 C 309.50895 192.20894 308.89979 193.49695 308.22734 194.75502 C 307.55488 196.01306 306.82237 197.23514 306.02986 198.42124 C 305.23735 199.60735 304.3886 200.75176 303.4836 201.85446 C 302.57868 202.95717 301.62187 204.01288 300.61317 205.02156 C 299.6045 206.03025 298.5488 206.98708 297.44609 207.89206 C 296.34339 208.79703 295.19898 209.64577 294.01286 210.43828 C 292.82676 211.2308 291.60469 211.96329 290.34663 212.63574 C 289.08854 213.30818 287.80055 213.91735 286.48265 214.46324 C 285.16474 215.00916 283.82325 215.48915 282.45817 215.90326 C 281.09309 216.31734 279.711 216.66353 278.3119 216.94182 C 276.9128 217.22013 275.50349 217.42919 274.08384 217.56902 C 272.6642 217.70883 271.24116 217.77875 269.8146 217.77875 L 43.555749 217.77875 C 42.129247 217.77875 40.706174 217.70883 39.286539 217.56902 C 37.8669 217.42919 36.45754 217.22013 35.05844 216.94182 C 33.659349 216.66353 32.27726 216.31734 30.91218 215.90326 C 29.547102 215.48915 28.205603 215.00916 26.887682 214.46324 C 25.569764 213.91735 24.281773 213.30818 23.023707 212.63574 C 21.765643 211.96329 20.543562 211.23079 19.357468 210.43827 C 18.171374 209.64575 17.026976 208.79701 15.924273 207.89205 C 14.821569 206.98708 13.765873 206.03025 12.757182 205.02156 C 11.748491 204.01288 10.791664 202.95719 9.8867 201.85448 C 8.981734 200.75177 8.13299 199.60736 7.340466 198.42125 C 6.547943 197.23517 5.815457 196.01309 5.1430075 194.75504 C 4.4705579 193.49697 3.8613833 192.20897 3.3154834 190.89104 C 2.769584 189.57312 2.289588 188.23163 1.8754957 186.86655 C 1.4614034 185.50147 1.1152086 184.11937 .8369113 182.72028 C .55861416 181.32118 .34955467 179.91182 .2097328 178.49219 C .06991093 177.07256 0 175.64949 0 174.22299 L 0 43.555749 C 0 42.129247 .06991093 40.706174 .2097328 39.286539 C .34955467 37.8669 .55861416 36.45754 .8369113 35.05844 C 1.1152086 33.659349 1.4614034 32.27726 1.8754957 30.91218 C 2.289588 29.547102 2.769584 28.205603 3.3154834 26.887682 C 3.8613833 25.569764 4.470558 24.281773 5.1430079 23.023707 C 5.8154575 21.765643 6.5479438 20.543562 7.3404667 19.357468 C 8.13299 18.171374 8.981734 17.026976 9.8867 15.924273 C 10.791664 14.821569 11.748491 13.765873 12.757182 12.757182 C 13.765873 11.748491 14.821569 10.791664 15.924272 9.8867 C 17.026976 8.981734 18.171374 8.13299 19.357468 7.340466 C 20.543562 6.547943 21.765643 5.815457 23.023707 5.1430075 C 24.281773 4.4705579 25.569764 3.8613833 26.887682 3.3154834 C 28.205603 2.769584 29.547102 2.289588 30.912182 1.8754957 C 32.27726 1.4614034 33.659349 1.1152086 35.05844 .8369113 C 36.45754 .55861416 37.8669 .34955467 39.286539 .2097328 C 40.706174 .06991093 42.129247 0 43.555749 0 Z "/>
</g>
</g>
</g>
</g>
<clipPath id="cp14">
<path transform="matrix(.24,0,0,.24,0,0)" d="M 0 0 L 1587.5 0 L 1587.5 3278.125 L 0 3278.125 Z " fill-rule="evenodd"/>
</clipPath>
<g clip-path="url(#cp14)">
<g id="Layer-1" data-name="P">
<g id="Layer-2" data-name="Span">
</g>
</g>
<text fill="#1a1a1a" xml:space="preserve" transform="matrix(.65151259 0 0 .6517731 81.71944 323.9721)" font-size="36" font-family="OpenSans"><tspan y="60.500436" x="48.026716 70.742717 85.43072 107.17472 124.346729 141.51873 153.11072 153.10875 170.24475 192.34876 212.36476 221.47277 243.57677">Cross- chain&#x00a0;</tspan></text>
<g id="Layer-1" data-name="P">
</g>
<text fill="#1a1a1a" xml:space="preserve" transform="matrix(.65151259 0 0 .6517731 81.71944 323.9721)" font-size="36" font-family="OpenSans"><tspan y="109.500438" x=".34604866 20.25405 34.94205 54.958055 77.06206 94.234058 106.43806 126.634059 141.32205 150.68206 172.35405 187.04206 208.78606 221.49405 243.23805 260.37406 282.11805">Transfer Protocol</tspan></text>
</g>
<clipPath id="cp15">
<path transform="matrix(.24,0,0,.24,0,0)" d="M 0 0 L 1587.5 0 L 1587.5 3278.125 L 0 3278.125 Z "/>
</clipPath>
<g clip-path="url(#cp15)">
<clipPath id="cp16">
<path transform="matrix(.24,0,0,.24,0,0)" d="M 0 0 L 1587.5 0 L 1587.5 3281.25 L 0 3281.25 Z "/>
</clipPath>
<g clip-path="url(#cp16)">
<clipPath id="cp17">
<path transform="matrix(.24,0,0,.24,0,0)" d="M 733.5534 763.2843 L 2118.0177 763.2843 L 2118.0177 3617.5074 L 733.5534 3617.5074 Z "/>
</clipPath>
<g clip-path="url(#cp17)">
<clipPath id="cp18">
<path transform="matrix(.24,0,0,.24,0,0)" d="M 733.5534 994.27279 L 996.8731 994.27279 L 996.8731 1054.0186 L 733.5534 1054.0186 M 733.5534 763.2843 L 2115.873 763.2843 L 2115.873 3617.5074 L 733.5534 3617.5074 " fill-rule="evenodd"/>
</clipPath>
<g clip-path="url(#cp18)">
<path transform="matrix(.65151259,0,0,.6517731,176.70433,183.84)" stroke-width="1" stroke-linecap="butt" stroke-miterlimit="4" stroke-linejoin="miter" fill="none" stroke="#000000" d="M 0 .79999998 L 0 191.31206 "/>
</g>
</g>
</g>
</g>
<clipPath id="cp19">
<path transform="matrix(.24,0,0,.24,0,0)" d="M 0 0 L 1587.5 0 L 1587.5 3278.125 L 0 3278.125 Z " fill-rule="evenodd"/>
</clipPath>
<g clip-path="url(#cp19)">
<path transform="matrix(.00000000000000003989364,.6517731,-.65151259,.000000000000000039909593,176.70433,316.87474)" d="M -16 -4 L 0 0 L -16 4 L -16 -4 Z "/>
<g id="Layer-1" data-name="P">
</g>
<text xml:space="preserve" transform="matrix(.65151259 0 0 .6517731 114.159137 239.929)" font-size="14" font-family="OpenSans"><tspan y="14" x="0 7.6860005 15.540001 24.136002 32.718004 39.396005 43.036005 56.056005 63.910005 70.588008 77.26601 85.05001 92.72201 100.57601 104.21601 109.15801 117.61401 121.25401 130.11602 133.65802 137.20003 143.86403 151.71804 155.35803 163.95404 170.63204 174.17404 182.77005">Sends message to Alice using</tspan></text>
<g id="Layer-1" data-name="P">
</g>
<text fill="#1a1a1a" xml:space="preserve" transform="matrix(.65151259 0 0 .6517731 111.060588 407.74497)" font-size="14" font-family="OpenSans"><tspan y="14" x=".08142769 8.943428 12.485428 16.027428 24.483429 35.37543 42.053434 45.69343 54.289434 60.967435 68.821437 74.53343 81.21143 84.85143 89.793437 98.249439 101.889438 108.56744 116.42144 125.01744 133.59944 137.23944 150.25945 158.11345 164.79145 171.46944 179.25344 186.92543 194.77944 201.45743">Allows users to send messages&#x00a0;</tspan></text>
<g id="Layer-1" data-name="P">
</g>
<text fill="#1a1a1a" xml:space="preserve" transform="matrix(.65151259 0 0 .6517731 111.060588 407.74497)" font-size="14" font-family="OpenSans"><tspan y="34" x="25.30262 30.04862 35.76062 44.21662 57.23662 60.87662 69.33262 77.92862 85.78262 89.42262 98.00462 101.54662 110.002628 116.666629 124.016628 130.68062 139.27661 147.06061 150.60262 159.19861 162.83861 167.78061 176.2366">from one blockchain to&#x00a0;</tspan></text>
<g id="Layer-1" data-name="P">
</g>
<text fill="#1a1a1a" xml:space="preserve" transform="matrix(.65151259 0 0 .6517731 111.060588 407.74497)" font-size="14" font-family="OpenSans"><tspan y="54" x="74.79139 82.57539 91.171398 99.627399 104.5694 113.1654 121.0194">another</tspan></text>
</g>
<clipPath id="cp20">
<path transform="matrix(.24,0,0,.24,0,0)" d="M 0 0 L 1587.5 0 L 1587.5 3278.125 L 0 3278.125 Z "/>
</clipPath>
<g clip-path="url(#cp20)">
<clipPath id="cp21">
<path transform="matrix(.24,0,0,.24,0,0)" d="M 0 0 L 1587.5 0 L 1587.5 3281.25 L 0 3281.25 Z "/>
</clipPath>
<g clip-path="url(#cp21)">
<clipPath id="cp22">
<path transform="matrix(.24,0,0,.24,0,0)" d="M 1158.9146 585.87808 L 2543.379 585.87808 L 2543.379 3440.101 L 1158.9146 3440.101 Z "/>
</clipPath>
<g clip-path="url(#cp22)">
<clipPath id="cp23">
<path transform="matrix(.24,0,0,.24,0,0)" d="M 1158.9146 1142.8462 L 1506.388 1142.8462 L 1506.388 1202.592 L 1158.9146 1202.592 M 1158.9146 585.87808 L 2541.2344 585.87808 L 2541.2344 3440.101 L 1158.9146 3440.101 " fill-rule="evenodd"/>
</clipPath>
<g clip-path="url(#cp23)">
<path transform="matrix(.65151259,0,0,.6517731,278.791,141.2625)" d="M .8 377.8236 L 4.8 377.8236 L 4.8 378.8236 L .8 378.8236 L .8 377.8236 Z M 9.8 377.8236 L 13.8 377.8236 L 13.8 378.8236 L 9.8 378.8236 L 9.8 377.8236 Z M 18.8 377.8236 L 22.8 377.8236 L 22.8 378.8236 L 18.8 378.8236 L 18.8 377.8236 Z M 27.8 377.8236 L 30 377.8236 L 30 378.3236 L 29.5 378.3236 L 29.5 376.52363 L 30.5 376.52363 L 30.5 378.8236 L 27.8 378.8236 L 27.8 377.8236 Z M 29.5 371.52363 L 29.5 367.52363 L 30.5 367.52363 L 30.5 371.52363 L 29.5 371.52363 Z M 29.5 362.52363 L 29.5 358.52363 L 30.5 358.52363 L 30.5 362.52363 L 29.5 362.52363 Z M 29.5 353.52363 L 29.5 349.52363 L 30.5 349.52363 L 30.5 353.52363 L 29.5 353.52363 Z M 29.5 344.52363 L 29.5 340.52363 L 30.5 340.52363 L 30.5 344.52363 L 29.5 344.52363 Z M 29.5 335.52363 L 29.5 331.52363 L 30.5 331.52363 L 30.5 335.52363 L 29.5 335.52363 Z M 29.5 326.52363 L 29.5 322.52363 L 30.5 322.52363 L 30.5 326.52363 L 29.5 326.52363 Z M 29.5 317.52363 L 29.5 313.52363 L 30.5 313.52363 L 30.5 317.52363 L 29.5 317.52363 Z M 29.5 308.52363 L 29.5 304.52363 L 30.5 304.52363 L 30.5 308.52363 L 29.5 308.52363 Z M 29.5 299.52363 L 29.5 295.52363 L 30.5 295.52363 L 30.5 299.52363 L 29.5 299.52363 Z M 29.5 290.52363 L 29.5 286.52363 L 30.5 286.52363 L 30.5 290.52363 L 29.5 290.52363 Z M 29.5 281.52363 L 29.5 277.52363 L 30.5 277.52363 L 30.5 281.52363 L 29.5 281.52363 Z M 29.5 272.52363 L 29.5 268.52363 L 30.5 268.52363 L 30.5 272.52363 L 29.5 272.52363 Z M 29.5 263.52363 L 29.5 259.52363 L 30.5 259.52363 L 30.5 263.52363 L 29.5 263.52363 Z M 29.5 254.52362 L 29.5 250.5236 L 30.5 250.5236 L 30.5 254.52362 L 29.5 254.52362 Z M 29.5 245.5236 L 29.5 241.5236 L 30.5 241.5236 L 30.5 245.5236 L 29.5 245.5236 Z M 29.5 236.5236 L 29.5 232.5236 L 30.5 232.5236 L 30.5 236.5236 L 29.5 236.5236 Z M 29.5 227.5236 L 29.5 223.5236 L 30.5 223.5236 L 30.5 227.5236 L 29.5 227.5236 Z M 29.5 218.5236 L 29.5 214.5236 L 30.5 214.5236 L 30.5 218.5236 L 29.5 218.5236 Z M 29.5 209.5236 L 29.5 205.5236 L 30.5 205.5236 L 30.5 209.5236 L 29.5 209.5236 Z M 29.5 200.5236 L 29.5 196.5236 L 30.5 196.5236 L 30.5 200.5236 L 29.5 200.5236 Z M 29.5 191.5236 L 29.5 187.5236 L 30.5 187.5236 L 30.5 191.5236 L 29.5 191.5236 Z M 29.5 182.5236 L 29.5 178.5236 L 30.5 178.5236 L 30.5 182.5236 L 29.5 182.5236 Z M 29.5 173.5236 L 29.5 169.52359 L 30.5 169.52359 L 30.5 173.5236 L 29.5 173.5236 Z M 29.5 164.52359 L 29.5 160.52362 L 30.5 160.52362 L 30.5 164.52359 L 29.5 164.52359 Z M 29.5 155.52362 L 29.5 151.5236 L 30.5 151.5236 L 30.5 155.52362 L 29.5 155.52362 Z M 29.5 146.5236 L 29.5 142.5236 L 30.5 142.5236 L 30.5 146.5236 L 29.5 146.5236 Z M 29.5 137.5236 L 29.5 133.5236 L 30.5 133.5236 L 30.5 137.5236 L 29.5 137.5236 Z M 29.5 128.5236 L 29.5 124.523609 L 30.5 124.523609 L 30.5 128.5236 L 29.5 128.5236 Z M 29.5 119.52362 L 29.5 115.52362 L 30.5 115.52362 L 30.5 119.52362 L 29.5 119.52362 Z M 29.5 110.52362 L 29.5 106.52362 L 30.5 106.52362 L 30.5 110.52362 L 29.5 110.52362 Z M 29.5 101.52362 L 29.5 97.52362 L 30.5 97.52362 L 30.5 101.52362 L 29.5 101.52362 Z M 29.5 92.52362 L 29.5 88.52362 L 30.5 88.52362 L 30.5 92.52362 L 29.5 92.52362 Z M 29.5 83.52362 L 29.5 79.52362 L 30.5 79.52362 L 30.5 83.52362 L 29.5 83.52362 Z M 29.5 74.52362 L 29.5 70.52362 L 30.5 70.52362 L 30.5 74.52362 L 29.5 74.52362 Z M 29.5 65.52362 L 29.5 61.52362 L 30.5 61.52362 L 30.5 65.52362 L 29.5 65.52362 Z M 29.5 56.52362 L 29.5 52.52362 L 30.5 52.52362 L 30.5 56.52362 L 29.5 56.52362 Z M 29.5 47.52362 L 29.5 43.52362 L 30.5 43.52362 L 30.5 47.52362 L 29.5 47.52362 Z M 29.5 38.52362 L 29.5 34.52362 L 30.5 34.52362 L 30.5 38.52362 L 29.5 38.52362 Z M 29.5 29.52362 L 29.5 25.52362 L 30.5 25.52362 L 30.5 29.52362 L 29.5 29.52362 Z M 29.5 20.52362 L 29.5 16.52362 L 30.5 16.52362 L 30.5 20.52362 L 29.5 20.52362 Z M 29.5 11.523621 L 29.5 7.5236208 L 30.5 7.5236208 L 30.5 11.523621 L 29.5 11.523621 Z M 29.5 2.5236207 L 29.5 0 L 30 0 L 30 .5 L 28.523623 .5 L 28.523623 -.5 L 30.5 -.5 L 30.5 2.5236207 L 29.5 2.5236207 Z M 23.523625 .5 L 19.523629 .5 L 19.523629 -.5 L 23.523625 -.5 L 23.523625 .5 Z M 14.523631 .5 L 12.8 .5 L 12.8 -.5 L 14.523631 -.5 L 14.523631 .5 Z "/>
</g>
</g>
</g>
</g>
<clipPath id="cp24">
<path transform="matrix(.24,0,0,.24,0,0)" d="M 0 0 L 1587.5 0 L 1587.5 3278.125 L 0 3278.125 Z " fill-rule="evenodd"/>
</clipPath>
<g clip-path="url(#cp24)">
<path transform="matrix(-.65151259,.000000000000000079819186,-.00000000000000007978728,-.6517731,278.791,141.2625)" d="M -16 -4 L 0 0 L -16 4 L -16 -4 Z "/>
<g id="Layer-1" data-name="P">
<g id="Layer-2" data-name="Span">
</g>
</g>
<text xml:space="preserve" transform="matrix(.65151259 0 0 .6517731 235.13968 275.5866)" font-size="14" font-family="OpenSans"><tspan y="14" x="0 7.6860005 15.540001 24.136002 32.718004 39.396005 43.036005 48.748006 56.602006 63.266008 71.12001 74.66201 83.24401 88.18601 91.82601 98.49001 106.946018 115.542018 123.83002 129.54203 142.56203 150.34603 155.28803 158.83003 167.28603 175.88202 179.52202 184.46402">Sends receipt con&#xfb01;rmation to</tspan></text>
</g>
<clipPath id="cp25">
<path transform="matrix(.24,0,0,.24,0,0)" d="M 0 0 L 1587.5 0 L 1587.5 3278.125 L 0 3278.125 Z "/>
</clipPath>
<g clip-path="url(#cp25)">
<clipPath id="cp26">
<path transform="matrix(.24,0,0,.24,0,0)" d="M 0 0 L 1587.5 0 L 1587.5 3281.25 L 0 3281.25 Z "/>
</clipPath>
<g clip-path="url(#cp26)">
<clipPath id="cp27">
<path transform="matrix(.24,0,0,.24,0,0)" d="M 310.93818 2820.5313 L 1161.6245 2820.5313 L 1161.6245 3175.325 L 310.93818 3175.325 Z "/>
</clipPath>
<g clip-path="url(#cp27)">
<clipPath id="cp28">
<path transform="matrix(.24,0,0,.24,0,0)" d="M 310.93818 3104.3663 L 310.93818 2891.49 C 310.93815 2886.8306 311.39247 2882.216 312.30107 2877.6466 C 313.20967 2873.0767 314.5551 2868.6395 316.3374 2864.335 C 318.1197 2860.0303 320.30458 2855.9412 322.89207 2852.0675 C 325.47956 2848.193 328.41993 2844.609 331.71318 2841.3143 C 335.0064 2838.0196 338.58927 2835.0782 342.46174 2832.4896 C 346.33418 2829.901 350.4218 2827.7154 354.72465 2825.9324 C 359.02748 2824.1495 363.46284 2822.8035 368.0307 2821.8946 C 372.59858 2820.9859 377.21119 2820.5316 381.86857 2820.5313 L 1090.6941 2820.5313 C 1095.3515 2820.5316 1099.964 2820.9859 1104.5317 2821.8948 C 1109.0996 2822.8038 1113.5349 2824.1495 1117.8378 2825.9324 C 1122.1406 2827.7154 1126.2283 2829.901 1130.1007 2832.4896 C 1133.9732 2835.0782 1137.556 2838.0196 1140.8494 2841.3143 C 1144.1426 2844.609 1147.0829 2848.193 1149.6704 2852.0672 C 1152.2578 2855.941 1154.4428 2860.0303 1156.2251 2864.335 C 1158.0075 2868.6395 1159.3529 2873.0767 1160.2615 2877.6466 C 1161.1702 2882.216 1161.6245 2886.8306 1161.6245 2891.49 L 1161.6245 3104.3663 C 1161.6245 3109.0252 1161.1702 3113.6397 1160.2615 3118.2095 C 1159.3529 3122.7789 1158.0075 3127.2159 1156.2251 3131.5206 C 1154.4428 3135.825 1152.2578 3139.9144 1149.6704 3143.788 C 1147.0829 3147.662 1144.1426 3151.2467 1140.8494 3154.5413 C 1137.556 3157.836 1133.9732 3160.7774 1130.1007 3163.3658 C 1126.2283 3165.9544 1122.1406 3168.1402 1117.8378 3169.923 C 1113.5349 3171.706 1109.0996 3173.052 1104.5317 3173.9613 C 1099.964 3174.87 1095.3515 3175.3248 1090.6941 3175.325 L 381.86857 3175.325 C 377.21119 3175.3248 372.59858 3174.87 368.0307 3173.9613 C 363.46284 3173.052 359.02748 3171.706 354.72465 3169.923 C 350.4218 3168.1402 346.33418 3165.9544 342.46174 3163.3658 C 338.58927 3160.7774 335.00645 3157.836 331.7132 3154.5413 C 328.41996 3151.2467 325.47956 3147.662 322.89207 3143.788 C 320.30458 3139.9144 318.1197 3135.825 316.3374 3131.5206 C 314.5551 3127.2159 313.20967 3122.7789 312.30107 3118.2095 C 311.39247 3113.6397 310.93815 3109.0252 310.93818 3104.3663 Z "/>
</clipPath>
<g clip-path="url(#cp28)">
<path transform="matrix(.65151259,0,0,.6517731,74.62516,676.9275)" stroke-width="4" stroke-linecap="butt" stroke-miterlimit="4" stroke-linejoin="miter" fill="none" stroke="#1a1a1a" d="M 26.128878 0 L 287.2415 0 C 288.09724 0 288.95094 .04193922 289.80256 .12581767 C 290.65419 .20969612 291.49964 .3351099 292.33894 .502059 C 293.17826 .66900816 294.00736 .8766886 294.82624 1.1251006 C 295.64515 1.3735126 296.4499 1.6614597 297.2405 1.9889422 C 298.03117 2.3164247 298.80384 2.6818655 299.5585 3.0852648 C 300.31324 3.488664 301.04634 3.928079 301.75785 4.4035098 C 302.46943 4.8789408 303.15596 5.3880984 303.81745 5.930982 C 304.47895 6.4738667 305.11225 7.0478627 305.71736 7.652971 C 306.32249 8.25808 306.89649 8.891388 307.43937 9.552894 C 307.98225 10.214399 308.49137 10.900918 308.9668 11.61245 C 309.44224 12.323983 309.88163 13.057103 310.28504 13.81181 C 310.68846 14.566516 311.0539 15.339175 311.38139 16.129788 C 311.70887 16.9204 311.99684 17.725159 312.24528 18.544064 C 312.49366 19.362967 312.70133 20.192074 312.8683 21.031384 C 313.03526 21.870696 313.16069 22.716168 313.24458 23.567799 C 313.32844 24.419432 313.37037 25.273125 313.37037 26.128878 L 313.37037 104.5155 C 313.37037 105.371257 313.32844 106.224948 313.24458 107.07658 C 313.16069 107.92821 313.03526 108.77368 312.8683 109.61298 C 312.70133 110.4523 312.49366 111.2814 312.24528 112.1003 C 311.99684 112.919208 311.70887 113.72396 311.38139 114.51457 C 311.0539 115.30518 310.68846 116.07784 310.28504 116.83255 C 309.88163 117.58726 309.4422 118.32038 308.96678 119.031909 C 308.49137 119.74345 307.9822 120.42997 307.43934 121.09148 C 306.89646 121.75298 306.32249 122.386287 305.71736 122.991397 C 305.11225 123.596508 304.47895 124.1705 303.81745 124.71339 C 303.15596 125.25627 302.46943 125.76542 301.75785 126.240848 C 301.04634 126.71628 300.31324 127.15569 299.55854 127.5591 C 298.80384 127.9625 298.03117 128.32794 297.24055 128.65543 C 296.44993 128.98291 295.64518 129.27086 294.82627 129.51927 C 294.0074 129.7677 293.17829 129.97537 292.33897 130.14232 C 291.49967 130.30927 290.6542 130.4347 289.80256 130.51857 C 288.95094 130.60245 288.09724 130.64438 287.2415 130.64438 L 26.128878 130.64438 C 25.273125 130.64438 24.419434 130.60245 23.5678 130.51857 C 22.716168 130.4347 21.870697 130.30927 21.031386 130.14232 C 20.192076 129.97537 19.362969 129.7677 18.544066 129.51927 C 17.725159 129.27086 16.9204 128.98291 16.129788 128.65543 C 15.339175 128.32796 14.566516 127.96251 13.81181 127.559108 C 13.057103 127.15571 12.323983 126.71629 11.61245 126.24085 C 10.900918 125.76543 10.214399 125.25628 9.552894 124.713397 C 8.891388 124.17051 8.25808 123.59651 7.652971 122.9914 C 7.0478627 122.38629 6.4738667 121.75299 5.930982 121.091487 C 5.3880984 120.42998 4.8789408 119.743457 4.403509 119.03191 C 3.9280787 118.32039 3.488664 117.58727 3.0852648 116.832569 C 2.6818655 116.07786 2.3164247 115.3052 1.9889422 114.51458 C 1.6614597 113.72397 1.3735126 112.91921 1.1251006 112.10031 C .8766886 111.28141 .66900816 110.4523 .502059 109.61298 C .3351099 108.77368 .20969612 107.92821 .12581767 107.07658 C .04193922 106.224948 0 105.371257 0 104.5155 L 0 26.128878 C 0 25.273125 .04193922 24.419434 .12581767 23.5678 C .20969612 22.716168 .3351099 21.870697 .502059 21.031386 C .66900816 20.192076 .8766886 19.362969 1.1251006 18.544066 C 1.3735126 17.725159 1.6614597 16.9204 1.9889422 16.129788 C 2.3164247 15.339175 2.6818655 14.566516 3.0852648 13.81181 C 3.488664 13.057103 3.928079 12.323983 4.4035098 11.61245 C 4.8789408 10.900918 5.3880984 10.214399 5.930982 9.552894 C 6.4738667 8.891388 7.0478627 8.25808 7.652971 7.652971 C 8.25808 7.0478627 8.891388 6.4738667 9.552894 5.930982 C 10.214399 5.3880984 10.900918 4.8789408 11.61245 4.403509 C 12.323983 3.9280787 13.057103 3.488664 13.81181 3.0852648 C 14.566516 2.6818655 15.339175 2.3164247 16.129788 1.9889422 C 16.9204 1.6614597 17.725159 1.3735126 18.544064 1.1251006 C 19.362967 .8766886 20.192074 .66900816 21.031384 .502059 C 21.870696 .3351099 22.716168 .20969612 23.567799 .12581767 C 24.419432 .04193922 25.273125 0 26.128878 0 Z "/>
</g>
</g>
</g>
</g>
<clipPath id="cp29">
<path transform="matrix(.24,0,0,.24,0,0)" d="M 0 0 L 1587.5 0 L 1587.5 3278.125 L 0 3278.125 Z " fill-rule="evenodd"/>
</clipPath>
<g clip-path="url(#cp29)">
<g id="Layer-1" data-name="P">
</g>
<text fill="#1a1a1a" xml:space="preserve" transform="matrix(.65151259 0 0 .6517731 78.88098 681.185)" font-size="24" font-family="OpenSans"><tspan y="66.28997" x="4.4537436 19.645745 25.717745 31.789746 43.213747 56.677747 63.061746 69.30174 86.77374 98.22174 111.685749 121.477748 127.71774 142.21375 150.34975 156.58975 171.30176 177.37377 191.86977 203.29376 215.89377 227.31777 242.05377 255.39777 261.46977 276.20576 282.44575">Alice: User of blockchain Y</tspan></text>
</g>
<clipPath id="cp30">
<path transform="matrix(.24,0,0,.24,0,0)" d="M 0 0 L 1587.5 0 L 1587.5 3278.125 L 0 3278.125 Z "/>
</clipPath>
<g clip-path="url(#cp30)">
<clipPath id="cp31">
<path transform="matrix(.24,0,0,.24,0,0)" d="M 0 0 L 1587.5 0 L 1587.5 3281.25 L 0 3281.25 Z "/>
</clipPath>
<g clip-path="url(#cp31)">
<clipPath id="cp32">
<path transform="matrix(.24,0,0,.24,0,0)" d="M 558.964 2465.75 L 913.6159 2465.75 L 913.6159 2820.5438 L 558.964 2820.5438 Z "/>
</clipPath>
<g clip-path="url(#cp32)">
<clipPath id="cp33">
<path transform="matrix(.24,0,0,.24,0,0)" d="M 558.964 2643.147 C 558.964 2631.4989 560.09976 2619.9627 562.3712 2608.538 C 564.6427 2597.114 568.0063 2586.021 572.46206 2575.2596 C 576.9178 2564.4984 582.38 2554.2752 588.84878 2544.59 C 595.3175 2534.905 602.66848 2525.9444 610.90158 2517.7083 C 619.13467 2509.472 628.09176 2502.1182 637.7728 2495.647 C 647.454 2489.1756 657.6731 2483.7113 668.4302 2479.2535 C 679.1872 2474.7962 690.2756 2471.4312 701.6953 2469.1588 C 713.115 2466.8863 724.64657 2465.75 736.2899 2465.75 C 747.9333 2465.75 759.4648 2466.8863 770.8844 2469.1588 C 782.30416 2471.4312 793.3925 2474.7962 804.14956 2479.2535 C 814.9066 2483.7113 825.12576 2489.1756 834.8069 2495.6468 C 844.48806 2502.1182 853.4452 2509.472 861.6783 2517.7083 C 869.9114 2525.9444 877.26229 2534.905 883.73098 2544.59 C 890.19967 2554.2752 895.6619 2564.4986 900.1177 2575.26 C 904.5734 2586.0213 907.937 2597.114 910.20858 2608.538 C 912.48007 2619.9627 913.61587 2631.4989 913.6159 2643.147 C 913.61587 2654.795 912.48007 2666.331 910.20858 2677.7552 C 907.937 2689.1793 904.57339 2700.272 900.1176 2711.0335 C 895.66189 2721.795 890.19967 2732.018 883.73098 2741.703 C 877.26229 2751.388 869.9113 2760.3487 861.6782 2768.5853 C 853.44509 2776.8216 844.4879 2784.1754 834.80679 2790.6468 C 825.1257 2797.1182 814.9066 2802.5826 804.14956 2807.04 C 793.3925 2811.4976 782.30416 2814.8626 770.8844 2817.135 C 759.4648 2819.4075 747.9333 2820.5438 736.2899 2820.5438 C 724.64657 2820.5438 713.115 2819.4075 701.6953 2817.135 C 690.2756 2814.8626 679.1872 2811.4976 668.4301 2807.0399 C 657.673 2802.5826 647.4539 2797.1182 637.7728 2790.6468 C 628.09176 2784.1754 619.13467 2776.8216 610.90158 2768.585 C 602.66848 2760.3485 595.3175 2751.3878 588.8488 2741.703 C 582.38 2732.018 576.9178 2721.795 572.46206 2711.0335 C 568.0063 2700.272 564.6427 2689.179 562.3712 2677.755 C 560.09976 2666.3309 558.964 2654.795 558.964 2643.147 Z "/>
</clipPath>
<g clip-path="url(#cp33)">
<path transform="matrix(.65151259,0,0,.6517731,134.15135,591.77999)" stroke-width="4" stroke-linecap="butt" stroke-miterlimit="4" stroke-linejoin="miter" fill="none" stroke="#1a1a1a" d="M 130.64438 65.32219 C 130.6444 67.46157 130.53954 69.5958 130.32984 71.724887 C 130.12014 73.853969 129.8066 75.96764 129.38922 78.06591 C 128.97187 80.164188 128.45267 82.23695 127.83163 84.28422 C 127.210597 86.33148 126.49072 88.343379 125.67201 90.3199 C 124.85331 92.29644 123.93971 94.22809 122.93122 96.11486 C 121.922718 98.00162 120.82418 99.83441 119.635608 101.61324 C 118.44703 103.39208 117.17413 105.10838 115.816928 106.762149 C 114.45971 108.41592 113.02472 109.99918 111.511959 111.51195 C 109.99919 113.02472 108.415927 114.45971 106.76215 115.81692 C 105.10838 117.174129 103.39209 118.447017 101.61326 119.63559 C 99.83443 120.82417 98.001628 121.922718 96.11485 122.931209 C 94.22809 123.939708 92.29644 124.8533 90.3199 125.672008 C 88.343379 126.49072 86.33149 127.210597 84.284229 127.83162 C 82.23696 128.45267 80.164188 128.97187 78.06591 129.38922 C 75.96764 129.8066 73.85397 130.12014 71.72489 130.32984 C 69.59581 130.53954 67.46157 130.64438 65.32219 130.64438 C 63.18281 130.64438 61.04858 130.53954 58.919496 130.32984 C 56.790414 130.12014 54.676736 129.8066 52.578458 129.38922 C 50.480188 128.97187 48.407419 128.45267 46.360158 127.83163 C 44.312898 127.210597 42.301004 126.49072 40.324468 125.67201 C 38.34794 124.85331 36.41629 123.93971 34.529527 122.93122 C 32.642759 121.922718 30.809956 120.82418 29.031123 119.635608 C 27.252293 118.44703 25.535996 117.17413 23.882229 115.816928 C 22.228466 114.45971 20.645199 113.02472 19.132426 111.511959 C 17.619654 109.99919 16.184664 108.415927 14.827454 106.76215 C 13.470244 105.10838 12.1973509 103.39209 11.008773 101.61326 C 9.820196 99.83443 8.721659 98.001628 7.7131607 96.11485 C 6.704663 94.22809 5.791061 92.29644 4.972355 90.3199 C 4.153649 88.343379 3.4337812 86.33149 2.8127514 84.284229 C 2.1917215 82.23696 1.67252 80.164188 1.2551473 78.06591 C .83777466 75.96764 .52424028 73.85397 .31454418 71.72489 C .10484806 69.59581 0 67.46157 0 65.32219 C 0 63.18281 .10484806 61.04858 .31454418 58.919496 C .52424028 56.790414 .83777466 54.676736 1.2551473 52.578458 C 1.67252 50.480188 2.1917215 48.407419 2.8127514 46.360158 C 3.4337812 44.312898 4.153649 42.301004 4.972355 40.324468 C 5.791061 38.34794 6.704663 36.41629 7.7131607 34.529527 C 8.721659 32.642759 9.820196 30.809956 11.008773 29.031123 C 12.1973509 27.252293 13.470244 25.535996 14.827454 23.882229 C 16.184664 22.228466 17.619654 20.645199 19.132426 19.132426 C 20.645199 17.619654 22.228466 16.184664 23.882229 14.827454 C 25.535994 13.470244 27.25229 12.1973509 29.03112 11.008773 C 30.809954 9.820196 32.642755 8.721659 34.529523 7.7131607 C 36.41629 6.704663 38.34794 5.791061 40.324468 4.972355 C 42.301004 4.153649 44.3129 3.4337812 46.36016 2.8127514 C 48.40742 2.1917215 50.480188 1.67252 52.578458 1.2551473 C 54.676736 .83777466 56.790414 .52424028 58.919496 .31454418 C 61.04858 .10484806 63.18281 0 65.32219 0 C 67.46157 0 69.5958 .10484806 71.724887 .31454418 C 73.853969 .52424028 75.96764 .83777466 78.06591 1.2551473 C 80.164188 1.67252 82.23695 2.1917215 84.28422 2.8127514 C 86.33148 3.4337812 88.343379 4.153649 90.3199 4.972355 C 92.29644 5.791061 94.22809 6.704663 96.11486 7.7131607 C 98.00162 8.721659 99.83441 9.820196 101.61324 11.008773 C 103.39208 12.1973509 105.10838 13.470244 106.762149 14.827454 C 108.41592 16.184664 109.99918 17.619654 111.51195 19.132426 C 113.02472 20.645199 114.45971 22.228466 115.81692 23.882229 C 117.174129 25.535994 118.447017 27.25229 119.63559 29.03112 C 120.82417 30.809954 121.922718 32.642755 122.931209 34.529523 C 123.939708 36.41629 124.8533 38.34794 125.672008 40.324468 C 126.49072 42.301004 127.210597 44.3129 127.83162 46.36016 C 128.45267 48.40742 128.97187 50.480188 129.38922 52.578458 C 129.8066 54.676736 130.12014 56.790414 130.32984 58.919496 C 130.53954 61.04858 130.6444 63.18281 130.64438 65.32219 Z "/>
</g>
</g>
</g>
</g>
<clipPath id="cp34">
<path transform="matrix(.24,0,0,.24,0,0)" d="M 0 0 L 1587.5 0 L 1587.5 3278.125 L 0 3278.125 Z "/>
</clipPath>
<g clip-path="url(#cp34)">
<clipPath id="cp35">
<path transform="matrix(.24,0,0,.24,0,0)" d="M 0 0 L 1587.5 0 L 1587.5 3281.25 L 0 3281.25 Z "/>
</clipPath>
<g clip-path="url(#cp35)">
<clipPath id="cp36">
<path transform="matrix(.24,0,0,.24,0,0)" d="M 733.5534 1909.0343 L 2118.0177 1909.0343 L 2118.0177 4763.2575 L 733.5534 4763.2575 Z "/>
</clipPath>
<g clip-path="url(#cp36)">
<clipPath id="cp37">
<path transform="matrix(.24,0,0,.24,0,0)" d="M 733.5534 2139.8707 L 897.7889 2139.8707 L 897.7889 2199.6165 L 733.5534 2199.6165 M 733.5534 1909.0343 L 2115.873 1909.0343 L 2115.873 4763.2575 L 733.5534 4763.2575 " fill-rule="evenodd"/>
</clipPath>
<g clip-path="url(#cp37)">
<path transform="matrix(.65151259,0,0,.6517731,176.70433,458.81999)" stroke-width="1" stroke-linecap="butt" stroke-miterlimit="4" stroke-linejoin="miter" fill="none" stroke="#000000" d="M 0 .8 L 0 191.2 "/>
</g>
</g>
</g>
</g>
<clipPath id="cp38">
<path transform="matrix(.24,0,0,.24,0,0)" d="M 0 0 L 1587.5 0 L 1587.5 3278.125 L 0 3278.125 Z " fill-rule="evenodd"/>
</clipPath>
<g clip-path="url(#cp38)">
<path transform="matrix(.00000000000000003989364,.6517731,-.65151259,.000000000000000039909593,176.70433,591.7817)" d="M -16 -4 L 0 0 L -16 4 L -16 -4 Z "/>
<g id="Layer-1" data-name="P">
</g>
<text xml:space="preserve" transform="matrix(.65151259 0 0 .6517731 137.93933 514.8725)" font-size="14" font-family="OpenSans"><tspan y="14" x="0 7.6860005 15.540001 24.136002 32.718004 39.396005 43.036005 56.056005 63.910005 70.588008 77.26601 85.05001 92.72201 100.57601 104.21601 109.15801">Sends message to</tspan></text>
</g>
<clipPath id="cp39">
<path transform="matrix(.24,0,0,.24,0,0)" d="M 0 0 L 1587.5 0 L 1587.5 3278.125 L 0 3278.125 Z "/>
</clipPath>
<g clip-path="url(#cp39)">
<clipPath id="cp40">
<path transform="matrix(.24,0,0,.24,0,0)" d="M 0 0 L 1587.5 0 L 1587.5 3281.25 L 0 3281.25 Z "/>
</clipPath>
<g clip-path="url(#cp40)">
<clipPath id="cp41">
<path transform="matrix(.24,0,0,.24,0,0)" d="M 1158.9146 1668.6594 L 2543.379 1668.6594 L 2543.379 4522.8825 L 1158.9146 4522.8825 Z "/>
</clipPath>
<g clip-path="url(#cp41)">
<clipPath id="cp42">
<path transform="matrix(.24,0,0,.24,0,0)" d="M 1158.9146 2318.359 L 1536.2489 2318.359 L 1536.2489 2378.1048 L 1158.9146 2378.1048 M 1158.9146 1668.6594 L 2541.2344 1668.6594 L 2541.2344 4522.8825 L 1158.9146 4522.8825 " fill-rule="evenodd"/>
</clipPath>
<g clip-path="url(#cp42)">
<path transform="matrix(.65151259,0,0,.6517731,278.791,401.13005)" d="M .8 487.9728 L 4.8 487.9728 L 4.8 488.9728 L .8 488.9728 L .8 487.9728 Z M 9.8 487.9728 L 13.8 487.9728 L 13.8 488.9728 L 9.8 488.9728 L 9.8 487.9728 Z M 18.8 487.9728 L 22.8 487.9728 L 22.8 488.9728 L 18.8 488.9728 L 18.8 487.9728 Z M 27.8 487.9728 L 30 487.9728 L 30 488.4728 L 29.5 488.4728 L 29.5 486.67283 L 30.5 486.67283 L 30.5 488.9728 L 27.8 488.9728 L 27.8 487.9728 Z M 29.5 481.67283 L 29.5 477.67283 L 30.5 477.67283 L 30.5 481.67283 L 29.5 481.67283 Z M 29.5 472.67283 L 29.5 468.67283 L 30.5 468.67283 L 30.5 472.67283 L 29.5 472.67283 Z M 29.5 463.67283 L 29.5 459.67283 L 30.5 459.67283 L 30.5 463.67283 L 29.5 463.67283 Z M 29.5 454.67283 L 29.5 450.6728 L 30.5 450.6728 L 30.5 454.67283 L 29.5 454.67283 Z M 29.5 445.67283 L 29.5 441.6728 L 30.5 441.6728 L 30.5 445.67283 L 29.5 445.67283 Z M 29.5 436.67283 L 29.5 432.6728 L 30.5 432.6728 L 30.5 436.67283 L 29.5 436.67283 Z M 29.5 427.6728 L 29.5 423.6728 L 30.5 423.6728 L 30.5 427.6728 L 29.5 427.6728 Z M 29.5 418.6728 L 29.5 414.6728 L 30.5 414.6728 L 30.5 418.6728 L 29.5 418.6728 Z M 29.5 409.6728 L 29.5 405.6728 L 30.5 405.6728 L 30.5 409.6728 L 29.5 409.6728 Z M 29.5 400.6728 L 29.5 396.6728 L 30.5 396.6728 L 30.5 400.6728 L 29.5 400.6728 Z M 29.5 391.6728 L 29.5 387.6728 L 30.5 387.6728 L 30.5 391.6728 L 29.5 391.6728 Z M 29.5 382.6728 L 29.5 378.6728 L 30.5 378.6728 L 30.5 382.6728 L 29.5 382.6728 Z M 29.5 373.6728 L 29.5 369.6728 L 30.5 369.6728 L 30.5 373.6728 L 29.5 373.6728 Z M 29.5 364.6728 L 29.5 360.6728 L 30.5 360.6728 L 30.5 364.6728 L 29.5 364.6728 Z M 29.5 355.6728 L 29.5 351.6728 L 30.5 351.6728 L 30.5 355.6728 L 29.5 355.6728 Z M 29.5 346.6728 L 29.5 342.6728 L 30.5 342.6728 L 30.5 346.6728 L 29.5 346.6728 Z M 29.5 337.6728 L 29.5 333.6728 L 30.5 333.6728 L 30.5 337.6728 L 29.5 337.6728 Z M 29.5 328.6728 L 29.5 324.6728 L 30.5 324.6728 L 30.5 328.6728 L 29.5 328.6728 Z M 29.5 319.6728 L 29.5 315.6728 L 30.5 315.6728 L 30.5 319.6728 L 29.5 319.6728 Z M 29.5 310.6728 L 29.5 306.6728 L 30.5 306.6728 L 30.5 310.6728 L 29.5 310.6728 Z M 29.5 301.6728 L 29.5 297.6728 L 30.5 297.6728 L 30.5 301.6728 L 29.5 301.6728 Z M 29.5 292.6728 L 29.5 288.6728 L 30.5 288.6728 L 30.5 292.6728 L 29.5 292.6728 Z M 29.5 283.6728 L 29.5 279.6728 L 30.5 279.6728 L 30.5 283.6728 L 29.5 283.6728 Z M 29.5 274.6728 L 29.5 270.6728 L 30.5 270.6728 L 30.5 274.6728 L 29.5 274.6728 Z M 29.5 265.6728 L 29.5 261.6728 L 30.5 261.6728 L 30.5 265.6728 L 29.5 265.6728 Z M 29.5 256.6728 L 29.5 252.67279 L 30.5 252.67279 L 30.5 256.6728 L 29.5 256.6728 Z M 29.5 247.67279 L 29.5 243.67279 L 30.5 243.67279 L 30.5 247.67279 L 29.5 247.67279 Z M 29.5 238.6728 L 29.5 234.6728 L 30.5 234.6728 L 30.5 238.6728 L 29.5 238.6728 Z M 29.5 229.67282 L 29.5 225.67282 L 30.5 225.67282 L 30.5 229.67282 L 29.5 229.67282 Z M 29.5 220.67279 L 29.5 216.67279 L 30.5 216.67279 L 30.5 220.67279 L 29.5 220.67279 Z M 29.5 211.67279 L 29.5 207.67282 L 30.5 207.67282 L 30.5 211.67279 L 29.5 211.67279 Z M 29.5 202.67282 L 29.5 198.67282 L 30.5 198.67282 L 30.5 202.67282 L 29.5 202.67282 Z M 29.5 193.67279 L 29.5 189.67279 L 30.5 189.67279 L 30.5 193.67279 L 29.5 193.67279 Z M 29.5 184.67282 L 29.5 180.67282 L 30.5 180.67282 L 30.5 184.67282 L 29.5 184.67282 Z M 29.5 175.67279 L 29.5 171.67279 L 30.5 171.67279 L 30.5 175.67279 L 29.5 175.67279 Z M 29.5 166.67279 L 29.5 162.67279 L 30.5 162.67279 L 30.5 166.67279 L 29.5 166.67279 Z M 29.5 157.67282 L 29.5 153.67282 L 30.5 153.67282 L 30.5 157.67282 L 29.5 157.67282 Z M 29.5 148.67279 L 29.5 144.67279 L 30.5 144.67279 L 30.5 148.67279 L 29.5 148.67279 Z M 29.5 139.67279 L 29.5 135.67282 L 30.5 135.67282 L 30.5 139.67279 L 29.5 139.67279 Z M 29.5 130.67279 L 29.5 126.67279 L 30.5 126.67279 L 30.5 130.67279 L 29.5 130.67279 Z M 29.5 121.67279 L 29.5 117.67279 L 30.5 117.67279 L 30.5 121.67279 L 29.5 121.67279 Z M 29.5 112.67282 L 29.5 108.67282 L 30.5 108.67282 L 30.5 112.67282 L 29.5 112.67282 Z M 29.5 103.67279 L 29.5 99.67279 L 30.5 99.67279 L 30.5 103.67279 L 29.5 103.67279 Z M 29.5 94.67279 L 29.5 90.67279 L 30.5 90.67279 L 30.5 94.67279 L 29.5 94.67279 Z M 29.5 85.67279 L 29.5 81.67279 L 30.5 81.67279 L 30.5 85.67279 L 29.5 85.67279 Z M 29.5 76.67279 L 29.5 72.67279 L 30.5 72.67279 L 30.5 76.67279 L 29.5 76.67279 Z M 29.5 67.67279 L 29.5 63.67282 L 30.5 63.67282 L 30.5 67.67279 L 29.5 67.67279 Z M 29.5 58.67279 L 29.5 54.67279 L 30.5 54.67279 L 30.5 58.67279 L 29.5 58.67279 Z M 29.5 49.67279 L 29.5 45.67279 L 30.5 45.67279 L 30.5 49.67279 L 29.5 49.67279 Z M 29.5 40.67279 L 29.5 36.67279 L 30.5 36.67279 L 30.5 40.67279 L 29.5 40.67279 Z M 29.5 31.67279 L 29.5 27.67279 L 30.5 27.67279 L 30.5 31.67279 L 29.5 31.67279 Z M 29.5 22.67279 L 29.5 18.67279 L 30.5 18.67279 L 30.5 22.67279 L 29.5 22.67279 Z M 29.5 13.672791 L 29.5 9.672791 L 30.5 9.672791 L 30.5 13.672791 L 29.5 13.672791 Z M 29.5 4.6727907 L 29.5 .6727905 L 30.5 .6727905 L 30.5 4.6727907 L 29.5 4.6727907 Z M 25.672795 .5 L 21.672797 .5 L 21.672797 -.5 L 25.672795 -.5 L 25.672795 .5 Z M 16.6728 .5 L 12.8 .5 L 12.8 -.5 L 16.6728 -.5 L 16.6728 .5 Z "/>
</g>
</g>
</g>
</g>
<clipPath id="cp43">
<path transform="matrix(.24,0,0,.24,0,0)" d="M 0 0 L 1587.5 0 L 1587.5 3278.125 L 0 3278.125 Z " fill-rule="evenodd"/>
</clipPath>
<g clip-path="url(#cp43)">
<path transform="matrix(-.65151259,.000000000000000079819186,-.00000000000000007978728,-.6517731,278.791,401.13005)" d="M -16 -4 L 0 0 L -16 4 L -16 -4 Z "/>
<g id="Layer-1" data-name="P">
<g id="Layer-2" data-name="Span">
</g>
</g>
<text xml:space="preserve" transform="matrix(.65151259 0 0 .6517731 227.97303 557.70968)" font-size="14" font-family="OpenSans"><tspan y="14" x="0 7.6860005 15.540001 24.136002 32.718004 39.396005 43.036005 48.748006 56.602006 63.266008 71.12001 74.66201 83.24401 88.18601 91.82601 98.49001 106.946018 115.542018 123.83002 129.54203 142.56203 150.34603 155.28803 158.83003 167.28603 175.88202 179.52202 188.11801 194.796 198.33802 206.93402">Sends receipt con&#xfb01;rmation using</tspan></text>
</g>
</g>
</svg>
