<?xml version="1.0" encoding="UTF-8" standalone="no"?>
<svg
   xmlns:dc="http://purl.org/dc/elements/1.1/"
   xmlns:cc="http://creativecommons.org/ns#"
   xmlns:rdf="http://www.w3.org/1999/02/22-rdf-syntax-ns#"
   xmlns:svg="http://www.w3.org/2000/svg"
   xmlns="http://www.w3.org/2000/svg"
   viewBox="0 0 816 1049.2799"
   height="1049.2799"
   width="816"
   xml:space="preserve"
   id="svg2"
   version="1.1"><metadata
     id="metadata8"><rdf:RDF><cc:Work
         rdf:about=""><dc:format>image/svg+xml</dc:format><dc:type
           rdf:resource="http://purl.org/dc/dcmitype/StillImage" /></cc:Work></rdf:RDF></metadata><defs
     id="defs6"><clipPath
       id="clipPath18"
       clipPathUnits="userSpaceOnUse"><path
         style="clip-rule:evenodd"
         id="path16"
         d="M 0,0 H 2550 V 3278.125 H 0 Z" /></clipPath><clipPath
       id="clipPath30"
       clipPathUnits="userSpaceOnUse"><path
         id="path28"
         d="M 0,0 H 2550 V 3278.125 H 0 Z" /></clipPath><clipPath
       id="clipPath36"
       clipPathUnits="userSpaceOnUse"><path
         id="path34"
         d="M 0,0 H 2550 V 3281.25 H 0 Z" /></clipPath><clipPath
       id="clipPath42"
       clipPathUnits="userSpaceOnUse"><path
         id="path40"
         d="m 1095.3626,331.34375 h 685.5388 v 285.8783 h -685.5388 z" /></clipPath><clipPath
       id="clipPath48"
       clipPathUnits="userSpaceOnUse"><path
         id="path46"
         d="M 1095.3626,560.04639 V 388.51941 c 0,-7.582 1.4503,-14.8754 4.3509,-21.88022 2.9008,-7.00482 7.031,-13.18787 12.3909,-18.5491 5.3597,-5.36127 11.5411,-9.49265 18.544,-12.39414 7.0031,-2.90146 14.2946,-4.3522 21.8746,-4.3522 h 571.218 c 7.5798,0 14.8712,1.45074 21.8741,4.3522 7.0028,2.90149 13.1842,7.03287 18.5442,12.39414 5.3597,5.36123 9.49,11.54428 12.3907,18.5491 2.9008,7.00482 4.3512,14.29822 4.3514,21.88022 v 171.52698 c -2e-4,7.58197 -1.4506,14.8753 -4.3514,21.88012 -2.9007,7.00483 -7.031,13.18787 -12.3907,18.5492 -5.36,5.3612 -11.5414,9.49255 -18.5442,12.39404 -7.0029,2.90149 -14.2943,4.35223 -21.8741,4.3523 h -571.218 c -7.58,-7e-5 -14.8715,-1.45081 -21.8746,-4.3523 -7.0029,-2.90149 -13.1843,-7.03284 -18.544,-12.39404 -5.3599,-5.36133 -9.4901,-11.54437 -12.3909,-18.5492 -2.9006,-7.00482 -4.3509,-14.29815 -4.3509,-21.88012 z" /></clipPath><clipPath
       id="clipPath60"
       clipPathUnits="userSpaceOnUse"><path
         style="clip-rule:evenodd"
         id="path58"
         d="M 0,0 H 2550 V 3278.125 H 0 Z" /></clipPath><clipPath
       id="clipPath74"
       clipPathUnits="userSpaceOnUse"><path
         id="path72"
         d="M 0,0 H 2550 V 3278.125 H 0 Z" /></clipPath><clipPath
       id="clipPath80"
       clipPathUnits="userSpaceOnUse"><path
         id="path78"
         d="M 0,0 H 2550 V 3281.25 H 0 Z" /></clipPath><clipPath
       id="clipPath86"
       clipPathUnits="userSpaceOnUse"><path
         id="path84"
         d="M 1295.2152,45.46875 H 1581.017 V 331.34708 H 1295.2152 Z" /></clipPath><clipPath
       id="clipPath92"
       clipPathUnits="userSpaceOnUse"><path
         id="path90"
         d="m 1295.2152,188.40791 c -1e-4,-9.38551 0.9152,-18.68086 2.7456,-27.88604 1.8305,-9.20519 4.5412,-18.14332 8.132,-26.81441 3.5908,-8.67109 7.9927,-16.90852 13.2055,-24.7123 5.2131,-7.80377 11.1369,-15.023938 17.7717,-21.660497 6.6347,-6.636566 13.8529,-12.562004 21.6545,-17.776321 7.8016,-5.214317 16.0369,-9.617313 24.7057,-13.209 8.6688,-3.591678 17.6045,-6.303032 26.8071,-8.134056 9.2028,-1.831024 18.4957,-2.746536 27.8788,-2.746536 9.3829,0 18.6758,0.915512 27.8785,2.746532 9.2027,1.831025 18.1383,4.542378 26.8072,8.134057 8.6688,3.591686 16.904,7.994686 24.7057,13.209003 7.8016,5.214317 15.0198,11.139755 21.6547,17.776321 6.6347,6.636559 12.5585,13.856727 17.7715,21.660497 5.2129,7.80378 9.6148,16.04121 13.2055,24.7123 3.5907,8.67109 6.3012,17.60922 8.1318,26.81441 1.8304,9.20518 2.7459,18.50053 2.746,27.88604 -10e-5,9.38552 -0.9156,18.68087 -2.746,27.88602 -1.8306,9.20518 -4.5411,18.14331 -8.1318,26.81441 -3.5907,8.67108 -7.9926,16.90851 -13.2055,24.71225 -5.213,7.8038 -11.1368,15.02398 -17.7715,21.66055 -6.6349,6.63657 -13.8531,12.56198 -21.6547,17.77631 -7.8017,5.21429 -16.0369,9.61728 -24.7057,13.20898 -8.6689,3.59168 -17.6045,6.30304 -26.8072,8.13406 -9.2027,1.83103 -18.4956,2.74656 -27.8785,2.74659 -9.3831,-3e-5 -18.676,-0.91556 -27.8788,-2.74659 -9.2026,-1.83105 -18.1383,-4.54242 -26.8071,-8.13409 -8.6688,-3.59167 -16.9041,-7.99466 -24.7057,-13.20898 -7.8016,-5.2143 -15.0198,-11.13971 -21.6545,-17.77628 -6.6348,-6.63657 -12.5586,-13.85675 -17.7717,-21.66055 -5.2128,-7.80374 -9.6147,-16.04117 -13.2055,-24.71225 -3.5908,-8.6711 -6.3015,-17.60923 -8.132,-26.81441 -1.8304,-9.20515 -2.7457,-18.5005 -2.7456,-27.88602 z" /></clipPath><clipPath
       id="clipPath104"
       clipPathUnits="userSpaceOnUse"><path
         id="path102"
         d="M 0,0 H 2550 V 3278.125 H 0 Z" /></clipPath><clipPath
       id="clipPath110"
       clipPathUnits="userSpaceOnUse"><path
         id="path108"
         d="M 0,0 H 2550 V 3281.25 H 0 Z" /></clipPath><clipPath
       id="clipPath116"
       clipPathUnits="userSpaceOnUse"><path
         id="path114"
         d="m 1095.3626,2844.4375 h 685.5388 v 285.8784 h -685.5388 z" /></clipPath><clipPath
       id="clipPath122"
       clipPathUnits="userSpaceOnUse"><path
         id="path120"
         d="m 1095.3626,3073.1401 v -171.5268 c 0,-7.5823 1.4503,-14.8758 4.3509,-21.8806 2.9008,-7.0047 7.031,-13.1878 12.3909,-18.5489 5.3597,-5.3613 11.5411,-9.4926 18.544,-12.3942 7.0031,-2.9014 14.2946,-4.3521 21.8746,-4.3521 h 571.218 c 7.5798,0 14.8712,1.4507 21.8741,4.3521 7.0028,2.9016 13.1842,7.0329 18.5442,12.3942 5.3597,5.3611 9.49,11.5442 12.3907,18.5489 2.9008,7.0048 4.3512,14.2983 4.3514,21.8806 v 171.5268 c -2e-4,7.5818 -1.4506,14.875 -4.3514,21.8797 -2.9007,7.0046 -7.031,13.1877 -12.3907,18.5493 -5.36,5.3611 -11.5414,9.4924 -18.5442,12.3938 -7.0029,2.9018 -14.2943,4.3528 -21.8741,4.353 h -571.218 c -7.58,-2e-4 -14.8715,-1.4512 -21.8746,-4.3528 -7.0029,-2.9016 -13.1843,-7.0329 -18.544,-12.394 -5.3599,-5.3616 -9.4901,-11.5444 -12.3909,-18.5491 -2.9006,-7.0049 -4.3509,-14.2981 -4.3509,-21.8799 z" /></clipPath><clipPath
       id="clipPath134"
       clipPathUnits="userSpaceOnUse"><path
         style="clip-rule:evenodd"
         id="path132"
         d="M 0,0 H 2550 V 3278.125 H 0 Z" /></clipPath><clipPath
       id="clipPath148"
       clipPathUnits="userSpaceOnUse"><path
         id="path146"
         d="M 0,0 H 2550 V 3278.125 H 0 Z" /></clipPath><clipPath
       id="clipPath154"
       clipPathUnits="userSpaceOnUse"><path
         id="path152"
         d="M 0,0 H 2550 V 3281.25 H 0 Z" /></clipPath><clipPath
       id="clipPath160"
       clipPathUnits="userSpaceOnUse"><path
         id="path158"
         d="m 1295.2152,2558.5625 h 285.8018 v 285.8784 h -285.8018 z" /></clipPath><clipPath
       id="clipPath166"
       clipPathUnits="userSpaceOnUse"><path
         id="path164"
         d="m 1295.2152,2701.5017 c -1e-4,-9.3857 0.9152,-18.6811 2.7456,-27.8865 1.8305,-9.205 4.5412,-18.143 8.132,-26.8142 3.5908,-8.6711 7.9927,-16.9087 13.2055,-24.7121 5.2131,-7.804 11.1369,-15.0242 17.7717,-21.6607 6.6347,-6.6365 13.8529,-12.562 21.6545,-17.7763 7.8016,-5.2142 16.0369,-9.6172 24.7057,-13.209 8.6688,-3.5916 17.6045,-6.3028 26.8071,-8.1338 9.2028,-1.8311 18.4957,-2.7466 27.8788,-2.7466 9.3829,0 18.6758,0.9155 27.8785,2.7466 9.2027,1.831 18.1383,4.5422 26.8072,8.1338 8.6688,3.5918 16.904,7.9948 24.7057,13.209 7.8016,5.2143 15.0198,11.1398 21.6547,17.7763 6.6347,6.6365 12.5585,13.8567 17.7715,21.6604 5.2129,7.8035 9.6148,16.041 13.2055,24.7122 3.5907,8.6711 6.3012,17.6091 8.1318,26.8144 1.8304,9.2054 2.7459,18.5008 2.746,27.8865 -10e-5,9.3855 -0.9156,18.6807 -2.746,27.886 -1.8306,9.2048 -4.5411,18.1431 -8.1318,26.8142 -3.5907,8.6711 -7.9926,16.9085 -13.2055,24.7124 -5.213,7.8037 -11.1368,15.0239 -17.7715,21.6607 -6.6349,6.6364 -13.8531,12.562 -21.6547,17.7766 -7.8017,5.2141 -16.0369,9.6169 -24.7057,13.2085 -8.6689,3.5915 -17.6045,6.3029 -26.8072,8.134 -9.2027,1.831 -18.4956,2.7466 -27.8785,2.7468 -9.3831,-2e-4 -18.676,-0.9158 -27.8788,-2.7468 -9.2026,-1.8311 -18.1383,-4.5425 -26.8071,-8.134 -8.6688,-3.5916 -16.9041,-7.9947 -24.7057,-13.2088 -7.8016,-5.2143 -15.0198,-11.1399 -21.6545,-17.7763 -6.6348,-6.6368 -12.5586,-13.857 -17.7717,-21.6607 -5.2128,-7.8039 -9.6147,-16.0413 -13.2055,-24.7124 -3.5908,-8.6711 -6.3015,-17.6094 -8.132,-26.8142 -1.8304,-9.2053 -2.7457,-18.5005 -2.7456,-27.886 z" /></clipPath><clipPath
       id="clipPath178"
       clipPathUnits="userSpaceOnUse"><path
         style="clip-rule:evenodd"
         id="path176"
         d="M 110.59536,690 H 2412.9401 V 2415.6001 H 110.59536 Z" /></clipPath><clipPath
       id="clipPath190"
       clipPathUnits="userSpaceOnUse"><path
         style="clip-rule:evenodd"
         id="path188"
         d="M 0,0 H 2550 V 3278.125 H 0 Z" /></clipPath><clipPath
       id="clipPath204"
       clipPathUnits="userSpaceOnUse"><path
         id="path202"
         d="M 0,0 H 2550 V 3278.125 H 0 Z" /></clipPath><clipPath
       id="clipPath210"
       clipPathUnits="userSpaceOnUse"><path
         id="path208"
         d="M 0,0 H 2550 V 3281.25 H 0 Z" /></clipPath><clipPath
       id="clipPath216"
       clipPathUnits="userSpaceOnUse"><path
         id="path214"
         d="m 1095.3626,1383.75 h 685.5388 v 285.8783 h -685.5388 z" /></clipPath><clipPath
       id="clipPath222"
       clipPathUnits="userSpaceOnUse"><path
         id="path220"
         d="m 1095.3626,1612.4526 v -171.5269 c 0,-7.5822 1.4503,-14.8755 4.3509,-21.8803 2.9008,-7.0049 7.031,-13.1879 12.3909,-18.5491 5.3597,-5.3613 11.5411,-9.4926 18.544,-12.3941 7.0031,-2.9015 14.2946,-4.3522 21.8746,-4.3522 h 571.218 c 7.5798,0 14.8712,1.4507 21.8741,4.3522 7.0028,2.9015 13.1842,7.0328 18.5442,12.3941 5.3597,5.3612 9.49,11.5442 12.3907,18.549 2.9008,7.0048 4.3512,14.2982 4.3514,21.8804 v 171.5269 c -2e-4,7.582 -1.4506,14.8753 -4.3514,21.88 -2.9007,7.0049 -7.031,13.188 -12.3907,18.5492 -5.36,5.3612 -11.5414,9.4927 -18.5442,12.3942 -7.0029,2.9015 -14.2943,4.3522 -21.8741,4.3523 h -571.218 c -7.58,-10e-5 -14.8715,-1.4509 -21.8746,-4.3524 -7.0029,-2.9015 -13.1843,-7.0329 -18.544,-12.3941 -5.3599,-5.3612 -9.4901,-11.5443 -12.3909,-18.549 -2.9006,-7.0048 -4.3509,-14.2982 -4.3509,-21.8802 z" /></clipPath><clipPath
       id="clipPath234"
       clipPathUnits="userSpaceOnUse"><path
         style="clip-rule:evenodd"
         id="path232"
         d="M 0,0 H 2550 V 3278.125 H 0 Z" /></clipPath><clipPath
       id="clipPath248"
       clipPathUnits="userSpaceOnUse"><path
         id="path246"
         d="M 0,0 H 2550 V 3278.125 H 0 Z" /></clipPath><clipPath
       id="clipPath254"
       clipPathUnits="userSpaceOnUse"><path
         id="path252"
         d="M 0,0 H 2550 V 3281.25 H 0 Z" /></clipPath><clipPath
       id="clipPath260"
       clipPathUnits="userSpaceOnUse"><path
         id="path258"
         d="m 1095.3626,854.59375 h 685.5388 v 285.87835 h -685.5388 z" /></clipPath><clipPath
       id="clipPath266"
       clipPathUnits="userSpaceOnUse"><path
         id="path264"
         d="M 1095.3626,1083.2964 V 911.76941 c 0,-7.58203 1.4503,-14.87543 4.3509,-21.88025 2.9008,-7.00482 7.031,-13.18787 12.3909,-18.54913 5.3597,-5.36127 11.5411,-9.49268 18.544,-12.39417 7.0031,-2.90143 14.2946,-4.35211 21.8746,-4.35211 h 571.218 c 7.5798,0 14.8712,1.45074 21.8741,4.35217 7.0028,2.90149 13.1842,7.0329 18.5442,12.39417 5.3597,5.3612 9.49,11.54419 12.3907,18.54901 2.9008,7.00482 4.3512,14.29828 4.3514,21.88031 v 171.52699 c -2e-4,7.5819 -1.4506,14.8754 -4.3514,21.8801 -2.9007,7.0048 -7.031,13.1879 -12.3907,18.5492 -5.36,5.3611 -11.5414,9.4924 -18.5442,12.3939 -7.0029,2.9015 -14.2943,4.3523 -21.8741,4.3525 h -571.218 c -7.58,-2e-4 -14.8715,-1.451 -21.8746,-4.3525 -7.0029,-2.9015 -13.1843,-7.0328 -18.544,-12.394 -5.3599,-5.3612 -9.4901,-11.5443 -12.3909,-18.5491 -2.9006,-7.0047 -4.3509,-14.2982 -4.3509,-21.8801 z" /></clipPath><clipPath
       id="clipPath278"
       clipPathUnits="userSpaceOnUse"><path
         style="clip-rule:evenodd"
         id="path276"
         d="M 0,0 H 2550 V 3278.125 H 0 Z" /></clipPath><clipPath
       id="clipPath292"
       clipPathUnits="userSpaceOnUse"><path
         id="path290"
         d="M 0,0 H 2550 V 3278.125 H 0 Z" /></clipPath><clipPath
       id="clipPath298"
       clipPathUnits="userSpaceOnUse"><path
         id="path296"
         d="M 0,0 H 2550 V 3281.25 H 0 Z" /></clipPath><clipPath
       id="clipPath304"
       clipPathUnits="userSpaceOnUse"><path
         id="path302"
         d="M 1435.9269,615.03052 H 3225.4092 V 2914.8472 H 1435.9269 Z" /></clipPath><clipPath
       id="clipPath310"
       clipPathUnits="userSpaceOnUse"><path
         style="clip-rule:evenodd"
         id="path308"
         d="m 1435.9269,720.49341 h 132.3517 v 48.14081 h -132.3517 m 0,-153.6037 h 1787.798 V 2914.8472 h -1787.798" /></clipPath><clipPath
       id="clipPath322"
       clipPathUnits="userSpaceOnUse"><path
         style="clip-rule:evenodd"
         id="path320"
         d="M 0,0 H 2550 V 3278.125 H 0 Z" /></clipPath><clipPath
       id="clipPath340"
       clipPathUnits="userSpaceOnUse"><path
         id="path338"
         d="M 0,0 H 2550 V 3278.125 H 0 Z" /></clipPath><clipPath
       id="clipPath346"
       clipPathUnits="userSpaceOnUse"><path
         id="path344"
         d="M 0,0 H 2550 V 3281.25 H 0 Z" /></clipPath><clipPath
       id="clipPath352"
       clipPathUnits="userSpaceOnUse"><path
         id="path350"
         d="M 1435.9269,1138.2805 H 3225.4092 V 3438.0972 H 1435.9269 Z" /></clipPath><clipPath
       id="clipPath358"
       clipPathUnits="userSpaceOnUse"><path
         style="clip-rule:evenodd"
         id="path356"
         d="m 1435.9269,1222.7214 h 157.5094 v 48.1409 h -157.5094 m 0,-132.5818 h 1787.798 v 2299.8167 h -1787.798" /></clipPath><clipPath
       id="clipPath370"
       clipPathUnits="userSpaceOnUse"><path
         style="clip-rule:evenodd"
         id="path368"
         d="M 0,0 H 2550 V 3278.125 H 0 Z" /></clipPath><clipPath
       id="clipPath388"
       clipPathUnits="userSpaceOnUse"><path
         id="path386"
         d="M 0,0 H 2550 V 3278.125 H 0 Z" /></clipPath><clipPath
       id="clipPath394"
       clipPathUnits="userSpaceOnUse"><path
         id="path392"
         d="M 0,0 H 2550 V 3281.25 H 0 Z" /></clipPath><clipPath
       id="clipPath400"
       clipPathUnits="userSpaceOnUse"><path
         id="path398"
         d="m 1095.3626,1913.7811 h 685.5388 v 285.8783 h -685.5388 z" /></clipPath><clipPath
       id="clipPath406"
       clipPathUnits="userSpaceOnUse"><path
         id="path404"
         d="m 1095.3626,2142.4836 v -171.5268 c 0,-7.5822 1.4503,-14.8756 4.3509,-21.8804 2.9008,-7.0049 7.031,-13.1879 12.3909,-18.5489 5.3597,-5.3614 11.5411,-9.4928 18.544,-12.3943 7.0031,-2.9014 14.2946,-4.3521 21.8746,-4.3521 h 571.218 c 7.5798,0 14.8712,1.4507 21.8741,4.3521 7.0028,2.9015 13.1842,7.0329 18.5442,12.3943 5.3597,5.361 9.49,11.544 12.3907,18.5489 2.9008,7.0048 4.3512,14.2982 4.3514,21.8804 v 171.5268 c -2e-4,7.5818 -1.4506,14.8753 -4.3514,21.8799 -2.9007,7.0049 -7.031,13.188 -12.3907,18.5493 -5.36,5.3611 -11.5414,9.4925 -18.5442,12.3941 -7.0029,2.9016 -14.2943,4.3525 -21.8741,4.3525 h -571.218 c -7.58,0 -14.8715,-1.4509 -21.8746,-4.3525 -7.0029,-2.9016 -13.1843,-7.033 -18.544,-12.3941 -5.3599,-5.3613 -9.4901,-11.5444 -12.3909,-18.5493 -2.9006,-7.0046 -4.3509,-14.2981 -4.3509,-21.8799 z" /></clipPath><clipPath
       id="clipPath418"
       clipPathUnits="userSpaceOnUse"><path
         style="clip-rule:evenodd"
         id="path416"
         d="M 0,0 H 2550 V 3278.125 H 0 Z" /></clipPath><clipPath
       id="clipPath432"
       clipPathUnits="userSpaceOnUse"><path
         id="path430"
         d="M 0,0 H 2550 V 3278.125 H 0 Z" /></clipPath><clipPath
       id="clipPath438"
       clipPathUnits="userSpaceOnUse"><path
         id="path436"
         d="M 0,0 H 2550 V 3281.25 H 0 Z" /></clipPath><clipPath
       id="clipPath444"
       clipPathUnits="userSpaceOnUse"><path
         id="path442"
         d="M 1435.9269,1667.4369 H 3225.4092 V 3967.2533 H 1435.9269 Z" /></clipPath><clipPath
       id="clipPath450"
       clipPathUnits="userSpaceOnUse"><path
         style="clip-rule:evenodd"
         id="path448"
         d="m 1435.9269,1752.3146 h 138.9145 v 48.1407 h -138.9145 m 0,-133.0184 h 1787.798 v 2299.8165 h -1787.798" /></clipPath><clipPath
       id="clipPath462"
       clipPathUnits="userSpaceOnUse"><path
         style="clip-rule:evenodd"
         id="path460"
         d="M 0,0 H 2550 V 3278.125 H 0 Z" /></clipPath><clipPath
       id="clipPath480"
       clipPathUnits="userSpaceOnUse"><path
         id="path478"
         d="M 0,0 H 2550 V 3278.125 H 0 Z" /></clipPath><clipPath
       id="clipPath486"
       clipPathUnits="userSpaceOnUse"><path
         id="path484"
         d="M 0,0 H 2550 V 3281.25 H 0 Z" /></clipPath><clipPath
       id="clipPath492"
       clipPathUnits="userSpaceOnUse"><path
         id="path490"
         d="M 1435.9269,2197.468 H 3225.4092 V 4497.2847 H 1435.9269 Z" /></clipPath><clipPath
       id="clipPath498"
       clipPathUnits="userSpaceOnUse"><path
         style="clip-rule:evenodd"
         id="path496"
         d="m 1435.9269,2339.7175 h 132.3517 v 48.1409 h -132.3517 m 0,-190.3904 h 1787.798 v 2299.8167 h -1787.798" /></clipPath><clipPath
       id="clipPath510"
       clipPathUnits="userSpaceOnUse"><path
         style="clip-rule:evenodd"
         id="path508"
         d="M 0,0 H 2550 V 3278.125 H 0 Z" /></clipPath><clipPath
       id="clipPath528"
       clipPathUnits="userSpaceOnUse"><path
         id="path526"
         d="M 0,0 H 2550 V 3278.125 H 0 Z" /></clipPath><clipPath
       id="clipPath534"
       clipPathUnits="userSpaceOnUse"><path
         id="path532"
         d="M 0,0 H 2550 V 3281.25 H 0 Z" /></clipPath><clipPath
       id="clipPath540"
       clipPathUnits="userSpaceOnUse"><path
         id="path538"
         d="M 1778.7098,1567.718 H 3568.1923 V 3867.5347 H 1778.7098 Z" /></clipPath><clipPath
       id="clipPath546"
       clipPathUnits="userSpaceOnUse"><path
         style="clip-rule:evenodd"
         id="path544"
         d="m 1778.7098,1800.1781 h 165.1662 v 48.1407 h -165.1662 m 0,-280.6008 h 1787.798 v 2299.8167 h -1787.798" /></clipPath><clipPath
       id="clipPath558"
       clipPathUnits="userSpaceOnUse"><path
         style="clip-rule:evenodd"
         id="path556"
         d="M 0,0 H 2550 V 3278.125 H 0 Z" /></clipPath><clipPath
       id="clipPath576"
       clipPathUnits="userSpaceOnUse"><path
         id="path574"
         d="M 0,0 H 2550 V 3278.125 H 0 Z" /></clipPath><clipPath
       id="clipPath582"
       clipPathUnits="userSpaceOnUse"><path
         id="path580"
         d="M 0,0 H 2550 V 3281.25 H 0 Z" /></clipPath><clipPath
       id="clipPath588"
       clipPathUnits="userSpaceOnUse"><path
         id="path586"
         d="M 1778.7098,995.34302 H 3568.1923 V 3295.1597 H 1778.7098 Z" /></clipPath><clipPath
       id="clipPath594"
       clipPathUnits="userSpaceOnUse"><path
         style="clip-rule:evenodd"
         id="path592"
         d="m 1778.7098,1248.9817 h 165.1662 v 48.1409 h -165.1662 m 0,-301.77958 h 1787.798 V 3295.1597 h -1787.798" /></clipPath><clipPath
       id="clipPath606"
       clipPathUnits="userSpaceOnUse"><path
         style="clip-rule:evenodd"
         id="path604"
         d="M 0,0 H 2550 V 3278.125 H 0 Z" /></clipPath><clipPath
       id="clipPath654"
       clipPathUnits="userSpaceOnUse"><path
         id="path652"
         d="M 0,0 H 2550 V 3278.125 H 0 Z" /></clipPath><clipPath
       id="clipPath660"
       clipPathUnits="userSpaceOnUse"><path
         id="path658"
         d="M 0,0 H 2550 V 3281.25 H 0 Z" /></clipPath><clipPath
       id="clipPath666"
       clipPathUnits="userSpaceOnUse"><path
         id="path664"
         d="M 1027.5364,2106.9368 H 2817.0188 V 4406.7535 H 1027.5364 Z" /></clipPath><clipPath
       id="clipPath672"
       clipPathUnits="userSpaceOnUse"><path
         style="clip-rule:evenodd"
         id="path670"
         d="m 1027.5364,2535.1157 h 238.4518 v 48.1406 h -238.4518 m 0,-476.3195 H 2815.3345 V 4406.7534 H 1027.5364" /></clipPath><clipPath
       id="clipPath684"
       clipPathUnits="userSpaceOnUse"><path
         style="clip-rule:evenodd"
         id="path682"
         d="M 0,0 H 2550 V 3278.125 H 0 Z" /></clipPath><clipPath
       id="clipPath702"
       clipPathUnits="userSpaceOnUse"><path
         id="path700"
         d="M 0,0 H 2550 V 3278.125 H 0 Z" /></clipPath><clipPath
       id="clipPath708"
       clipPathUnits="userSpaceOnUse"><path
         id="path706"
         d="M 0,0 H 2550 V 3281.25 H 0 Z" /></clipPath><clipPath
       id="clipPath714"
       clipPathUnits="userSpaceOnUse"><path
         id="path712"
         d="M 1027.5364,1562.4368 H 2817.0188 V 3862.2535 H 1027.5364 Z" /></clipPath><clipPath
       id="clipPath720"
       clipPathUnits="userSpaceOnUse"><path
         style="clip-rule:evenodd"
         id="path718"
         d="m 1027.5364,1797.5442 h 214.3878 v 48.1409 h -214.3878 m 0,-283.2483 H 2815.3345 V 3862.2534 H 1027.5364" /></clipPath><clipPath
       id="clipPath732"
       clipPathUnits="userSpaceOnUse"><path
         style="clip-rule:evenodd"
         id="path730"
         d="M 0,0 H 2550 V 3278.125 H 0 Z" /></clipPath></defs><g
     transform="matrix(0.31999998,0,0,0.31999998,0,-2.0434668e-5)"
     id="g10"><g
       id="g12"><g
         clip-path="url(#clipPath18)"
         id="g14"><g
           transform="scale(3.125)"
           id="g20"><path
             id="path22"
             style="fill:#ffffff;fill-opacity:1;fill-rule:nonzero;stroke:none"
             d="M 0,0 H 816 V 1050 H 0 Z" /></g></g></g><g
       id="g24"><g
         clip-path="url(#clipPath30)"
         id="g26"><g
           clip-path="url(#clipPath36)"
           id="g32"><g
             clip-path="url(#clipPath42)"
             id="g38"><g
               clip-path="url(#clipPath48)"
               id="g44"><g
                 transform="matrix(2.1876314,0,0,2.1882176,1095.3626,331.34375)"
                 id="g50"><path
                   id="path52"
                   style="fill:none;stroke:#1a1a1a;stroke-width:1;stroke-linecap:butt;stroke-linejoin:miter;stroke-miterlimit:10;stroke-dasharray:none;stroke-opacity:1"
                   d="M 26.128878,0 H 287.24149 c 1.71563,0 3.41479,0.16735297 5.09744,0.50205898 1.68268,0.33470601 3.31653,0.83033372 4.90158,1.48688312 1.58505,0.6565495 3.09085,1.4614051 4.51733,2.4145675 1.42652,0.9531622 2.74634,2.0363159 3.95951,3.2494612 1.21313,1.2131448 2.29629,2.5329722 3.24945,3.9594792 0.95315,1.426508 1.75799,2.932287 2.41458,4.517337 0.65655,1.585051 1.15219,3.218916 1.48691,4.901597 0.33468,1.682682 0.50204,3.381847 0.50207,5.097494 V 104.5155 c -3e-5,1.71564 -0.16739,3.4148 -0.50207,5.09748 -0.33472,1.68268 -0.83036,3.31655 -1.48691,4.90159 -0.65659,1.58505 -1.46146,3.09083 -2.41461,4.51734 -0.95316,1.42651 -2.03629,2.74634 -3.24942,3.95948 -1.21317,1.21315 -2.53299,2.29629 -3.95951,3.24946 -1.42648,0.95316 -2.93225,1.75802 -4.5173,2.41458 -1.58505,0.65654 -3.2189,1.15217 -4.90158,1.48689 -1.68268,0.3347 -3.38184,0.50204 -5.09747,0.50206 H 26.128878 c -1.715647,-2e-5 -3.414812,-0.16736 -5.097493,-0.50206 -1.682682,-0.33472 -3.316547,-0.83035 -4.901598,-1.48689 -1.58505,-0.65655 -3.090829,-1.46141 -4.517337,-2.41458 -1.426507,-0.95315 -2.7463344,-2.03631 -3.9594792,-3.24945 -1.2131453,-1.21315 -2.296299,-2.53298 -3.2494617,-3.95949 -0.9531622,-1.4265 -1.7580175,-2.93228 -2.414567,-4.51733 -0.6565494,-1.58505 -1.15217711,-3.21892 -1.48688312,-4.9016 C 0.16735297,107.9303 0,106.23114 0,104.5155 V 26.128878 C 0,24.413231 0.16735297,22.714066 0.50205898,21.031385 0.83676499,19.348703 1.3323927,17.714838 1.9889421,16.129787 2.6454916,14.544737 3.4503472,13.038958 4.4035096,11.61245 5.3566718,10.185943 6.4398255,8.8661156 7.6529708,7.6529708 8.8661156,6.4398255 10.185943,5.3566718 11.61245,4.4035091 13.038958,3.4503469 14.544737,2.6454916 16.129787,1.9889421 17.714838,1.3323927 19.348703,0.83676499 21.031384,0.50205898 22.714066,0.16735297 24.413231,0 26.128878,0 Z" /></g></g></g></g></g></g><g
       id="g54"><g
         clip-path="url(#clipPath60)"
         id="g56"><g
           transform="matrix(2.1876314,0,0,2.1882176,1109.6527,345.63766)"
           id="g62"><text
             id="text66"
             style="font-variant:normal;font-weight:normal;font-size:24px;font-family:OpenSans;-inkscape-font-specification:OpenSans-Regular;writing-mode:lr-tb;fill:#1a1a1a;fill-opacity:1;fill-rule:nonzero;stroke:none"
             transform="translate(7.9810872,66.28997)"><tspan
               id="tspan64"
               y="0"
               x="0 15.550781 30.046875 44.753906 51.140625 57.375 74.847656 86.296875 99.761719 109.55859 115.79297 130.28906 138.42188 144.65625 159.36328 165.43359 179.92969 191.35547 203.95312 215.37891 230.10938 243.45703 249.52734 264.25781 270.49219">Bob: User of blockchain X</tspan></text>
</g></g></g><g
       id="g68"><g
         clip-path="url(#clipPath74)"
         id="g70"><g
           clip-path="url(#clipPath80)"
           id="g76"><g
             clip-path="url(#clipPath86)"
             id="g82"><g
               clip-path="url(#clipPath92)"
               id="g88"><g
                 transform="matrix(2.1876314,0,0,2.1882176,1295.2152,45.46875)"
                 id="g94"><path
                   id="path96"
                   style="fill:none;stroke:#1a1a1a;stroke-width:1;stroke-linecap:butt;stroke-linejoin:miter;stroke-miterlimit:10;stroke-dasharray:none;stroke-opacity:1"
                   d="m 130.64438,65.322189 c 10e-6,2.139382 -0.10484,4.273613 -0.31455,6.402695 -0.2097,2.129082 -0.52324,4.24276 -0.94061,6.341026 -0.41736,2.098275 -0.93655,4.171044 -1.55759,6.218308 -0.62104,2.047264 -1.34091,4.059158 -2.15962,6.035683 -0.8187,1.976539 -1.7323,3.908187 -2.74079,5.79496 -1.00851,1.886756 -2.10704,3.719551 -3.29562,5.498379 -1.18857,1.77884 -2.46147,3.49514 -3.81867,5.14891 -1.35722,1.65377 -2.79221,3.23703 -4.30497,4.7498 -1.51277,1.51277 -3.09604,2.94776 -4.74981,4.30497 -1.65377,1.35721 -3.37006,2.63009 -5.14889,3.81867 -1.778833,1.18858 -3.611635,2.28712 -5.498407,3.29562 -1.886765,1.0085 -3.818413,1.92209 -5.794952,2.74079 -1.976525,0.81872 -3.988411,1.53859 -6.035676,2.15962 -2.047264,0.62105 -4.12004,1.14024 -6.218315,1.5576 -2.098266,0.41737 -4.211937,0.73091 -6.341018,0.94061 -2.129082,0.20971 -4.263321,0.31455 -6.402703,0.31455 -2.139377,0 -4.273609,-0.10484 -6.402694,-0.31455 -2.129082,-0.2097 -4.24276,-0.52324 -6.341038,-0.94061 -2.098271,-0.41736 -4.17104,-0.93655 -6.2183,-1.55759 -2.04726,-0.62104 -4.059154,-1.34091 -6.03569,-2.15962 -1.976528,-0.8187 -3.908177,-1.7323 -5.794941,-2.74079 -1.886769,-1.00851 -3.71957,-2.10704 -5.498404,-3.29562 -1.778829,-1.18857 -3.495127,-2.46147 -5.148893,-3.81867 -1.653763,-1.35722 -3.23703,-2.79221 -4.749804,-4.30497 -1.512771,-1.51277 -2.947761,-3.09604 -4.304971,-4.74981 -1.35721,-1.65377 -2.630104,-3.37006 -3.818681,-5.14889 C 9.8201962,99.834427 8.7216587,98.001625 7.7131605,96.114853 6.7046628,94.228088 5.7910609,92.29644 4.9723549,90.319901 4.1536489,88.343376 3.4337811,86.33149 2.8127513,84.284225 2.1917214,82.236961 1.67252,80.164185 1.2551473,78.06591 0.83777463,75.967644 0.52424026,73.853973 0.31454417,71.724892 0.10484806,69.59581 0,67.461571 0,65.322189 0,63.182812 0.10484806,61.04858 0.31454417,58.919495 c 0.20969609,-2.129082 0.52323046,-4.24276 0.94060313,-6.341038 0.4173727,-2.098271 0.9365741,-4.17104 1.557604,-6.2183 0.6210298,-2.04726 1.3408976,-4.059154 2.1596036,-6.03569 0.818706,-1.976528 1.7323079,-3.908177 2.7408056,-5.794941 1.0084982,-1.886769 2.1070357,-3.71957 3.2956125,-5.498404 1.188577,-1.778829 2.461471,-3.495127 3.818681,-5.148893 1.35721,-1.653763 2.7922,-3.23703 4.304971,-4.749804 1.512774,-1.512771 3.096041,-2.947761 4.749804,-4.304971 1.653765,-1.35721 3.370062,-2.630104 5.148891,-3.818681 C 30.809954,9.8201962 32.642754,8.7216587 34.529522,7.7131605 36.41629,6.7046628 38.347939,5.7910609 40.324467,4.9723549 42.301003,4.1536489 44.312901,3.4337811 46.360161,2.8127513 48.407421,2.1917214 50.480186,1.67252 52.578457,1.2551473 54.676735,0.83777463 56.790413,0.52424026 58.919495,0.31454417 61.04858,0.10484806 63.182812,0 65.322189,0 c 2.139382,0 4.273613,0.10484806 6.402695,0.31454417 2.129082,0.20969609 4.24276,0.52323046 6.341026,0.94060313 2.098275,0.4173727 4.171044,0.9365741 6.218308,1.557604 2.047264,0.6210298 4.059158,1.3408976 6.035683,2.1596036 1.976539,0.818706 3.908187,1.7323079 5.79496,2.7408056 1.886756,1.0084982 3.719551,2.1070357 5.498379,3.2956125 1.77884,1.188577 3.49514,2.461471 5.14891,3.818681 1.65377,1.35721 3.23703,2.7922 4.7498,4.304971 1.51277,1.512774 2.94776,3.096041 4.30497,4.749804 1.35721,1.653765 2.63009,3.370062 3.81867,5.148891 1.18858,1.778834 2.28712,3.611634 3.29562,5.498402 1.0085,1.886768 1.92209,3.818417 2.74079,5.794945 0.81872,1.976536 1.53859,3.988434 2.15962,6.035694 0.62105,2.04726 1.14024,4.120025 1.5576,6.218296 0.41737,2.098278 0.73091,4.211956 0.94061,6.341038 0.20971,2.129085 0.31456,4.263317 0.31455,6.402694 z" /></g></g></g></g></g></g><g
       id="g98"><g
         clip-path="url(#clipPath104)"
         id="g100"><g
           clip-path="url(#clipPath110)"
           id="g106"><g
             clip-path="url(#clipPath116)"
             id="g112"><g
               clip-path="url(#clipPath122)"
               id="g118"><g
                 transform="matrix(2.1876314,0,0,2.1882176,1095.3626,2844.4375)"
                 id="g124"><path
                   id="path126"
                   style="fill:none;stroke:#1a1a1a;stroke-width:1;stroke-linecap:butt;stroke-linejoin:miter;stroke-miterlimit:10;stroke-dasharray:none;stroke-opacity:1"
                   d="M 26.128878,0 H 287.24149 c 1.71563,0 3.41479,0.16735297 5.09744,0.50205898 1.68268,0.33470601 3.31653,0.83033372 4.90158,1.48688312 1.58505,0.6565495 3.09085,1.4614051 4.51733,2.4145675 1.42652,0.9531622 2.74634,2.0363159 3.95951,3.2494612 1.21313,1.2131448 2.29629,2.5329722 3.24945,3.9594792 0.95315,1.426508 1.75799,2.932287 2.41458,4.517337 0.65655,1.585051 1.15219,3.218916 1.48691,4.901597 0.33468,1.682682 0.50204,3.381847 0.50207,5.097494 V 104.5155 c -3e-5,1.71564 -0.16739,3.4148 -0.50207,5.09748 -0.33472,1.68268 -0.83036,3.31655 -1.48691,4.90159 -0.65659,1.58505 -1.46146,3.09083 -2.41461,4.51734 -0.95316,1.42651 -2.03629,2.74634 -3.24942,3.95948 -1.21317,1.21315 -2.53299,2.29629 -3.95951,3.24946 -1.42648,0.95316 -2.93225,1.75802 -4.5173,2.41458 -1.58505,0.65654 -3.2189,1.15217 -4.90158,1.48689 -1.68268,0.3347 -3.38184,0.50204 -5.09747,0.50206 H 26.128878 c -1.715647,-2e-5 -3.414812,-0.16736 -5.097493,-0.50206 -1.682682,-0.33472 -3.316547,-0.83035 -4.901598,-1.48689 -1.58505,-0.65655 -3.090829,-1.46141 -4.517337,-2.41458 -1.426507,-0.95315 -2.7463344,-2.03631 -3.9594792,-3.24945 -1.2131453,-1.21315 -2.296299,-2.53298 -3.2494617,-3.95949 -0.9531622,-1.4265 -1.7580175,-2.93228 -2.414567,-4.51733 -0.6565494,-1.58505 -1.15217711,-3.21892 -1.48688312,-4.9016 C 0.16735297,107.9303 0,106.23114 0,104.5155 V 26.128878 C 0,24.413231 0.16735297,22.714066 0.50205898,21.031385 0.83676499,19.348703 1.3323927,17.714838 1.9889421,16.129787 2.6454916,14.544737 3.4503472,13.038958 4.4035096,11.61245 5.3566718,10.185943 6.4398255,8.8661156 7.6529708,7.6529708 8.8661156,6.4398255 10.185943,5.3566718 11.61245,4.4035091 13.038958,3.4503469 14.544737,2.6454916 16.129787,1.9889421 17.714838,1.3323927 19.348703,0.83676499 21.031384,0.50205898 22.714066,0.16735297 24.413231,0 26.128878,0 Z" /></g></g></g></g></g></g><g
       id="g128"><g
         clip-path="url(#clipPath134)"
         id="g130"><g
           transform="matrix(2.1876314,0,0,2.1882176,1109.6527,2858.7312)"
           id="g136"><text
             id="text140"
             style="font-variant:normal;font-weight:normal;font-size:24px;font-family:OpenSans;-inkscape-font-specification:OpenSans-Regular;writing-mode:lr-tb;fill:#1a1a1a;fill-opacity:1;fill-rule:nonzero;stroke:none"
             transform="translate(4.4537435,66.28997)"><tspan
               id="tspan138"
               y="0"
               x="0 15.1875 21.257812 27.328125 38.753906 52.21875 58.605469 64.839844 82.3125 93.761719 107.22656 117.02344 123.25781 137.75391 145.88672 152.12109 166.82812 172.89844 187.39453 198.82031 211.41797 222.84375 237.57422 250.92188 256.99219 271.72266 277.95703">Alice: User of blockchain Y</tspan></text>
</g></g></g><g
       id="g142"><g
         clip-path="url(#clipPath148)"
         id="g144"><g
           clip-path="url(#clipPath154)"
           id="g150"><g
             clip-path="url(#clipPath160)"
             id="g156"><g
               clip-path="url(#clipPath166)"
               id="g162"><g
                 transform="matrix(2.1876314,0,0,2.1882176,1295.2152,2558.5625)"
                 id="g168"><path
                   id="path170"
                   style="fill:none;stroke:#1a1a1a;stroke-width:1;stroke-linecap:butt;stroke-linejoin:miter;stroke-miterlimit:10;stroke-dasharray:none;stroke-opacity:1"
                   d="m 130.64438,65.322189 c 10e-6,2.139382 -0.10484,4.273613 -0.31455,6.402695 -0.2097,2.129082 -0.52324,4.24276 -0.94061,6.341026 -0.41736,2.098275 -0.93655,4.171044 -1.55759,6.218308 -0.62104,2.047264 -1.34091,4.059158 -2.15962,6.035683 -0.8187,1.976539 -1.7323,3.908187 -2.74079,5.79496 -1.00851,1.886756 -2.10704,3.719551 -3.29562,5.498379 -1.18857,1.77884 -2.46147,3.49514 -3.81867,5.14891 -1.35722,1.65377 -2.79221,3.23703 -4.30497,4.7498 -1.51277,1.51277 -3.09604,2.94776 -4.74981,4.30497 -1.65377,1.35721 -3.37006,2.63009 -5.14889,3.81867 -1.778833,1.18858 -3.611635,2.28712 -5.498407,3.29562 -1.886765,1.0085 -3.818413,1.92209 -5.794952,2.74079 -1.976525,0.81872 -3.988411,1.53859 -6.035676,2.15962 -2.047264,0.62105 -4.12004,1.14024 -6.218315,1.5576 -2.098266,0.41737 -4.211937,0.73091 -6.341018,0.94061 -2.129082,0.20971 -4.263321,0.31455 -6.402703,0.31455 -2.139377,0 -4.273609,-0.10484 -6.402694,-0.31455 -2.129082,-0.2097 -4.24276,-0.52324 -6.341038,-0.94061 -2.098271,-0.41736 -4.17104,-0.93655 -6.2183,-1.55759 -2.04726,-0.62104 -4.059154,-1.34091 -6.03569,-2.15962 -1.976528,-0.8187 -3.908177,-1.7323 -5.794941,-2.74079 -1.886769,-1.00851 -3.71957,-2.10704 -5.498404,-3.29562 -1.778829,-1.18857 -3.495127,-2.46147 -5.148893,-3.81867 -1.653763,-1.35722 -3.23703,-2.79221 -4.749804,-4.30497 -1.512771,-1.51277 -2.947761,-3.09604 -4.304971,-4.74981 -1.35721,-1.65377 -2.630104,-3.37006 -3.818681,-5.14889 C 9.8201962,99.834427 8.7216587,98.001625 7.7131605,96.114853 6.7046628,94.228088 5.7910609,92.29644 4.9723549,90.319901 4.1536489,88.343376 3.4337811,86.33149 2.8127513,84.284225 2.1917214,82.236961 1.67252,80.164185 1.2551473,78.06591 0.83777463,75.967644 0.52424026,73.853973 0.31454417,71.724892 0.10484806,69.59581 0,67.461571 0,65.322189 0,63.182812 0.10484806,61.04858 0.31454417,58.919495 c 0.20969609,-2.129082 0.52323046,-4.24276 0.94060313,-6.341038 0.4173727,-2.098271 0.9365741,-4.17104 1.557604,-6.2183 0.6210298,-2.04726 1.3408976,-4.059154 2.1596036,-6.03569 0.818706,-1.976528 1.7323079,-3.908177 2.7408056,-5.794941 1.0084982,-1.886769 2.1070357,-3.71957 3.2956125,-5.498404 1.188577,-1.778829 2.461471,-3.495127 3.818681,-5.148893 1.35721,-1.653763 2.7922,-3.23703 4.304971,-4.749804 1.512774,-1.512771 3.096041,-2.947761 4.749804,-4.304971 1.653765,-1.35721 3.370062,-2.630104 5.148891,-3.818681 C 30.809954,9.8201962 32.642754,8.7216587 34.529522,7.7131605 36.41629,6.7046628 38.347939,5.7910609 40.324467,4.9723549 42.301003,4.1536489 44.312901,3.4337811 46.360161,2.8127513 48.407421,2.1917214 50.480186,1.67252 52.578457,1.2551473 54.676735,0.83777463 56.790413,0.52424026 58.919495,0.31454417 61.04858,0.10484806 63.182812,0 65.322189,0 c 2.139382,0 4.273613,0.10484806 6.402695,0.31454417 2.129082,0.20969609 4.24276,0.52323046 6.341026,0.94060313 2.098275,0.4173727 4.171044,0.9365741 6.218308,1.557604 2.047264,0.6210298 4.059158,1.3408976 6.035683,2.1596036 1.976539,0.818706 3.908187,1.7323079 5.79496,2.7408056 1.886756,1.0084982 3.719551,2.1070357 5.498379,3.2956125 1.77884,1.188577 3.49514,2.461471 5.14891,3.818681 1.65377,1.35721 3.23703,2.7922 4.7498,4.304971 1.51277,1.512774 2.94776,3.096041 4.30497,4.749804 1.35721,1.653765 2.63009,3.370062 3.81867,5.148891 1.18858,1.778834 2.28712,3.611634 3.29562,5.498402 1.0085,1.886768 1.92209,3.818417 2.74079,5.794945 0.81872,1.976536 1.53859,3.988434 2.15962,6.035694 0.62105,2.04726 1.14024,4.120025 1.5576,6.218296 0.41737,2.098278 0.73091,4.211956 0.94061,6.341038 0.20971,2.129085 0.31456,4.263317 0.31455,6.402694 z" /></g></g></g></g></g></g><g
       id="g172"><g
         clip-path="url(#clipPath178)"
         id="g174"><g
           transform="matrix(2.1876314,0,0,2.1882176,110.59536,690)"
           id="g180"><path
             id="path182"
             style="fill:#1a1a1a;fill-opacity:1;fill-rule:nonzero;stroke:none"
             d="m 16,-2 h 8 v 4 h -8 z m 16,0 h 8 v 4 h -8 z m 16,0 h 8 v 4 h -8 z m 16,0 h 8 v 4 h -8 z m 16,0 h 8 v 4 h -8 z m 16,0 h 8 v 4 h -8 z m 16,0 h 8 v 4 h -8 z m 16,0 h 8 v 4 h -8 z m 16,0 h 8 v 4 h -8 z m 16,0 h 8 v 4 h -8 z m 16,0 h 8 v 4 h -8 z m 16,0 h 8 v 4 h -8 z m 16,0 h 8 v 4 h -8 z m 16,0 h 8 v 4 h -8 z m 16,0 h 8 v 4 h -8 z m 16,0 h 8 v 4 h -8 z m 16,0 h 8 v 4 h -8 z m 16,0 h 8 v 4 h -8 z m 16,0 h 8 v 4 h -8 z m 16,0 h 8 v 4 h -8 z m 16,0 h 8 v 4 h -8 z m 16,0 h 8 v 4 h -8 z m 16,0 h 8 v 4 h -8 z m 16,0 h 8 v 4 h -8 z m 16,0 h 8 v 4 h -8 z m 16,0 h 8 v 4 h -8 z m 16,0 h 8 v 4 h -8 z m 16,0 h 8 v 4 h -8 z m 16,0 h 8 v 4 h -8 z m 16,0 h 8 v 4 h -8 z m 16,0 h 8 v 4 h -8 z m 16,0 h 8 v 4 h -8 z m 16,0 h 8 v 4 h -8 z m 16,0 h 8 v 4 h -8 z m 16,0 h 8 v 4 h -8 z m 16,0 h 8 v 4 h -8 z m 16,0 h 8 v 4 h -8 z m 16,0 h 8 v 4 h -8 z m 16,0 h 8 v 4 h -8 z m 16,0 h 8 v 4 h -8 z m 16,0 h 8 v 4 h -8 z m 16,0 h 8 v 4 h -8 z m 16,0 h 8 v 4 h -8 z m 16,0 h 8 v 4 h -8 z m 16,0 h 8 v 4 h -8 z m 16,0 h 8 v 4 h -8 z m 16,0 h 8 v 4 h -8 z m 16,0 h 8 v 4 h -8 z m 16,0 h 8 v 4 h -8 z m 16,0 h 8 v 4 h -8 z m 16,0 h 8 v 4 h -8 z m 16,0 h 8 v 4 h -8 z m 16,0 h 8 v 4 h -8 z m 16,0 h 8 v 4 h -8 z m 16,0 h 8 v 4 h -8 z m 16,0 h 8 v 4 h -8 z m 16,0 h 8 v 4 h -8 z m 16,0 h 8 v 4 h -8 z m 16,0 h 8 v 4 h -8 z m 16,0 h 8 v 4 h -8 z m 16,0 h 8 v 4 h -8 z m 16,0 h 8 v 4 h -8 z m 16,0 h 8 v 4 h -8 z m 16,0 h 8 v 4 h -8 z m 16,0 h 8 v 4 h -8 z m 14.4373,5.5627439 v 7.9999991 h -4 V 3.5627439 Z m 0,15.9999981 v 8 h -4 v -8 z m 0,16.000002 v 7.999996 h -4 v -7.999996 z m 0,15.999996 v 8 h -4 v -8 z m 0,16.000004 v 8 h -4 v -8 z m 0,15.999993 v 8 h -4 v -8 z m 0,16 v 8.000003 h -4 v -8.000003 z m 0,16.000003 v 8 h -4 v -8 z m 0,16 v 8 h -4 v -8 z m 0,16 v 7.99999 h -4 v -7.99999 z m 0,15.99999 v 8 h -4 v -8 z m 0,16 v 8 h -4 v -8 z m 0,16 v 8 h -4 v -8 z m 0,16 v 8 h -4 v -8 z m 0,16 v 7.99998 h -4 v -7.99998 z m 0,16 v 7.99998 h -4 v -7.99998 z m 0,16.00001 v 7.99997 h -4 v -7.99997 z m 0,16 v 7.99997 h -4 v -7.99997 z m 0,16 v 7.99997 h -4 v -7.99997 z m 0,15.99997 v 8 h -4 v -8 z m 0,16 v 8 h -4 v -8 z m 0,16 v 8 h -4 v -8 z m 0,16 v 8 h -4 v -8 z m 0,16 v 8 h -4 v -8 z m 0,16 v 8.00003 h -4 v -8.00003 z m 0,16 v 8 h -4 v -8 z m 0,16 v 8.00003 h -4 v -8.00003 z m 0,16 v 8 h -4 v -8 z m 0,15.99997 v 8 h -4 v -8 z m 0,16.00003 v 8 h -4 v -8 z m 0,15.99997 v 8 h -4 v -8 z m 0,16.00003 v 8 h -4 v -8 z m 0,15.99997 v 8 h -4 v -8 z m 0,16.00006 v 7.99994 h -4 v -7.99994 z m 0,15.99994 v 8 h -4 v -8 z m 0,16.00006 v 7.99994 h -4 v -7.99994 z m 0,15.99994 v 8 h -4 v -8 z m 0,16.00006 v 7.99994 h -4 v -7.99994 z m 0,15.99994 v 8 h -4 v -8 z m 0,16 v 8 h -4 v -8 z m 0,16 v 8 h -4 v -8 z m 0,16 v 8 h -4 v -8 z m 0,16 v 8 h -4 v -8 z m 0,16 v 8 h -4 v -8 z m 0,16 v 8 h -4 v -8 z m 0,16 v 8 h -4 v -8 z m 0,16 v 8 h -4 v -8 z m 0,16 v 8 h -4 v -8 z m 0,16 v 8 h -4 v -8 z m 0,16 v 3.02442 h -8.9756 v -4 h 6.9756 v 2 h -2 v -1.02442 z m -16.9756,3.02442 h -8 v -4 h 8 z m -16,0 h -8 v -4 h 8 z m -16,0 h -8.00003 v -4 h 8.00003 z m -16.00003,0 h -8 v -4 h 8 z m -16,0 h -8 v -4 h 8 z m -16,0 h -8 v -4 h 8 z m -16,0 h -8 v -4 h 8 z m -16,0 h -8 v -4 h 8 z m -16,0 h -8 v -4 h 8 z m -16,0 h -8 v -4 h 8 z m -16,0 h -8 v -4 h 8 z m -16,0 h -8 v -4 h 8 z m -16,0 h -8 v -4 h 8 z m -16,0 h -8 v -4 h 8 z m -16,0 h -8 v -4 h 8 z m -16,0 h -8 v -4 h 8 z m -16,0 h -8 v -4 h 8 z m -16,0 h -8 v -4 h 8 z m -16,0 h -8 v -4 h 8 z m -16,0 h -8 v -4 h 8 z m -16,0 h -8 v -4 h 8 z m -16,0 h -8 v -4 h 8 z m -16,0 h -8 v -4 h 8 z m -16,0 h -8 v -4 h 8 z m -16,0 h -8 v -4 h 8 z m -16,0 h -8 v -4 h 8 z m -16,0 h -8 v -4 h 8 z m -16,0 h -8 v -4 h 8 z m -16,0 h -8 v -4 h 8 z m -16,0 h -8 v -4 h 8 z m -16,0 h -8 v -4 h 8 z m -16,0 h -8 v -4 h 8 z m -16,0 h -8 v -4 h 8 z m -16,0 h -8 v -4 h 8 z m -16,0 h -8 v -4 h 8 z m -16,0 h -8 v -4 h 8 z m -16,0 h -8 v -4 h 8 z m -16,0 h -8 v -4 h 8 z m -16.00006,0 h -7.99994 v -4 h 7.99994 z m -15.99994,0 h -8 v -4 h 8 z m -16,0 h -8 v -4 h 8 z m -16,0 h -8 v -4 h 8 z m -16,0 h -8 v -4 h 8 z m -16,0 h -8 v -4 h 8 z m -16,0 h -8.00006 v -4 h 8.00006 z m -16,0 h -8 v -4 h 8 z m -16,0 h -8 v -4 h 8 z m -16,0 h -8 v -4 h 8 z m -16,0 h -8 v -4 h 8 z m -16,0 h -8 v -4 h 8 z m -16,0 h -8 v -4 h 8 z m -16.00006,0 h -7.99994 v -4 h 7.99994 z m -15.99994,0 h -8 v -4 h 8 z m -16,0 h -8 v -4 h 8 z m -16,0 h -8 v -4 h 8 z m -16,0 h -8 v -4 h 8 z m -16,0 h -8 v -4 h 8 z m -16,0 h -8.00006 v -4 h 8.00006 z m -16,0 h -8 v -4 h 8 z m -16,0 h -8 v -4 h 8 z m -16,0 h -8 v -4 h 8 z m -16,0 h -8 v -4 h 8 z m -16,0 h -8 v -4 h 8 z m -16,0 h -8 v -4 h 8 z m -16,0 H 5.4616699 v -4 H 13.46167 Z M -2,786.04877 v -8 h 4 v 8 z m 0,-16 v -8 h 4 v 8 z m 0,-16 v -8 h 4 v 8 z m 0,-16 v -8 h 4 v 8 z m 0,-16 v -8 h 4 v 8 z m 0,-16 v -8 h 4 v 8 z m 0,-16 v -8 h 4 v 8 z m 0,-16 v -8 h 4 v 8 z m 0,-16 v -8 h 4 v 8 z m 0,-16 v -8 h 4 v 8 z m 0,-16 v -8 h 4 v 8 z m 0,-16 v -8 h 4 v 8 z m 0,-16 v -7.99994 h 4 v 7.99994 z m 0,-16 v -7.99994 h 4 v 7.99994 z m 0,-16 v -7.99994 h 4 v 7.99994 z m 0,-16 v -7.99994 h 4 v 7.99994 z m 0,-15.99994 v -8 h 4 v 8 z m 0,-16 v -8.00003 h 4 v 8.00003 z m 0,-16.00003 v -8 h 4 v 8 z m 0,-16 v -8 h 4 v 8 z m 0,-16 v -8 h 4 v 8 z m 0,-16 v -8 h 4 v 8 z m 0,-16 v -8 h 4 v 8 z m 0,-16 v -8 h 4 v 8 z m 0,-16 v -8 h 4 v 8 z m 0,-15.99997 v -8.00006 h 4 v 8.00006 z m 0,-16.00003 v -8 h 4 v 8 z m 0,-15.99997 v -8.00006 h 4 v 8.00006 z m 0,-16.00003 v -8 h 4 v 8 z m 0,-15.99997 v -8.00006 h 4 v 8.00006 z m 0,-16.00003 v -8 h 4 v 8 z m 0,-15.99997 v -8.00003 h 4 v 8.00003 z m 0,-16.00006 v -7.99994 h 4 v 7.99994 z m 0,-15.99994 v -8.00006 h 4 v 8.00006 z m 0,-16 v -8 h 4 v 8 z m 0,-16 v -8 h 4 v 8 z m 0,-16 v -8 h 4 v 8 z m 0,-16 v -8 h 4 v 8 z m 0,-16 v -8 h 4 v 8 z m 0,-16 v -8 h 4 v 8 z m 0,-16 v -8 h 4 v 8 z m 0,-16 v -8 h 4 v 8 z m 0,-16 v -8 h 4 v 8 z m 0,-16.000002 v -8 h 4 v 8 z m 0,-16 v -8 h 4 v 8 z m 0,-16 v -8 h 4 v 8 z m 0,-16 v -8 h 4 v 8 z m 0,-16 v -8 h 4 v 8 z m 0,-16 v -8 h 4 v 8 z M -2,2.0488281 V -2 H 8 V 2 H 0 V 0 h 2 v 2.0488281 z" /></g></g></g><g
       id="g184"><g
         clip-path="url(#clipPath190)"
         id="g186"><g
           transform="matrix(2.1876314,0,0,2.1882176,196.85225,776.28003)"
           id="g192"><text
             id="text196"
             style="font-variant:normal;font-weight:normal;font-size:26px;font-family:OpenSans;-inkscape-font-specification:OpenSans-Regular;writing-mode:lr-tb;fill:#1a1a1a;fill-opacity:1;fill-rule:nonzero;stroke:none"
             transform="translate(0,699.72839)"><tspan
               id="tspan194"
               y="0"
               x="0 16.402344 27.015625 42.719727 55.123047 67.526367 75.892578 75.892578 88.270508 104.22852 118.68848 125.26465 141.22266 147.97656 162.36035 172.97363 187.43359 203.3916 215.79492 224.60547 239.19238 249.80566 256.55957 272.21289 282.82617 298.53027 307.70898 323.41309 335.79102 351.49512">Cross- chain Transfer Protocol</tspan></text>
</g></g></g><g
       id="g198"><g
         clip-path="url(#clipPath204)"
         id="g200"><g
           clip-path="url(#clipPath210)"
           id="g206"><g
             clip-path="url(#clipPath216)"
             id="g212"><g
               clip-path="url(#clipPath222)"
               id="g218"><g
                 transform="matrix(2.1876314,0,0,2.1882176,1095.3626,1383.75)"
                 id="g224"><path
                   id="path226"
                   style="fill:none;stroke:#1a1a1a;stroke-width:1;stroke-linecap:butt;stroke-linejoin:miter;stroke-miterlimit:10;stroke-dasharray:none;stroke-opacity:1"
                   d="M 26.128878,0 H 287.24149 c 1.71563,0 3.41479,0.16735297 5.09744,0.50205898 1.68268,0.33470601 3.31653,0.83033372 4.90158,1.48688312 1.58505,0.6565495 3.09085,1.4614051 4.51733,2.4145675 1.42652,0.9531622 2.74634,2.0363159 3.95951,3.2494612 1.21313,1.2131448 2.29629,2.5329722 3.24945,3.9594792 0.95315,1.426508 1.75799,2.932287 2.41458,4.517337 0.65655,1.585051 1.15219,3.218916 1.48691,4.901597 0.33468,1.682682 0.50204,3.381847 0.50207,5.097494 V 104.5155 c -3e-5,1.71564 -0.16739,3.4148 -0.50207,5.09748 -0.33472,1.68268 -0.83036,3.31655 -1.48691,4.90159 -0.65659,1.58505 -1.46146,3.09083 -2.41461,4.51734 -0.95316,1.42651 -2.03629,2.74634 -3.24942,3.95948 -1.21317,1.21315 -2.53299,2.29629 -3.95951,3.24946 -1.42648,0.95316 -2.93225,1.75802 -4.5173,2.41458 -1.58505,0.65654 -3.2189,1.15217 -4.90158,1.48689 -1.68268,0.3347 -3.38184,0.50204 -5.09747,0.50206 H 26.128878 c -1.715647,-2e-5 -3.414812,-0.16736 -5.097493,-0.50206 -1.682682,-0.33472 -3.316547,-0.83035 -4.901598,-1.48689 -1.58505,-0.65655 -3.090829,-1.46141 -4.517337,-2.41458 -1.426507,-0.95315 -2.7463344,-2.03631 -3.9594792,-3.24945 -1.2131453,-1.21315 -2.296299,-2.53298 -3.2494617,-3.95949 -0.9531622,-1.4265 -1.7580175,-2.93228 -2.414567,-4.51733 -0.6565494,-1.58505 -1.15217711,-3.21892 -1.48688312,-4.9016 C 0.16735297,107.9303 0,106.23114 0,104.5155 V 26.128878 C 0,24.413231 0.16735297,22.714066 0.50205898,21.031385 0.83676499,19.348703 1.3323927,17.714838 1.9889421,16.129787 2.6454916,14.544737 3.4503472,13.038958 4.4035096,11.61245 5.3566718,10.185943 6.4398255,8.8661156 7.6529708,7.6529708 8.8661156,6.4398255 10.185943,5.3566718 11.61245,4.4035091 13.038958,3.4503469 14.544737,2.6454916 16.129787,1.9889421 17.714838,1.3323927 19.348703,0.83676499 21.031384,0.50205898 22.714066,0.16735297 24.413231,0 26.128878,0 Z" /></g></g></g></g></g></g><g
       id="g228"><g
         clip-path="url(#clipPath234)"
         id="g230"><g
           transform="matrix(2.1876314,0,0,2.1882176,1109.6527,1398.044)"
           id="g236"><text
             id="text240"
             style="font-variant:normal;font-weight:normal;font-size:24px;font-family:OpenSans;-inkscape-font-specification:OpenSans-Regular;writing-mode:lr-tb;fill:#1a1a1a;fill-opacity:1;fill-rule:nonzero;stroke:none"
             transform="translate(49.94593,49.789974)"><tspan
               id="tspan238"
               y="0"
               x="0 21.667969 35.132812 46.582031 58.03125 71.378906 84.527344 90.597656 105.32812 118.47656 124.71094 140.26172 150.05859 164.55469 177.15234 190.61719">Messaging Broker</tspan></text>
</g></g></g><g
       id="g242"><g
         clip-path="url(#clipPath248)"
         id="g244"><g
           clip-path="url(#clipPath254)"
           id="g250"><g
             clip-path="url(#clipPath260)"
             id="g256"><g
               clip-path="url(#clipPath266)"
               id="g262"><g
                 transform="matrix(2.1876314,0,0,2.1882176,1095.3626,854.59375)"
                 id="g268"><path
                   id="path270"
                   style="fill:none;stroke:#1a1a1a;stroke-width:1;stroke-linecap:butt;stroke-linejoin:miter;stroke-miterlimit:10;stroke-dasharray:none;stroke-opacity:1"
                   d="M 26.128878,0 H 287.24149 c 1.71563,0 3.41479,0.16735297 5.09744,0.50205898 1.68268,0.33470601 3.31653,0.83033372 4.90158,1.48688312 1.58505,0.6565495 3.09085,1.4614051 4.51733,2.4145675 1.42652,0.9531622 2.74634,2.0363159 3.95951,3.2494612 1.21313,1.2131448 2.29629,2.5329722 3.24945,3.9594792 0.95315,1.426508 1.75799,2.932287 2.41458,4.517337 0.65655,1.585051 1.15219,3.218916 1.48691,4.901597 0.33468,1.682682 0.50204,3.381847 0.50207,5.097494 V 104.5155 c -3e-5,1.71564 -0.16739,3.4148 -0.50207,5.09748 -0.33472,1.68268 -0.83036,3.31655 -1.48691,4.90159 -0.65659,1.58505 -1.46146,3.09083 -2.41461,4.51734 -0.95316,1.42651 -2.03629,2.74634 -3.24942,3.95948 -1.21317,1.21315 -2.53299,2.29629 -3.95951,3.24946 -1.42648,0.95316 -2.93225,1.75802 -4.5173,2.41458 -1.58505,0.65654 -3.2189,1.15217 -4.90158,1.48689 -1.68268,0.3347 -3.38184,0.50204 -5.09747,0.50206 H 26.128878 c -1.715647,-2e-5 -3.414812,-0.16736 -5.097493,-0.50206 -1.682682,-0.33472 -3.316547,-0.83035 -4.901598,-1.48689 -1.58505,-0.65655 -3.090829,-1.46141 -4.517337,-2.41458 -1.426507,-0.95315 -2.7463344,-2.03631 -3.9594792,-3.24945 -1.2131453,-1.21315 -2.296299,-2.53298 -3.2494617,-3.95949 -0.9531622,-1.4265 -1.7580175,-2.93228 -2.414567,-4.51733 -0.6565494,-1.58505 -1.15217711,-3.21892 -1.48688312,-4.9016 C 0.16735297,107.9303 0,106.23114 0,104.5155 V 26.128878 C 0,24.413231 0.16735297,22.714066 0.50205898,21.031385 0.83676499,19.348703 1.3323927,17.714838 1.9889421,16.129787 2.6454916,14.544737 3.4503472,13.038958 4.4035096,11.61245 5.3566718,10.185943 6.4398255,8.8661156 7.6529708,7.6529708 8.8661156,6.4398255 10.185943,5.3566718 11.61245,4.4035091 13.038958,3.4503469 14.544737,2.6454916 16.129787,1.9889421 17.714838,1.3323927 19.348703,0.83676499 21.031384,0.50205898 22.714066,0.16735297 24.413231,0 26.128878,0 Z" /></g></g></g></g></g></g><g
       id="g272"><g
         clip-path="url(#clipPath278)"
         id="g274"><g
           transform="matrix(2.1876314,0,0,2.1882176,1109.6527,868.8877)"
           id="g280"><text
             id="text284"
             style="font-variant:normal;font-weight:normal;font-size:24px;font-family:OpenSans;-inkscape-font-specification:OpenSans-Regular;writing-mode:lr-tb;fill:#1a1a1a;fill-opacity:1;fill-rule:nonzero;stroke:none"
             transform="translate(36.363899,49.789974)"><tspan
               id="tspan282"
               y="0"
               x="0 21.667969 35.132812 46.582031 58.03125 71.378906 84.527344 90.597656 105.32812 118.47656 124.71094 139.16016 148.95703 163.45312 178.16016 192.89062 204.31641 217.78125">Messaging Producer</tspan></text>
</g></g></g><g
       id="g286"><g
         clip-path="url(#clipPath292)"
         id="g288"><g
           clip-path="url(#clipPath298)"
           id="g294"><g
             clip-path="url(#clipPath304)"
             id="g300"><g
               clip-path="url(#clipPath310)"
               id="g306"><g
                 transform="matrix(2.1876314,0,0,2.1882176,1438.1145,617.21875)"
                 id="g312"><path
                   id="path314"
                   style="fill:none;stroke:#000000;stroke-width:1;stroke-linecap:butt;stroke-linejoin:miter;stroke-miterlimit:10;stroke-dasharray:none;stroke-opacity:1"
                   d="m 0,0.80000001 v 53.43880799 0 41.438812" /></g></g></g></g></g></g><g
       id="g316"><g
         clip-path="url(#clipPath322)"
         id="g318"><g
           transform="matrix(0,2.1882176,-2.1876314,0,1438.1145,854.59137)"
           id="g324"><path
             id="path326"
             style="fill:#000000;fill-opacity:1;fill-rule:nonzero;stroke:none"
             d="M -16,-4 0,0 -16,4 Z" /></g><g
           transform="matrix(2.1876314,0,0,2.1882176,1307.9504,724.86981)"
           id="g328"><text
             id="text332"
             style="font-variant:normal;font-weight:normal;font-size:14px;font-family:OpenSans;-inkscape-font-specification:OpenSans-Regular;writing-mode:lr-tb;fill:#000000;fill-opacity:1;fill-rule:nonzero;stroke:none"
             transform="translate(0,14)"><tspan
               id="tspan330"
               y="0"
               x="0 7.6835938 15.538086 24.130859 32.709961 39.388672 43.025391 56.047852 63.902344 70.581055 77.259766 85.045898 92.71582 100.57031 104.20703 109.14941">Sends message to</tspan></text>
</g></g></g><g
       id="g334"><g
         clip-path="url(#clipPath340)"
         id="g336"><g
           clip-path="url(#clipPath346)"
           id="g342"><g
             clip-path="url(#clipPath352)"
             id="g348"><g
               clip-path="url(#clipPath358)"
               id="g354"><g
                 transform="matrix(2.1876314,0,0,2.1882176,1438.1145,1140.4688)"
                 id="g360"><path
                   id="path362"
                   style="fill:none;stroke:#000000;stroke-width:1;stroke-linecap:butt;stroke-linejoin:miter;stroke-miterlimit:10;stroke-dasharray:none;stroke-opacity:1"
                   d="M 0,0.80000001 V 98.377808" /></g></g></g></g></g></g><g
       id="g364"><g
         clip-path="url(#clipPath370)"
         id="g366"><g
           transform="matrix(0,2.1882176,-2.1876314,0,1438.1145,1383.75)"
           id="g372"><path
             id="path374"
             style="fill:#000000;fill-opacity:1;fill-rule:nonzero;stroke:none"
             d="M -16,-4 0,0 -16,4 Z" /></g><g
           transform="matrix(2.1876314,0,0,2.1882176,1282.7927,1227.0979)"
           id="g376"><text
             id="text380"
             style="font-variant:normal;font-weight:normal;font-size:14px;font-family:OpenSans;-inkscape-font-specification:OpenSans-Regular;writing-mode:lr-tb;fill:#000000;fill-opacity:1;fill-rule:nonzero;stroke:none"
             transform="translate(0,14)"><tspan
               id="tspan378"
               y="0"
               x="0 8.4287109 17.021484 25.600586 29.141602 32.682617 39.361328 47.954102 55.808594 62.487305 66.124023 79.146484 87.000977 93.679688 100.3584 108.14453 115.81445 123.66895 127.30566 132.24805">Publishes message to</tspan></text>
</g></g></g><g
       id="g382"><g
         clip-path="url(#clipPath388)"
         id="g384"><g
           clip-path="url(#clipPath394)"
           id="g390"><g
             clip-path="url(#clipPath400)"
             id="g396"><g
               clip-path="url(#clipPath406)"
               id="g402"><g
                 transform="matrix(2.1876314,0,0,2.1882176,1095.3626,1913.7811)"
                 id="g408"><path
                   id="path410"
                   style="fill:none;stroke:#1a1a1a;stroke-width:1;stroke-linecap:butt;stroke-linejoin:miter;stroke-miterlimit:10;stroke-dasharray:none;stroke-opacity:1"
                   d="M 26.128878,0 H 287.24149 c 1.71563,0 3.41479,0.16735297 5.09744,0.50205898 1.68268,0.33470601 3.31653,0.83033372 4.90158,1.48688312 1.58505,0.6565495 3.09085,1.4614051 4.51733,2.4145675 1.42652,0.9531622 2.74634,2.0363159 3.95951,3.2494612 1.21313,1.2131448 2.29629,2.5329722 3.24945,3.9594792 0.95315,1.426508 1.75799,2.932287 2.41458,4.517337 0.65655,1.585051 1.15219,3.218916 1.48691,4.901597 0.33468,1.682682 0.50204,3.381847 0.50207,5.097494 V 104.5155 c -3e-5,1.71564 -0.16739,3.4148 -0.50207,5.09748 -0.33472,1.68268 -0.83036,3.31655 -1.48691,4.90159 -0.65659,1.58505 -1.46146,3.09083 -2.41461,4.51734 -0.95316,1.42651 -2.03629,2.74634 -3.24942,3.95948 -1.21317,1.21315 -2.53299,2.29629 -3.95951,3.24946 -1.42648,0.95316 -2.93225,1.75802 -4.5173,2.41458 -1.58505,0.65654 -3.2189,1.15217 -4.90158,1.48689 -1.68268,0.3347 -3.38184,0.50204 -5.09747,0.50206 H 26.128878 c -1.715647,-2e-5 -3.414812,-0.16736 -5.097493,-0.50206 -1.682682,-0.33472 -3.316547,-0.83035 -4.901598,-1.48689 -1.58505,-0.65655 -3.090829,-1.46141 -4.517337,-2.41458 -1.426507,-0.95315 -2.7463344,-2.03631 -3.9594792,-3.24945 -1.2131453,-1.21315 -2.296299,-2.53298 -3.2494617,-3.95949 -0.9531622,-1.4265 -1.7580175,-2.93228 -2.414567,-4.51733 -0.6565494,-1.58505 -1.15217711,-3.21892 -1.48688312,-4.9016 C 0.16735297,107.9303 0,106.23114 0,104.5155 V 26.128878 C 0,24.413231 0.16735297,22.714066 0.50205898,21.031385 0.83676499,19.348703 1.3323927,17.714838 1.9889421,16.129787 2.6454916,14.544737 3.4503472,13.038958 4.4035096,11.61245 5.3566718,10.185943 6.4398255,8.8661156 7.6529708,7.6529708 8.8661156,6.4398255 10.185943,5.3566718 11.61245,4.4035091 13.038958,3.4503469 14.544737,2.6454916 16.129787,1.9889421 17.714838,1.3323927 19.348703,0.83676499 21.031384,0.50205898 22.714066,0.16735297 24.413231,0 26.128878,0 Z" /></g></g></g></g></g></g><g
       id="g412"><g
         clip-path="url(#clipPath418)"
         id="g414"><g
           transform="matrix(2.1876314,0,0,2.1882176,1109.6527,1928.0751)"
           id="g420"><text
             id="text424"
             style="font-variant:normal;font-weight:normal;font-size:24px;font-family:OpenSans;-inkscape-font-specification:OpenSans-Regular;writing-mode:lr-tb;fill:#1a1a1a;fill-opacity:1;fill-rule:nonzero;stroke:none"
             transform="translate(29.731087,49.789974)"><tspan
               id="tspan422"
               y="0"
               x="0 21.667969 35.132812 46.582031 58.03125 71.378906 84.527344 90.597656 105.32812 118.47656 124.71094 139.85156 154.34766 169.07812 180.52734 195.25781 217.58203 231.04688">Messaging Consumer</tspan></text>
</g></g></g><g
       id="g426"><g
         clip-path="url(#clipPath432)"
         id="g428"><g
           clip-path="url(#clipPath438)"
           id="g434"><g
             clip-path="url(#clipPath444)"
             id="g440"><g
               clip-path="url(#clipPath450)"
               id="g446"><g
                 transform="matrix(2.1876314,0,0,2.1882176,1438.1145,1669.6251)"
                 id="g452"><path
                   id="path454"
                   style="fill:none;stroke:#000000;stroke-width:1;stroke-linecap:butt;stroke-linejoin:miter;stroke-miterlimit:10;stroke-dasharray:none;stroke-opacity:1"
                   d="M 0,0.80000001 V 98.776962" /></g></g></g></g></g></g><g
       id="g456"><g
         clip-path="url(#clipPath462)"
         id="g458"><g
           transform="matrix(0,2.1882176,-2.1876314,0,1438.1145,1913.7798)"
           id="g464"><path
             id="path466"
             style="fill:#000000;fill-opacity:1;fill-rule:nonzero;stroke:none"
             d="M -16,-4 0,0 -16,4 Z" /></g><g
           transform="matrix(2.1876314,0,0,2.1882176,1301.3876,1756.6909)"
           id="g468"><text
             id="text472"
             style="font-variant:normal;font-weight:normal;font-size:14px;font-family:OpenSans;-inkscape-font-specification:OpenSans-Regular;writing-mode:lr-tb;fill:#000000;fill-opacity:1;fill-rule:nonzero;stroke:none"
             transform="translate(0,14)"><tspan
               id="tspan470"
               y="0"
               x="0 8.6542969 17.110352 25.703125 30.645508 38.5 45.178711 48.81543 61.837891 69.692383 76.371094 83.049805 90.835938 98.505859 106.36035 109.99707 114.93945">Routes message to</tspan></text>
</g></g></g><g
       id="g474"><g
         clip-path="url(#clipPath480)"
         id="g476"><g
           clip-path="url(#clipPath486)"
           id="g482"><g
             clip-path="url(#clipPath492)"
             id="g488"><g
               clip-path="url(#clipPath498)"
               id="g494"><g
                 transform="matrix(2.1876314,0,0,2.1882176,1438.1145,2199.6563)"
                 id="g500"><path
                   id="path502"
                   style="fill:none;stroke:#000000;stroke-width:1;stroke-linecap:butt;stroke-linejoin:miter;stroke-miterlimit:10;stroke-dasharray:none;stroke-opacity:1"
                   d="m 0,0.80000001 v 81.20701899 0 69.207011" /></g></g></g></g></g></g><g
       id="g504"><g
         clip-path="url(#clipPath510)"
         id="g506"><g
           transform="matrix(0,2.1882176,-2.1876314,0,1438.1145,2558.5547)"
           id="g512"><path
             id="path514"
             style="fill:#000000;fill-opacity:1;fill-rule:nonzero;stroke:none"
             d="M -16,-4 0,0 -16,4 Z" /></g><g
           transform="matrix(2.1876314,0,0,2.1882176,1307.9504,2344.094)"
           id="g516"><text
             id="text520"
             style="font-variant:normal;font-weight:normal;font-size:14px;font-family:OpenSans;-inkscape-font-specification:OpenSans-Regular;writing-mode:lr-tb;fill:#000000;fill-opacity:1;fill-rule:nonzero;stroke:none"
             transform="translate(0,14)"><tspan
               id="tspan518"
               y="0"
               x="0 7.6835938 15.538086 24.130859 32.709961 39.388672 43.025391 56.047852 63.902344 70.581055 77.259766 85.045898 92.71582 100.57031 104.20703 109.14941">Sends message to</tspan></text>
</g></g></g><g
       id="g522"><g
         clip-path="url(#clipPath528)"
         id="g524"><g
           clip-path="url(#clipPath534)"
           id="g530"><g
             clip-path="url(#clipPath540)"
             id="g536"><g
               clip-path="url(#clipPath546)"
               id="g542"><g
                 transform="matrix(2.1876314,0,0,2.1882176,1780.8975,1569.9063)"
                 id="g548"><path
                   id="path550"
                   style="fill:#000000;fill-opacity:1;fill-rule:nonzero;stroke:none"
                   d="M 0.80000001,221.96519 H 4.8000002 v 1 H 0.80000001 Z m 9.00000019,0 H 13.8 v 1 H 9.8000002 Z m 8.9999988,0 h 4 v 1 h -4 z m 9,0 H 30 v 0.5 h -0.5 v -1.8 h 1 v 2.3 h -2.700001 z m 1.700001,-6.3 v -4 h 1 v 4 z m 0,-9 v -4 h 1 v 4 z m 0,-9 v -4 h 1 v 4 z m 0,-9 v -4 h 1 v 4 z m 0,-9 v -4 h 1 v 4 z m 0,-9 v -4 h 1 v 4 z m 0,-9 v -4 h 1 v 4 z m 0,-9 v -4 h 1 v 4 z m 0,-9 v -4 h 1 v 4 z m 0,-9 v -4 h 1 v 4 z m 0,-9 v -4 h 1 v 4 z m 0,-9 v -4 h 1 v 4 z m 0,-9 v -4 h 1 v 4 z m 0,-8.999998 v -4 h 1 v 4 z m 0,-9 v -4 h 1 v 4 z m 0,-9 v -4 h 1 v 4 z m 0,-9 v -4 h 1 v 4 z m 0,-9 v -4 h 1 v 4 z m 0,-9 v -4 h 1 v 4 z m 0,-9 v -4 h 1 v 4 z m 0,-9 v -4 h 1 v 4 z m 0,-9 v -4 h 1 v 4 z m 0,-9 v -4 h 1 v 4 z m 0,-9.0000003 v -4 h 1 v 4 z M 29.665192,0.5 h -3.999997 v -1 h 3.999997 z m -8.999995,0 h -3.999996 v -1 h 3.999996 z" /></g></g></g></g></g></g><g
       id="g552"><g
         clip-path="url(#clipPath558)"
         id="g554"><g
           transform="matrix(-2.1876314,0,0,-2.1882176,1780.8975,1569.9063)"
           id="g560"><path
             id="path562"
             style="fill:#000000;fill-opacity:1;fill-rule:nonzero;stroke:none"
             d="M -16,-4 0,0 -16,4 Z" /></g><g
           transform="matrix(2.1876314,0,0,2.1882176,1749.177,1804.5546)"
           id="g564"><text
             id="text568"
             style="font-variant:normal;font-weight:normal;font-size:14px;font-family:OpenSans;-inkscape-font-specification:OpenSans-Regular;writing-mode:lr-tb;fill:#000000;fill-opacity:1;fill-rule:nonzero;stroke:none"
             transform="translate(0,14)"><tspan
               id="tspan566"
               y="0"
               x="0 7.6835938 16.276367 24.855469 31.53418 38.199219 43.914062 47.455078 56.03418 63.888672 70.567383 74.204102 79.146484">Subscribes to</tspan></text>
</g></g></g><g
       id="g570"><g
         clip-path="url(#clipPath576)"
         id="g572"><g
           clip-path="url(#clipPath582)"
           id="g578"><g
             clip-path="url(#clipPath588)"
             id="g584"><g
               clip-path="url(#clipPath594)"
               id="g590"><g
                 transform="matrix(2.1876314,0,0,2.1882176,1780.8975,997.53125)"
                 id="g596"><path
                   id="path598"
                   style="fill:#000000;fill-opacity:1;fill-rule:nonzero;stroke:none"
                   d="M 0.80000001,241.32219 H 4.8000002 v 1 H 0.80000001 Z m 9.00000019,0 H 13.8 v 1 H 9.8000002 Z m 8.9999988,0 h 4 v 1 h -4 z m 9,0 H 30 v 0.5 h -0.5 v -1.8 h 1 v 2.3 h -2.700001 z m 1.700001,-6.3 v -4 h 1 v 4 z m 0,-9 v -4 h 1 v 4 z m 0,-9 v -4 h 1 v 4 z m 0,-9 v -4 h 1 v 4 z m 0,-9 v -4 h 1 v 4 z m 0,-9 v -4 h 1 v 4 z m 0,-9 v -4 h 1 v 4 z m 0,-9 v -4 h 1 v 4 z m 0,-9 v -4 h 1 v 4 z m 0,-9 v -4 h 1 v 4 z m 0,-9 v -4 h 1 v 4 z m 0,-9 v -4 h 1 v 4 z m 0,-9 v -4 h 1 v 4 z m 0,-9.00001 v -3.99999 h 1 v 3.99999 z m 0,-8.99999 v -4 h 1 v 4 z m 0,-9 v -4.000004 h 1 v 4.000004 z m 0,-9.000004 v -4 h 1 v 4 z m 0,-9 v -4 h 1 v 4 z m 0,-9 v -4 h 1 v 4 z m 0,-9 v -4 h 1 v 4 z m 0,-9 v -4 h 1 v 4 z m 0,-9 v -4 h 1 v 4 z m 0,-9 v -4 h 1 v 4 z m 0,-9 v -4 h 1 v 4 z m 0,-9 v -4 h 1 v 4 z m 0,-9 V 6.0221863 h 1 v 3.9999997 z m 0,-8.9999997 V 0 H 30 v 0.5 h -2.977812 v -1 H 30.5 V 1.0221863 Z M 22.022192,0.5 h -3.999998 v -1 h 3.999998 z m -8.999994,0 H 12.8 v -1 h 0.222198 z" /></g></g></g></g></g></g><g
       id="g600"><g
         clip-path="url(#clipPath606)"
         id="g602"><g
           transform="matrix(-2.1876314,0,0,-2.1882176,1780.8975,997.53125)"
           id="g608"><path
             id="path610"
             style="fill:#000000;fill-opacity:1;fill-rule:nonzero;stroke:none"
             d="M -16,-4 0,0 -16,4 Z" /></g><g
           transform="matrix(2.1876314,0,0,2.1882176,1749.177,1253.3582)"
           id="g612"><text
             id="text616"
             style="font-variant:normal;font-weight:normal;font-size:14px;font-family:OpenSans;-inkscape-font-specification:OpenSans-Regular;writing-mode:lr-tb;fill:#000000;fill-opacity:1;fill-rule:nonzero;stroke:none"
             transform="translate(0,14)"><tspan
               id="tspan614"
               y="0"
               x="0 7.6835938 16.276367 24.855469 31.53418 38.199219 43.914062 47.455078 56.03418 63.888672 70.567383 74.204102 79.146484">Subscribes to</tspan></text>
</g><g
           transform="matrix(2.1876314,0,0,2.1882176,1188.4939,1014.3124)"
           id="g618"><text
             id="text622"
             style="font-variant:normal;font-weight:normal;font-size:14px;font-family:OpenSans;-inkscape-font-specification:OpenSans-Regular;writing-mode:lr-tb;fill:#1a1a1a;fill-opacity:1;fill-rule:nonzero;stroke:none"
             transform="translate(12.938207,14)"><tspan
               id="tspan620"
               y="0"
               x="0 7.6835938 20.706055 28.492188 34.207031 39.149414 42.786133 49.451172 57.907227 66.5 71.442383 77.157227 84.943359 91.608398 96.550781 100.1875 108.64355 117.23633 120.87305 129.45215 132.99316 141.44922 148.11426 155.46289 162.12793 170.7207 178.50684 182.04785 190.64062 194.27734 202.35742">Smart contract on blockchain X</tspan></text>
<text
             id="text626"
             style="font-variant:normal;font-weight:normal;font-size:14px;font-family:OpenSans;-inkscape-font-specification:OpenSans-Regular;writing-mode:lr-tb;fill:#1a1a1a;fill-opacity:1;fill-rule:nonzero;stroke:none"
             transform="translate(3.4772689,34)"><tspan
               id="tspan624"
               y="0"
               x="0 4.9423828 13.535156 21.321289 26.263672 29.900391 42.922852 50.708984 56.423828 63.102539 71.695312 79.481445 83.022461 89.701172 93.337891 96.878906 105.47168 112.13672 120.59277 133.61523 137.15625 145.74902 153.41895 157.05566 170.07812 177.93262 184.61133 191.29004 199.07617 206.74609 214.60059">that marshals incoming messages</tspan></text>
</g><g
           transform="matrix(2.1876314,0,0,2.1882176,1208.551,2068.4688)"
           id="g628"><text
             id="text632"
             style="font-variant:normal;font-weight:normal;font-size:14px;font-family:OpenSans;-inkscape-font-specification:OpenSans-Regular;writing-mode:lr-tb;fill:#1a1a1a;fill-opacity:1;fill-rule:nonzero;stroke:none"
             transform="translate(3.8834546,14)"><tspan
               id="tspan630"
               y="0"
               x="0 7.6835938 20.706055 28.492188 34.207031 39.149414 42.786133 49.451172 57.907227 66.5 71.442383 77.157227 84.943359 91.608398 96.550781 100.1875 108.64355 117.23633 120.87305 129.45215 132.99316 141.44922 148.11426 155.46289 162.12793 170.7207 178.50684 182.04785 190.64062 194.27734 202.11816">Smart contract on blockchain Y</tspan></text>
<text
             id="text636"
             style="font-variant:normal;font-weight:normal;font-size:14px;font-family:OpenSans;-inkscape-font-specification:OpenSans-Regular;writing-mode:lr-tb;fill:#1a1a1a;fill-opacity:1;fill-rule:nonzero;stroke:none"
             transform="translate(0.73208737,34)"><tspan
               id="tspan634"
               y="0"
               x="0 4.9423828 13.535156 21.321289 26.263672 29.900391 36.914062 44.768555 50.483398 54.024414 62.30957 70.164062 76.842773 80.479492 84.020508 92.613281 99.27832 107.73438 120.75684 124.29785 132.89062 140.56055 144.19727 157.21973 165.07422 171.75293 178.43164 186.21777 193.8877 201.74219">that veries incoming messages</tspan></text>
</g><g
           transform="matrix(2.1876314,0,0,2.1882176,1188.4939,1540.4063)"
           id="g638"><text
             id="text642"
             style="font-variant:normal;font-weight:normal;font-size:14px;font-family:OpenSans;-inkscape-font-specification:OpenSans-Regular;writing-mode:lr-tb;fill:#1a1a1a;fill-opacity:1;fill-rule:nonzero;stroke:none"
             transform="translate(36.235081,14)"><tspan
               id="tspan640"
               y="0"
               x="0 10.90332 20.398438 24.90332 24.90332 31.568359 40.161133 47.947266 51.488281 60.081055 63.717773 70.382812 78.838867 87.431641 92.374023 100.16016 103.70117 112.29395 120.14844 125.86328 129.5 134.44238 143.03516 150.82129 155.76367">O- chain container that</tspan></text>
<text
             id="text646"
             style="font-variant:normal;font-weight:normal;font-size:14px;font-family:OpenSans;-inkscape-font-specification:OpenSans-Regular;writing-mode:lr-tb;fill:#1a1a1a;fill-opacity:1;fill-rule:nonzero;stroke:none"
             transform="translate(6.7858624,34)"><tspan
               id="tspan644"
               y="0"
               x="0 4.9423828 10.657227 18.443359 27.036133 33.714844 38.458984 46.915039 52.629883 65.652344 72.331055 75.967773 83.753906 92.34668 100.92578 104.5625 110.27734 118.7334 127.32617 132.26855 140.12305 146.80176 150.43848 163.46094 171.31543 177.99414 184.67285 192.45898 200.12891 207.9834">transforms and routes messages</tspan></text>
</g></g></g><g
       id="g648"><g
         clip-path="url(#clipPath654)"
         id="g650"><g
           clip-path="url(#clipPath660)"
           id="g656"><g
             clip-path="url(#clipPath666)"
             id="g662"><g
               clip-path="url(#clipPath672)"
               id="g668"><g
                 transform="matrix(2.1876314,0,0,2.1882176,1029.724,2109.125)"
                 id="g674"><path
                   id="path676"
                   style="fill:#000000;fill-opacity:1;fill-rule:nonzero;stroke:none"
                   d="m 29.200001,401.8494 h -4 v -1 h 4 z m -9,0 h -4 v -1 h 4 z m -9,0 H 7.2000008 v -1 h 4.0000002 z m -9.0000002,0 H -0.5 v -2.29999 h 1 v 1.79999 H 0 v -0.5 H 2.2000008 Z M -0.5,394.54941 v -4 h 1 v 4 z m 0,-9 v -4 h 1 v 4 z m 0,-9 v -4 h 1 v 4 z m 0,-9 v -4 h 1 v 4 z m 0,-9 v -4 h 1 v 4 z m 0,-9 v -4 h 1 v 4 z m 0,-9 v -4.00003 h 1 v 4.00003 z m 0,-9.00003 v -4 h 1 v 4 z m 0,-9 v -4 h 1 v 4 z m 0,-9 v -4 h 1 v 4 z m 0,-9 v -4 h 1 v 4 z m 0,-9 v -4 h 1 v 4 z m 0,-8.99997 v -4.00003 h 1 v 4.00003 z m 0,-9.00003 v -4 h 1 v 4 z m 0,-9 v -4 h 1 v 4 z m 0,-9 v -3.99999 h 1 v 3.99999 z m 0,-8.99999 v -4 h 1 v 4 z m 0,-9 v -4 h 1 v 4 z m 0,-9 v -4 h 1 v 4 z m 0,-9 v -4 h 1 v 4 z m 0,-9 v -4 h 1 v 4 z m 0,-9 v -4 h 1 v 4 z m 0,-9 v -4 h 1 v 4 z m 0,-9 v -3.99998 h 1 v 3.99998 z m 0,-8.99998 v -4.00003 h 1 v 4.00003 z m 0,-9.00003 v -3.99999 h 1 v 3.99999 z m 0,-8.99999 v -4 h 1 v 4 z m 0,-9 v -4 h 1 v 4 z m 0,-8.99998 v -4 h 1 v 4 z m 0,-9 v -4 h 1 v 4 z m 0,-9 v -4 h 1 v 4 z m 0,-9 v -4 h 1 v 4 z m 0,-9 v -4 h 1 v 4 z m 0,-9.000002 v -4 h 1 v 4 z m 0,-9 v -4 h 1 v 4 z m 0,-9 v -4 h 1 v 4 z m 0,-9 v -4 h 1 v 4 z m 0,-9 v -4 h 1 v 4 z m 0,-9 v -4 h 1 v 4 z m 0,-9 v -4 h 1 v 4 z m 0,-9 v -4 h 1 v 4 z m 0,-9 v -4 h 1 v 4 z m 0,-9 v -4 h 1 v 4 z m 0,-9 v -4 h 1 v 4 z M 1.450591,-0.5 h 3.9999972 v 1 H 1.450591 Z m 8.999993,0 h 3.999999 v 1 h -3.999999 z" /></g></g></g></g></g></g><g
       id="g678"><g
         clip-path="url(#clipPath684)"
         id="g680"><g
           transform="matrix(2.1876314,0,0,2.1882176,1095.3529,2109.125)"
           id="g686"><path
             id="path688"
             style="fill:#000000;fill-opacity:1;fill-rule:nonzero;stroke:none"
             d="M -16,-4 0,0 -16,4 Z" /></g><g
           transform="matrix(2.1876314,0,0,2.1882176,793.45984,2539.4919)"
           id="g690"><text
             id="text694"
             style="font-variant:normal;font-weight:normal;font-size:14px;font-family:OpenSans;-inkscape-font-specification:OpenSans-Regular;writing-mode:lr-tb;fill:#000000;fill-opacity:1;fill-rule:nonzero;stroke:none"
             transform="translate(0,14)"><tspan
               id="tspan692"
               y="0"
               x="0 7.6835938 15.538086 24.130859 32.709961 39.388672 43.025391 48.740234 56.594727 63.259766 71.114258 74.655273 83.234375 88.176758 91.813477 98.478516 106.93457 115.52734 123.8125 129.52734 142.5498 150.33594 155.27832 158.81934 167.27539 175.86816 179.50488 188.09766 194.77637 198.31738 206.91016">Sends receipt conrmation using</tspan></text>
</g></g></g><g
       id="g696"><g
         clip-path="url(#clipPath702)"
         id="g698"><g
           clip-path="url(#clipPath708)"
           id="g704"><g
             clip-path="url(#clipPath714)"
             id="g710"><g
               clip-path="url(#clipPath720)"
               id="g716"><g
                 transform="matrix(2.1876314,0,0,2.1882176,1029.724,1564.625)"
                 id="g722"><path
                   id="path724"
                   style="fill:#000000;fill-opacity:1;fill-rule:nonzero;stroke:none"
                   d="m 29.200001,225.38489 h -4 v -1 h 4 z m -9,0 h -4 v -1 h 4 z m -9,0 H 7.2000008 v -1 h 4.0000002 z m -9.0000002,0 H -0.5 v -2.30001 h 1 v 1.80001 H 0 v -0.5 H 2.2000008 Z M -0.5,218.08488 v -4 h 1 v 4 z m 0,-9 v -4 h 1 v 4 z m 0,-9 v -4 h 1 v 4 z m 0,-9 v -4 h 1 v 4 z m 0,-9 v -4 h 1 v 4 z m 0,-9 v -4 h 1 v 4 z m 0,-8.99998 v -4.00002 h 1 v 4.00002 z m 0,-9.00002 v -4 h 1 v 4 z m 0,-9 v -4 h 1 v 4 z m 0,-9 v -4 h 1 v 4 z m 0,-9 v -3.99999 h 1 v 3.99999 z m 0,-8.99999 v -4 h 1 v 4 z m 0,-9 v -4.00001 h 1 v 4.00001 z m 0,-9 v -4.000005 h 1 v 4.000005 z m 0,-9.000005 v -4 h 1 v 4 z m 0,-9 v -4 h 1 v 4 z m 0,-9 v -4 h 1 v 4 z m 0,-9 v -4 h 1 v 4 z m 0,-9 v -4 h 1 v 4 z m 0,-9 v -4 h 1 v 4 z m 0,-9 v -4 h 1 v 4 z m 0,-9 v -4 h 1 v 4 z m 0,-9 v -4 h 1 v 4 z m 0,-9 V 7.0848846 h 1 v 4.0000004 z m 0,-9.0000004 V -0.5 h 2.4151157 v 1 L 0,0.5 V 0 H 0.5 V 2.0848846 Z M 6.9151173,-0.5 h 4.0000007 v 1 H 6.9151173 Z m 9.0000017,0 h 1.284882 v 1 h -1.284882 z" /></g></g></g></g></g></g><g
       id="g726"><g
         clip-path="url(#clipPath732)"
         id="g728"><g
           transform="matrix(2.1876314,0,0,2.1882176,1095.3529,1564.625)"
           id="g734"><path
             id="path736"
             style="fill:#000000;fill-opacity:1;fill-rule:nonzero;stroke:none"
             d="M -16,-4 0,0 -16,4 Z" /></g><g
           transform="matrix(2.1876314,0,0,2.1882176,817.52374,1801.9207)"
           id="g738"><text
             id="text742"
             style="font-variant:normal;font-weight:normal;font-size:14px;font-family:OpenSans;-inkscape-font-specification:OpenSans-Regular;writing-mode:lr-tb;fill:#000000;fill-opacity:1;fill-rule:nonzero;stroke:none"
             transform="translate(0,14)"><tspan
               id="tspan740"
               y="0"
               x="0 7.6835938 15.538086 24.130859 32.709961 39.388672 43.025391 48.740234 56.594727 63.259766 71.114258 74.655273 83.234375 88.176758 91.813477 98.478516 106.93457 115.52734 123.8125 129.52734 142.5498 150.33594 155.27832 158.81934 167.27539 175.86816 179.50488 184.44727">Sends receipt conrmation to</tspan></text>
</g><g
           transform="matrix(2.1876314,0,0,2.1882176,1029.724,997.53125)"
           id="g744"><path
             id="path746"
             style="fill:#000000;fill-opacity:1;fill-rule:nonzero;stroke:none"
             d="m 29.200001,242.32219 h -4 v -1 h 4 z m -9,0 h -4 v -1 h 4 z m -9,0 H 7.2000008 v -1 h 4.0000002 z m -9.0000002,0 H -0.5 v -2.3 h 1 v 1.8 H 0 v -0.5 H 2.2000008 Z M -0.5,235.02219 v -4 h 1 v 4 z m 0,-9 v -4 h 1 v 4 z m 0,-9 v -4 h 1 v 4 z m 0,-9 v -4 h 1 v 4 z m 0,-9 v -4 h 1 v 4 z m 0,-9 v -4 h 1 v 4 z m 0,-9 v -4 h 1 v 4 z m 0,-9 v -4 h 1 v 4 z m 0,-9 v -4 h 1 v 4 z m 0,-9 v -4 h 1 v 4 z m 0,-9 v -4 h 1 v 4 z m 0,-9 v -4 h 1 v 4 z m 0,-9 v -4 h 1 v 4 z m 0,-9.00001 v -3.99999 h 1 v 3.99999 z m 0,-8.99999 v -4 h 1 v 4 z m 0,-9 v -4.000004 h 1 v 4.000004 z m 0,-9.000004 v -4 h 1 v 4 z m 0,-9 v -4 h 1 v 4 z m 0,-9 v -4 h 1 v 4 z m 0,-9 v -4 h 1 v 4 z m 0,-9 v -4 h 1 v 4 z m 0,-9 v -4 h 1 v 4 z m 0,-9 v -4 h 1 v 4 z m 0,-9 v -4 h 1 v 4 z m 0,-9 v -4 h 1 v 4 z m 0,-9 V 6.0221863 h 1 v 3.9999997 z m 0,-8.9999997 V -0.5 h 3.4778116 v 1 L 0,0.5 V 0 H 0.5 V 1.0221863 Z M 7.9778085,-0.5 h 3.9999965 v 1 H 7.9778085 Z m 8.9999935,0 h 0.222199 v 1 h -0.222199 z" /></g><g
           transform="matrix(2.1876314,0,0,2.1882176,1095.3529,997.53125)"
           id="g748"><path
             id="path750"
             style="fill:#000000;fill-opacity:1;fill-rule:nonzero;stroke:none"
             d="M -16,-4 0,0 -16,4 Z" /></g></g></g></g></svg>