<?xml version="1.0" encoding="UTF-8" standalone="no"?>
<!DOCTYPE svg PUBLIC "-//W3C//DTD SVG 1.1//EN" "http://www.w3.org/Graphics/SVG/1.1/DTD/svg11.dtd">
<svg xmlns="http://www.w3.org/2000/svg" xmlns:xlink="http://www.w3.org/1999/xlink" version="1.1" width="612pt" height="786.95999pt" viewBox="0 0 612 786.95999">
<g enable-background="new">
<clipPath id="cp0">
<path transform="matrix(.24,0,0,.24,0,0)" d="M 0 0 L 2550 0 L 2550 3278.125 L 0 3278.125 Z " fill-rule="evenodd"/>
</clipPath>
<g clip-path="url(#cp0)">
<path transform="matrix(.75,0,0,.75,0,0)" d="M 0 0 L 816 0 L 816 1050 L 0 1050 Z " fill="#ffffff"/>
</g>
<clipPath id="cp1">
<path transform="matrix(.24,0,0,.24,0,0)" d="M 0 0 L 2550 0 L 2550 3278.125 L 0 3278.125 Z "/>
</clipPath>
<g clip-path="url(#cp1)">
<clipPath id="cp2">
<path transform="matrix(.24,0,0,.24,0,0)" d="M 0 0 L 2550 0 L 2550 3281.25 L 0 3281.25 Z "/>
</clipPath>
<g clip-path="url(#cp2)">
<clipPath id="cp3">
<path transform="matrix(.24,0,0,.24,0,0)" d="M 1096.4443 331.875 L 1781.9778 331.875 L 1781.9778 617.7949 L 1096.4443 617.7949 Z "/>
</clipPath>
<g clip-path="url(#cp3)">
<clipPath id="cp4">
<path transform="matrix(.24,0,0,.24,0,0)" d="M 1096.4443 560.61099 L 1096.4443 389.059 C 1096.4442 381.4759 1097.8945 374.18144 1100.7953 367.1756 C 1103.6959 360.16978 1107.8262 353.9858 1113.186 348.62379 C 1118.5458 343.26176 1124.727 339.12977 1131.73 336.22785 C 1138.7329 333.32597 1146.0243 331.875 1153.6043 331.875 L 1724.8179 331.875 C 1732.3976 331.875 1739.689 333.32597 1746.6918 336.22785 C 1753.6946 339.12977 1759.876 343.26176 1765.2359 348.62379 C 1770.5956 353.9858 1774.7257 360.16978 1777.6265 367.1756 C 1780.5272 374.18144 1781.9777 381.4759 1781.9778 389.059 L 1781.9778 560.61099 C 1781.9777 568.194 1780.5274 575.4884 1777.6266 582.4942 C 1774.7258 589.50009 1770.5957 595.684 1765.236 601.0461 C 1759.876 606.4081 1753.6946 610.5401 1746.6918 613.442 C 1739.689 616.34396 1732.3976 617.79489 1724.8179 617.7949 L 1153.6043 617.7949 C 1146.0243 617.79489 1138.7329 616.34396 1131.73 613.442 C 1124.727 610.5401 1118.5458 606.4081 1113.186 601.0461 C 1107.8262 595.684 1103.6959 589.50009 1100.7953 582.49429 C 1097.8945 575.4884 1096.4442 568.194 1096.4443 560.61099 Z "/>
</clipPath>
<g clip-path="url(#cp4)">
<path transform="matrix(.52502748,0,0,.52524867,263.14665,79.65)" stroke-width="4" stroke-linecap="butt" stroke-miterlimit="4" stroke-linejoin="miter" fill="none" stroke="#1a1a1a" d="M 26.128878 0 L 287.2415 0 C 288.95713 0 290.65629 .16735298 292.33894 .502059 C 294.0216 .836765 295.65547 1.3323927 297.2405 1.9889422 C 298.82557 2.6454917 300.33137 3.4503473 301.75785 4.4035098 C 303.18437 5.356672 304.50419 6.4398257 305.71736 7.652971 C 306.93049 8.866116 308.01365 10.185943 308.9668 11.61245 C 309.91996 13.038958 310.7248 14.544737 311.38139 16.129788 C 312.03794 17.714838 312.53358 19.348704 312.8683 21.031384 C 313.20298 22.714066 313.37034 24.41323 313.37037 26.128878 L 313.37037 104.5155 C 313.37034 106.23114 313.20298 107.9303 312.8683 109.61298 C 312.53358 111.29566 312.03794 112.92953 311.38139 114.51457 C 310.7248 116.09962 309.91993 117.6054 308.96678 119.031909 C 308.0136 120.45842 306.93049 121.77825 305.71736 122.991397 C 304.50419 124.20454 303.18437 125.28768 301.75785 126.240848 C 300.33137 127.19401 298.8256 127.99887 297.24055 128.65543 C 295.6555 129.31197 294.02165 129.8076 292.33897 130.14232 C 290.65629 130.47702 288.95713 130.64437 287.2415 130.64438 L 26.128878 130.64438 C 24.41323 130.64437 22.714066 130.47702 21.031386 130.14232 C 19.348704 129.8076 17.714838 129.31197 16.129788 128.65543 C 14.544737 127.99888 13.038958 127.194019 11.61245 126.24085 C 10.185943 125.2877 8.866116 124.204547 7.652971 122.9914 C 6.4398257 121.77825 5.356672 120.45842 4.403509 119.03191 C 3.450347 117.60541 2.6454917 116.09963 1.9889422 114.51458 C 1.3323927 112.92953 .836765 111.29566 .502059 109.61298 C .16735298 107.9303 0 106.23114 0 104.5155 L 0 26.128878 C 0 24.41323 .16735298 22.714066 .502059 21.031386 C .836765 19.348704 1.3323927 17.714838 1.9889422 16.129788 C 2.6454917 14.544737 3.4503473 13.038958 4.4035098 11.61245 C 5.356672 10.185943 6.4398257 8.866116 7.652971 7.652971 C 8.866116 6.4398257 10.185943 5.356672 11.61245 4.403509 C 13.038958 3.450347 14.544737 2.6454917 16.129788 1.9889422 C 17.714838 1.3323927 19.348704 .836765 21.031384 .502059 C 22.714066 .16735298 24.41323 0 26.128878 0 Z "/>
</g>
</g>
</g>
</g>
<clipPath id="cp5">
<path transform="matrix(.24,0,0,.24,0,0)" d="M 0 0 L 2550 0 L 2550 3278.125 L 0 3278.125 Z " fill-rule="evenodd"/>
</clipPath>
<g clip-path="url(#cp5)">
<g id="Layer-1" data-name="P">
</g>
<text fill="#1a1a1a" xml:space="preserve" transform="matrix(.52502748 0 0 .52524867 266.57624 83.08104)" font-size="24" font-family="OpenSans"><tspan y="49.789976" x="49.94593 71.617938 85.08194 96.52994 107.977939 121.32194 134.47394 140.54595 155.28195 168.43396 174.67397 190.22597 200.01798 214.51398 227.11399 240.57799">Messaging Broker</tspan></text>
</g>
<clipPath id="cp6">
<path transform="matrix(.24,0,0,.24,0,0)" d="M 0 0 L 2550 0 L 2550 3278.125 L 0 3278.125 Z "/>
</clipPath>
<g clip-path="url(#cp6)">
<clipPath id="cp7">
<path transform="matrix(.24,0,0,.24,0,0)" d="M 0 0 L 2550 0 L 2550 3281.25 L 0 3281.25 Z "/>
</clipPath>
<g clip-path="url(#cp7)">
<clipPath id="cp8">
<path transform="matrix(.24,0,0,.24,0,0)" d="M 1096.4443 2845.3126 L 1781.9778 2845.3126 L 1781.9778 3131.2325 L 1096.4443 3131.2325 Z "/>
</clipPath>
<g clip-path="url(#cp8)">
<clipPath id="cp9">
<path transform="matrix(.24,0,0,.24,0,0)" d="M 1096.4443 3074.0484 L 1096.4443 2902.4967 C 1096.4442 2894.9134 1097.8945 2887.6187 1100.7953 2880.6126 C 1103.6959 2873.607 1107.8262 2867.423 1113.186 2862.061 C 1118.5458 2856.699 1124.727 2852.567 1131.73 2849.6654 C 1138.7329 2846.7635 1146.0243 2845.3126 1153.6043 2845.3126 L 1724.8179 2845.3126 C 1732.3976 2845.3126 1739.689 2846.7635 1746.6918 2849.6654 C 1753.6946 2852.567 1759.876 2856.699 1765.2359 2862.061 C 1770.5956 2867.423 1774.7257 2873.607 1777.6265 2880.6129 C 1780.5272 2887.619 1781.9777 2894.9134 1781.9778 2902.4967 L 1781.9778 3074.0484 C 1781.9777 3081.631 1780.5274 3088.9256 1777.6266 3095.9315 C 1774.7258 3102.9373 1770.5957 3109.1214 1765.236 3114.4835 C 1759.876 3119.8453 1753.6946 3123.977 1746.6918 3126.8792 C 1739.689 3129.781 1732.3976 3131.2322 1724.8179 3131.2325 L 1153.6043 3131.2325 C 1146.0243 3131.2322 1138.7329 3129.781 1131.73 3126.8792 C 1124.727 3123.977 1118.5458 3119.8453 1113.186 3114.4835 C 1107.8262 3109.1214 1103.6959 3102.9373 1100.7953 3095.9312 C 1097.8945 3088.9256 1096.4442 3081.631 1096.4443 3074.0484 Z "/>
</clipPath>
<g clip-path="url(#cp9)">
<path transform="matrix(.52502748,0,0,.52524867,263.14665,682.875)" stroke-width="4" stroke-linecap="butt" stroke-miterlimit="4" stroke-linejoin="miter" fill="none" stroke="#1a1a1a" d="M 26.128878 0 L 287.2415 0 C 288.95713 0 290.65629 .16735298 292.33894 .502059 C 294.0216 .836765 295.65547 1.3323927 297.2405 1.9889422 C 298.82557 2.6454917 300.33137 3.4503473 301.75785 4.4035098 C 303.18437 5.356672 304.50419 6.4398257 305.71736 7.652971 C 306.93049 8.866116 308.01365 10.185943 308.9668 11.61245 C 309.91996 13.038958 310.7248 14.544737 311.38139 16.129788 C 312.03794 17.714838 312.53358 19.348704 312.8683 21.031384 C 313.20298 22.714066 313.37034 24.41323 313.37037 26.128878 L 313.37037 104.5155 C 313.37034 106.23114 313.20298 107.9303 312.8683 109.61298 C 312.53358 111.29566 312.03794 112.92953 311.38139 114.51457 C 310.7248 116.09962 309.91993 117.6054 308.96678 119.031909 C 308.0136 120.45842 306.93049 121.77825 305.71736 122.991397 C 304.50419 124.20454 303.18437 125.28768 301.75785 126.240848 C 300.33137 127.19401 298.8256 127.99887 297.24055 128.65543 C 295.6555 129.31197 294.02165 129.8076 292.33897 130.14232 C 290.65629 130.47702 288.95713 130.64437 287.2415 130.64438 L 26.128878 130.64438 C 24.41323 130.64437 22.714066 130.47702 21.031386 130.14232 C 19.348704 129.8076 17.714838 129.31197 16.129788 128.65543 C 14.544737 127.99888 13.038958 127.194019 11.61245 126.24085 C 10.185943 125.2877 8.866116 124.204547 7.652971 122.9914 C 6.4398257 121.77825 5.356672 120.45842 4.403509 119.03191 C 3.450347 117.60541 2.6454917 116.09963 1.9889422 114.51458 C 1.3323927 112.92953 .836765 111.29566 .502059 109.61298 C .16735298 107.9303 0 106.23114 0 104.5155 L 0 26.128878 C 0 24.41323 .16735298 22.714066 .502059 21.031386 C .836765 19.348704 1.3323927 17.714838 1.9889422 16.129788 C 2.6454917 14.544737 3.4503473 13.038958 4.4035098 11.61245 C 5.356672 10.185943 6.4398257 8.866116 7.652971 7.652971 C 8.866116 6.4398257 10.185943 5.356672 11.61245 4.403509 C 13.038958 3.450347 14.544737 2.6454917 16.129788 1.9889422 C 17.714838 1.3323927 19.348704 .836765 21.031384 .502059 C 22.714066 .16735298 24.41323 0 26.128878 0 Z "/>
</g>
</g>
</g>
</g>
<clipPath id="cp10">
<path transform="matrix(.24,0,0,.24,0,0)" d="M 0 0 L 2550 0 L 2550 3278.125 L 0 3278.125 Z " fill-rule="evenodd"/>
</clipPath>
<g clip-path="url(#cp10)">
<g id="Layer-1" data-name="P">
</g>
<text fill="#1a1a1a" xml:space="preserve" transform="matrix(.52502748 0 0 .52524867 266.57624 686.306)" font-size="24" font-family="OpenSans"><tspan y="66.28997" x="4.4537436 19.645745 25.717745 31.789746 43.213747 56.677747 63.061746 69.30174 86.77374 98.22174 111.685749 121.477748 127.71774 142.21375 150.34975 156.58975 171.30176 177.37377 191.86977 203.29376 215.89377 227.31777 242.05377 255.39777 261.46977 276.20576 282.44575">Alice: User of blockchain Y</tspan></text>
</g>
<clipPath id="cp11">
<path transform="matrix(.24,0,0,.24,0,0)" d="M 0 0 L 2550 0 L 2550 3278.125 L 0 3278.125 Z "/>
</clipPath>
<g clip-path="url(#cp11)">
<clipPath id="cp12">
<path transform="matrix(.24,0,0,.24,0,0)" d="M 0 0 L 2550 0 L 2550 3281.25 L 0 3281.25 Z "/>
</clipPath>
<g clip-path="url(#cp12)">
<clipPath id="cp13">
<path transform="matrix(.24,0,0,.24,0,0)" d="M 1296.2976 2559.4063 L 1582.0972 2559.4063 L 1582.0972 2845.3262 L 1296.2976 2845.3262 Z "/>
</clipPath>
<g clip-path="url(#cp13)">
<clipPath id="cp14">
<path transform="matrix(.24,0,0,.24,0,0)" d="M 1296.2976 2702.3663 C 1296.2975 2692.9793 1297.2128 2683.6827 1299.0433 2674.4759 C 1300.8738 2665.2694 1303.5844 2656.3299 1307.175 2647.6575 C 1310.7658 2638.985 1315.1676 2630.7467 1320.3804 2622.9417 C 1325.5933 2615.1368 1331.5171 2607.9156 1338.1519 2601.278 C 1344.7865 2594.6407 1352.0046 2588.714 1359.8063 2583.499 C 1367.6079 2578.284 1375.843 2573.8804 1384.5119 2570.288 C 1393.1806 2566.696 1402.1162 2563.9844 1411.319 2562.153 C 1420.5216 2560.3218 1429.8145 2559.4063 1439.1974 2559.4063 C 1448.5802 2559.4063 1457.8729 2560.3218 1467.0757 2562.153 C 1476.2783 2563.9844 1485.214 2566.696 1493.8827 2570.288 C 1502.5514 2573.8804 1510.7865 2578.284 1518.5881 2583.499 C 1526.3898 2588.714 1533.608 2594.6407 1540.2427 2601.278 C 1546.8773 2607.9156 1552.8012 2615.1365 1558.014 2622.9415 C 1563.2268 2630.7464 1567.6287 2638.985 1571.2195 2647.6575 C 1574.8102 2656.3299 1577.5208 2665.2694 1579.3512 2674.4759 C 1581.1817 2683.6827 1582.097 2692.9793 1582.0972 2702.3663 C 1582.097 2711.7532 1581.1818 2721.0499 1579.3513 2730.256 C 1577.5208 2739.4627 1574.8102 2748.4019 1571.2195 2757.074 C 1567.6287 2765.746 1563.2268 2773.9849 1558.014 2781.79 C 1552.8012 2789.595 1546.8773 2796.8162 1540.2427 2803.4539 C 1533.608 2810.0914 1526.3898 2816.0174 1518.5881 2821.2325 C 1510.7865 2826.4476 1502.5513 2830.8514 1493.8826 2834.4437 C 1485.2139 2838.0357 1476.2782 2840.7476 1467.0757 2842.5789 C 1457.8729 2844.4102 1448.5802 2845.326 1439.1974 2845.3262 C 1429.8145 2845.326 1420.5216 2844.41 1411.319 2842.5787 C 1402.1162 2840.7474 1393.1806 2838.0357 1384.5119 2834.4437 C 1375.843 2830.8514 1367.6079 2826.4478 1359.8063 2821.2327 C 1352.0046 2816.0177 1344.7865 2810.0914 1338.1519 2803.4539 C 1331.5171 2796.8162 1325.5933 2789.595 1320.3804 2781.79 C 1315.1676 2773.9849 1310.7658 2765.746 1307.175 2757.074 C 1303.5844 2748.4019 1300.8738 2739.4627 1299.0433 2730.256 C 1297.2128 2721.0499 1296.2975 2711.7532 1296.2976 2702.3663 Z "/>
</clipPath>
<g clip-path="url(#cp14)">
<path transform="matrix(.52502748,0,0,.52524867,311.11143,614.2575)" stroke-width="4" stroke-linecap="butt" stroke-miterlimit="4" stroke-linejoin="miter" fill="none" stroke="#1a1a1a" d="M 130.64438 65.32219 C 130.6444 67.46157 130.53954 69.5958 130.32984 71.724887 C 130.12014 73.853969 129.8066 75.96764 129.38922 78.06591 C 128.97187 80.164188 128.45267 82.23695 127.83163 84.28422 C 127.210597 86.33148 126.49072 88.343379 125.67201 90.3199 C 124.85331 92.29644 123.93971 94.22809 122.93122 96.11486 C 121.922718 98.00162 120.82418 99.83441 119.635608 101.61324 C 118.44703 103.39208 117.17413 105.10838 115.816928 106.762149 C 114.45971 108.41592 113.02472 109.99918 111.511959 111.51195 C 109.99919 113.02472 108.415927 114.45971 106.76215 115.81692 C 105.10838 117.174129 103.39209 118.447017 101.61326 119.63559 C 99.83443 120.82417 98.001628 121.922718 96.11485 122.931209 C 94.22809 123.939708 92.29644 124.8533 90.3199 125.672008 C 88.343379 126.49072 86.33149 127.210597 84.284229 127.83162 C 82.23696 128.45267 80.164188 128.97187 78.06591 129.38922 C 75.96764 129.8066 73.85397 130.12014 71.72489 130.32984 C 69.59581 130.53954 67.46157 130.64438 65.32219 130.64438 C 63.18281 130.64438 61.04858 130.53954 58.919496 130.32984 C 56.790414 130.12014 54.676736 129.8066 52.578458 129.38922 C 50.480188 128.97187 48.407419 128.45267 46.360158 127.83163 C 44.312898 127.210597 42.301004 126.49072 40.324468 125.67201 C 38.34794 124.85331 36.41629 123.93971 34.529527 122.93122 C 32.642759 121.922718 30.809956 120.82418 29.031123 119.635608 C 27.252293 118.44703 25.535996 117.17413 23.882229 115.816928 C 22.228466 114.45971 20.645199 113.02472 19.132426 111.511959 C 17.619654 109.99919 16.184664 108.415927 14.827454 106.76215 C 13.470244 105.10838 12.1973509 103.39209 11.008773 101.61326 C 9.820196 99.83443 8.721659 98.001628 7.7131607 96.11485 C 6.704663 94.22809 5.791061 92.29644 4.972355 90.3199 C 4.153649 88.343379 3.4337812 86.33149 2.8127514 84.284229 C 2.1917215 82.23696 1.67252 80.164188 1.2551473 78.06591 C .83777466 75.96764 .52424028 73.85397 .31454418 71.72489 C .10484806 69.59581 0 67.46157 0 65.32219 C 0 63.18281 .10484806 61.04858 .31454418 58.919496 C .52424028 56.790414 .83777466 54.676736 1.2551473 52.578458 C 1.67252 50.480188 2.1917215 48.407419 2.8127514 46.360158 C 3.4337812 44.312898 4.153649 42.301004 4.972355 40.324468 C 5.791061 38.34794 6.704663 36.41629 7.7131607 34.529527 C 8.721659 32.642759 9.820196 30.809956 11.008773 29.031123 C 12.1973509 27.252293 13.470244 25.535996 14.827454 23.882229 C 16.184664 22.228466 17.619654 20.645199 19.132426 19.132426 C 20.645199 17.619654 22.228466 16.184664 23.882229 14.827454 C 25.535994 13.470244 27.25229 12.1973509 29.03112 11.008773 C 30.809954 9.820196 32.642755 8.721659 34.529523 7.7131607 C 36.41629 6.704663 38.34794 5.791061 40.324468 4.972355 C 42.301004 4.153649 44.3129 3.4337812 46.36016 2.8127514 C 48.40742 2.1917215 50.480188 1.67252 52.578458 1.2551473 C 54.676736 .83777466 56.790414 .52424028 58.919496 .31454418 C 61.04858 .10484806 63.18281 0 65.32219 0 C 67.46157 0 69.5958 .10484806 71.724887 .31454418 C 73.853969 .52424028 75.96764 .83777466 78.06591 1.2551473 C 80.164188 1.67252 82.23695 2.1917215 84.28422 2.8127514 C 86.33148 3.4337812 88.343379 4.153649 90.3199 4.972355 C 92.29644 5.791061 94.22809 6.704663 96.11486 7.7131607 C 98.00162 8.721659 99.83441 9.820196 101.61324 11.008773 C 103.39208 12.1973509 105.10838 13.470244 106.762149 14.827454 C 108.41592 16.184664 109.99918 17.619654 111.51195 19.132426 C 113.02472 20.645199 114.45971 22.228466 115.81692 23.882229 C 117.174129 25.535994 118.447017 27.25229 119.63559 29.03112 C 120.82417 30.809954 121.922718 32.642755 122.931209 34.529523 C 123.939708 36.41629 124.8533 38.34794 125.672008 40.324468 C 126.49072 42.301004 127.210597 44.3129 127.83162 46.36016 C 128.45267 48.40742 128.97187 50.480188 129.38922 52.578458 C 129.8066 54.676736 130.12014 56.790414 130.32984 58.919496 C 130.53954 61.04858 130.6444 63.18281 130.64438 65.32219 Z "/>
</g>
</g>
</g>
</g>
<clipPath id="cp15">
<path transform="matrix(.24,0,0,.24,0,0)" d="M 111.67171 690.59378 L 2413.9986 690.59378 L 2413.9986 2416.4454 L 111.67171 2416.4454 Z " fill-rule="evenodd"/>
</clipPath>
<g clip-path="url(#cp15)">
<path transform="matrix(.52502748,0,0,.52524867,26.801209,165.7425)" d="M 16 -2 L 24 -2 L 24 2 L 16 2 L 16 -2 Z M 32 -2 L 40 -2 L 40 2 L 32 2 L 32 -2 Z M 48 -2 L 56 -2 L 56 2 L 48 2 L 48 -2 Z M 64 -2 L 72 -2 L 72 2 L 64 2 L 64 -2 Z M 80 -2 L 88 -2 L 88 2 L 80 2 L 80 -2 Z M 96 -2 L 104 -2 L 104 2 L 96 2 L 96 -2 Z M 112 -2 L 120 -2 L 120 2 L 112 2 L 112 -2 Z M 128 -2 L 136 -2 L 136 2 L 128 2 L 128 -2 Z M 144 -2 L 152 -2 L 152 2 L 144 2 L 144 -2 Z M 160 -2 L 168 -2 L 168 2 L 160 2 L 160 -2 Z M 176 -2 L 184 -2 L 184 2 L 176 2 L 176 -2 Z M 192 -2 L 200 -2 L 200 2 L 192 2 L 192 -2 Z M 208 -2 L 216 -2 L 216 2 L 208 2 L 208 -2 Z M 224 -2 L 232 -2 L 232 2 L 224 2 L 224 -2 Z M 240 -2 L 248 -2 L 248 2 L 240 2 L 240 -2 Z M 256 -2 L 264 -2 L 264 2 L 256 2 L 256 -2 Z M 272 -2 L 280 -2 L 280 2 L 272 2 L 272 -2 Z M 288 -2 L 296 -2 L 296 2 L 288 2 L 288 -2 Z M 304 -2 L 312 -2 L 312 2 L 304 2 L 304 -2 Z M 320 -2 L 328 -2 L 328 2 L 320 2 L 320 -2 Z M 336 -2 L 344 -2 L 344 2 L 336 2 L 336 -2 Z M 352 -2 L 360 -2 L 360 2 L 352 2 L 352 -2 Z M 368 -2 L 376 -2 L 376 2 L 368 2 L 368 -2 Z M 384 -2 L 392 -2 L 392 2 L 384 2 L 384 -2 Z M 400 -2 L 408 -2 L 408 2 L 400 2 L 400 -2 Z M 416 -2 L 424 -2 L 424 2 L 416 2 L 416 -2 Z M 432 -2 L 440 -2 L 440 2 L 432 2 L 432 -2 Z M 448 -2 L 456 -2 L 456 2 L 448 2 L 448 -2 Z M 464 -2 L 472 -2 L 472 2 L 464 2 L 464 -2 Z M 480 -2 L 488 -2 L 488 2 L 480 2 L 480 -2 Z M 496 -2 L 504 -2 L 504 2 L 496 2 L 496 -2 Z M 512 -2 L 520 -2 L 520 2 L 512 2 L 512 -2 Z M 528 -2 L 536 -2 L 536 2 L 528 2 L 528 -2 Z M 544 -2 L 552 -2 L 552 2 L 544 2 L 544 -2 Z M 560 -2 L 568 -2 L 568 2 L 560 2 L 560 -2 Z M 576 -2 L 584 -2 L 584 2 L 576 2 L 576 -2 Z M 592 -2 L 600 -2 L 600 2 L 592 2 L 592 -2 Z M 608 -2 L 616 -2 L 616 2 L 608 2 L 608 -2 Z M 624 -2 L 632 -2 L 632 2 L 624 2 L 624 -2 Z M 640 -2 L 648 -2 L 648 2 L 640 2 L 640 -2 Z M 656 -2 L 664 -2 L 664 2 L 656 2 L 656 -2 Z M 672 -2 L 680 -2 L 680 2 L 672 2 L 672 -2 Z M 688 -2 L 696 -2 L 696 2 L 688 2 L 688 -2 Z M 704 -2 L 712 -2 L 712 2 L 704 2 L 704 -2 Z M 720 -2 L 728 -2 L 728 2 L 720 2 L 720 -2 Z M 736 -2 L 744 -2 L 744 2 L 736 2 L 736 -2 Z M 752 -2 L 760 -2 L 760 2 L 752 2 L 752 -2 Z M 768 -2 L 776 -2 L 776 2 L 768 2 L 768 -2 Z M 784 -2 L 792 -2 L 792 2 L 784 2 L 784 -2 Z M 800 -2 L 808 -2 L 808 2 L 800 2 L 800 -2 Z M 816 -2 L 824 -2 L 824 2 L 816 2 L 816 -2 Z M 832 -2 L 840 -2 L 840 2 L 832 2 L 832 -2 Z M 848 -2 L 856 -2 L 856 2 L 848 2 L 848 -2 Z M 864 -2 L 872 -2 L 872 2 L 864 2 L 864 -2 Z M 880 -2 L 888 -2 L 888 2 L 880 2 L 880 -2 Z M 896 -2 L 904 -2 L 904 2 L 896 2 L 896 -2 Z M 912 -2 L 920 -2 L 920 2 L 912 2 L 912 -2 Z M 928 -2 L 936 -2 L 936 2 L 928 2 L 928 -2 Z M 944 -2 L 952 -2 L 952 2 L 944 2 L 944 -2 Z M 960 -2 L 968 -2 L 968 2 L 960 2 L 960 -2 Z M 976 -2 L 984 -2 L 984 2 L 976 2 L 976 -2 Z M 992 -2 L 1000 -2 L 1000 2 L 992 2 L 992 -2 Z M 1008 -2 L 1016 -2 L 1016 2 L 1008 2 L 1008 -2 Z M 1024 -2 L 1032 -2 L 1032 2 L 1024 2 L 1024 -2 Z M 1040 -2 L 1048 -2 L 1048 2 L 1040 2 L 1040 -2 Z M 1054.4373 3.562744 L 1054.4373 11.562743 L 1050.4373 11.562743 L 1050.4373 3.562744 L 1054.4373 3.562744 Z M 1054.4373 19.562743 L 1054.4373 27.562743 L 1050.4373 27.562743 L 1050.4373 19.562743 L 1054.4373 19.562743 Z M 1054.4373 35.562746 L 1054.4373 43.56274 L 1050.4373 43.56274 L 1050.4373 35.562746 L 1054.4373 35.562746 Z M 1054.4373 51.56274 L 1054.4373 59.56274 L 1050.4373 59.56274 L 1050.4373 51.56274 L 1054.4373 51.56274 Z M 1054.4373 67.562747 L 1054.4373 75.562747 L 1050.4373 75.562747 L 1050.4373 67.562747 L 1054.4373 67.562747 Z M 1054.4373 83.56274 L 1054.4373 91.56274 L 1050.4373 91.56274 L 1050.4373 83.56274 L 1054.4373 83.56274 Z M 1054.4373 99.56274 L 1054.4373 107.56274 L 1050.4373 107.56274 L 1050.4373 99.56274 L 1054.4373 99.56274 Z M 1054.4373 115.56274 L 1054.4373 123.56274 L 1050.4373 123.56274 L 1050.4373 115.56274 L 1054.4373 115.56274 Z M 1054.4373 131.56275 L 1054.4373 139.56275 L 1050.4373 139.56275 L 1050.4373 131.56275 L 1054.4373 131.56275 Z M 1054.4373 147.56275 L 1054.4373 155.56273 L 1050.4373 155.56273 L 1050.4373 147.56275 L 1054.4373 147.56275 Z M 1054.4373 163.56273 L 1054.4373 171.56273 L 1050.4373 171.56273 L 1050.4373 163.56273 L 1054.4373 163.56273 Z M 1054.4373 179.56273 L 1054.4373 187.56273 L 1050.4373 187.56273 L 1050.4373 179.56273 L 1054.4373 179.56273 Z M 1054.4373 195.56273 L 1054.4373 203.56273 L 1050.4373 203.56273 L 1050.4373 195.56273 L 1054.4373 195.56273 Z M 1054.4373 211.56273 L 1054.4373 219.56273 L 1050.4373 219.56273 L 1050.4373 211.56273 L 1054.4373 211.56273 Z M 1054.4373 227.56273 L 1054.4373 235.56272 L 1050.4373 235.56272 L 1050.4373 227.56273 L 1054.4373 227.56273 Z M 1054.4373 243.56273 L 1054.4373 251.56272 L 1050.4373 251.56272 L 1050.4373 243.56273 L 1054.4373 243.56273 Z M 1054.4373 259.56275 L 1054.4373 267.5627 L 1050.4373 267.5627 L 1050.4373 259.56275 L 1054.4373 259.56275 Z M 1054.4373 275.56275 L 1054.4373 283.5627 L 1050.4373 283.5627 L 1050.4373 275.56275 L 1054.4373 275.56275 Z M 1054.4373 291.56275 L 1054.4373 299.5627 L 1050.4373 299.5627 L 1050.4373 291.56275 L 1054.4373 291.56275 Z M 1054.4373 307.5627 L 1054.4373 315.5627 L 1050.4373 315.5627 L 1050.4373 307.5627 L 1054.4373 307.5627 Z M 1054.4373 323.5627 L 1054.4373 331.5627 L 1050.4373 331.5627 L 1050.4373 323.5627 L 1054.4373 323.5627 Z M 1054.4373 339.5627 L 1054.4373 347.5627 L 1050.4373 347.5627 L 1050.4373 339.5627 L 1054.4373 339.5627 Z M 1054.4373 355.5627 L 1054.4373 363.5627 L 1050.4373 363.5627 L 1050.4373 355.5627 L 1054.4373 355.5627 Z M 1054.4373 371.5627 L 1054.4373 379.5627 L 1050.4373 379.5627 L 1050.4373 371.5627 L 1054.4373 371.5627 Z M 1054.4373 387.5627 L 1054.4373 395.56275 L 1050.4373 395.56275 L 1050.4373 387.5627 L 1054.4373 387.5627 Z M 1054.4373 403.5627 L 1054.4373 411.5627 L 1050.4373 411.5627 L 1050.4373 403.5627 L 1054.4373 403.5627 Z M 1054.4373 419.5627 L 1054.4373 427.56275 L 1050.4373 427.56275 L 1050.4373 419.5627 L 1054.4373 419.5627 Z M 1054.4373 435.5627 L 1054.4373 443.5627 L 1050.4373 443.5627 L 1050.4373 435.5627 L 1054.4373 435.5627 Z M 1054.4373 451.56269 L 1054.4373 459.56269 L 1050.4373 459.56269 L 1050.4373 451.56269 L 1054.4373 451.56269 Z M 1054.4373 467.5627 L 1054.4373 475.5627 L 1050.4373 475.5627 L 1050.4373 467.5627 L 1054.4373 467.5627 Z M 1054.4373 483.56269 L 1054.4373 491.56269 L 1050.4373 491.56269 L 1050.4373 483.56269 L 1054.4373 483.56269 Z M 1054.4373 499.5627 L 1054.4373 507.5627 L 1050.4373 507.5627 L 1050.4373 499.5627 L 1054.4373 499.5627 Z M 1054.4373 515.5627 L 1054.4373 523.5627 L 1050.4373 523.5627 L 1050.4373 515.5627 L 1054.4373 515.5627 Z M 1054.4373 531.56277 L 1054.4373 539.5627 L 1050.4373 539.5627 L 1050.4373 531.56277 L 1054.4373 531.56277 Z M 1054.4373 547.5627 L 1054.4373 555.5627 L 1050.4373 555.5627 L 1050.4373 547.5627 L 1054.4373 547.5627 Z M 1054.4373 563.56277 L 1054.4373 571.5627 L 1050.4373 571.5627 L 1050.4373 563.56277 L 1054.4373 563.56277 Z M 1054.4373 579.5627 L 1054.4373 587.5627 L 1050.4373 587.5627 L 1050.4373 579.5627 L 1054.4373 579.5627 Z M 1054.4373 595.56277 L 1054.4373 603.5627 L 1050.4373 603.5627 L 1050.4373 595.56277 L 1054.4373 595.56277 Z M 1054.4373 611.5627 L 1054.4373 619.5627 L 1050.4373 619.5627 L 1050.4373 611.5627 L 1054.4373 611.5627 Z M 1054.4373 627.5627 L 1054.4373 635.5627 L 1050.4373 635.5627 L 1050.4373 627.5627 L 1054.4373 627.5627 Z M 1054.4373 643.5627 L 1054.4373 651.5627 L 1050.4373 651.5627 L 1050.4373 643.5627 L 1054.4373 643.5627 Z M 1054.4373 659.5627 L 1054.4373 667.5627 L 1050.4373 667.5627 L 1050.4373 659.5627 L 1054.4373 659.5627 Z M 1054.4373 675.5627 L 1054.4373 683.5627 L 1050.4373 683.5627 L 1050.4373 675.5627 L 1054.4373 675.5627 Z M 1054.4373 691.5627 L 1054.4373 699.5627 L 1050.4373 699.5627 L 1050.4373 691.5627 L 1054.4373 691.5627 Z M 1054.4373 707.5627 L 1054.4373 715.5627 L 1050.4373 715.5627 L 1050.4373 707.5627 L 1054.4373 707.5627 Z M 1054.4373 723.5627 L 1054.4373 731.5627 L 1050.4373 731.5627 L 1050.4373 723.5627 L 1054.4373 723.5627 Z M 1054.4373 739.5627 L 1054.4373 747.5627 L 1050.4373 747.5627 L 1050.4373 739.5627 L 1054.4373 739.5627 Z M 1054.4373 755.5627 L 1054.4373 763.5627 L 1050.4373 763.5627 L 1050.4373 755.5627 L 1054.4373 755.5627 Z M 1054.4373 771.5627 L 1054.4373 779.5627 L 1050.4373 779.5627 L 1050.4373 771.5627 L 1054.4373 771.5627 Z M 1054.4373 787.5627 L 1054.4373 790.5871 L 1045.4617 790.5871 L 1045.4617 786.5871 L 1052.4373 786.5871 L 1052.4373 788.5871 L 1050.4373 788.5871 L 1050.4373 787.5627 L 1054.4373 787.5627 Z M 1037.4617 790.5871 L 1029.4617 790.5871 L 1029.4617 786.5871 L 1037.4617 786.5871 L 1037.4617 790.5871 Z M 1021.4617 790.5871 L 1013.4617 790.5871 L 1013.4617 786.5871 L 1021.4617 786.5871 L 1021.4617 790.5871 Z M 1005.4617 790.5871 L 997.4617 790.5871 L 997.4617 786.5871 L 1005.4617 786.5871 L 1005.4617 790.5871 Z M 989.4617 790.5871 L 981.4617 790.5871 L 981.4617 786.5871 L 989.4617 786.5871 L 989.4617 790.5871 Z M 973.4617 790.5871 L 965.4617 790.5871 L 965.4617 786.5871 L 973.4617 786.5871 L 973.4617 790.5871 Z M 957.4617 790.5871 L 949.4617 790.5871 L 949.4617 786.5871 L 957.4617 786.5871 L 957.4617 790.5871 Z M 941.4617 790.5871 L 933.4617 790.5871 L 933.4617 786.5871 L 941.4617 786.5871 L 941.4617 790.5871 Z M 925.4617 790.5871 L 917.4617 790.5871 L 917.4617 786.5871 L 925.4617 786.5871 L 925.4617 790.5871 Z M 909.4617 790.5871 L 901.4617 790.5871 L 901.4617 786.5871 L 909.4617 786.5871 L 909.4617 790.5871 Z M 893.4617 790.5871 L 885.4617 790.5871 L 885.4617 786.5871 L 893.4617 786.5871 L 893.4617 790.5871 Z M 877.4617 790.5871 L 869.4617 790.5871 L 869.4617 786.5871 L 877.4617 786.5871 L 877.4617 790.5871 Z M 861.4617 790.5871 L 853.4617 790.5871 L 853.4617 786.5871 L 861.4617 786.5871 L 861.4617 790.5871 Z M 845.4617 790.5871 L 837.4617 790.5871 L 837.4617 786.5871 L 845.4617 786.5871 L 845.4617 790.5871 Z M 829.4617 790.5871 L 821.4617 790.5871 L 821.4617 786.5871 L 829.4617 786.5871 L 829.4617 790.5871 Z M 813.4617 790.5871 L 805.4617 790.5871 L 805.4617 786.5871 L 813.4617 786.5871 L 813.4617 790.5871 Z M 797.4617 790.5871 L 789.4617 790.5871 L 789.4617 786.5871 L 797.4617 786.5871 L 797.4617 790.5871 Z M 781.4617 790.5871 L 773.4617 790.5871 L 773.4617 786.5871 L 781.4617 786.5871 L 781.4617 790.5871 Z M 765.4617 790.5871 L 757.4617 790.5871 L 757.4617 786.5871 L 765.4617 786.5871 L 765.4617 790.5871 Z M 749.4617 790.5871 L 741.4617 790.5871 L 741.4617 786.5871 L 749.4617 786.5871 L 749.4617 790.5871 Z M 733.4617 790.5871 L 725.4617 790.5871 L 725.4617 786.5871 L 733.4617 786.5871 L 733.4617 790.5871 Z M 717.4617 790.5871 L 709.4617 790.5871 L 709.4617 786.5871 L 717.4617 786.5871 L 717.4617 790.5871 Z M 701.4617 790.5871 L 693.4617 790.5871 L 693.4617 786.5871 L 701.4617 786.5871 L 701.4617 790.5871 Z M 685.4617 790.5871 L 677.4617 790.5871 L 677.4617 786.5871 L 685.4617 786.5871 L 685.4617 790.5871 Z M 669.4617 790.5871 L 661.4617 790.5871 L 661.4617 786.5871 L 669.4617 786.5871 L 669.4617 790.5871 Z M 653.4617 790.5871 L 645.4617 790.5871 L 645.4617 786.5871 L 653.4617 786.5871 L 653.4617 790.5871 Z M 637.4617 790.5871 L 629.4617 790.5871 L 629.4617 786.5871 L 637.4617 786.5871 L 637.4617 790.5871 Z M 621.4617 790.5871 L 613.4617 790.5871 L 613.4617 786.5871 L 621.4617 786.5871 L 621.4617 790.5871 Z M 605.4617 790.5871 L 597.4617 790.5871 L 597.4617 786.5871 L 605.4617 786.5871 L 605.4617 790.5871 Z M 589.4617 790.5871 L 581.4617 790.5871 L 581.4617 786.5871 L 589.4617 786.5871 L 589.4617 790.5871 Z M 573.4617 790.5871 L 565.4617 790.5871 L 565.4617 786.5871 L 573.4617 786.5871 L 573.4617 790.5871 Z M 557.4617 790.5871 L 549.4617 790.5871 L 549.4617 786.5871 L 557.4617 786.5871 L 557.4617 790.5871 Z M 541.4617 790.5871 L 533.4617 790.5871 L 533.4617 786.5871 L 541.4617 786.5871 L 541.4617 790.5871 Z M 525.4617 790.5871 L 517.4617 790.5871 L 517.4617 786.5871 L 525.4617 786.5871 L 525.4617 790.5871 Z M 509.46168 790.5871 L 501.46168 790.5871 L 501.46168 786.5871 L 509.46168 786.5871 L 509.46168 790.5871 Z M 493.46168 790.5871 L 485.46168 790.5871 L 485.46168 786.5871 L 493.46168 786.5871 L 493.46168 790.5871 Z M 477.46168 790.5871 L 469.46168 790.5871 L 469.46168 786.5871 L 477.46168 786.5871 L 477.46168 790.5871 Z M 461.46168 790.5871 L 453.46168 790.5871 L 453.46168 786.5871 L 461.46168 786.5871 L 461.46168 790.5871 Z M 445.46168 790.5871 L 437.46168 790.5871 L 437.46168 786.5871 L 445.46168 786.5871 L 445.46168 790.5871 Z M 429.4616 790.5871 L 421.46168 790.5871 L 421.46168 786.5871 L 429.4616 786.5871 L 429.4616 790.5871 Z M 413.46168 790.5871 L 405.46168 790.5871 L 405.46168 786.5871 L 413.46168 786.5871 L 413.46168 790.5871 Z M 397.46168 790.5871 L 389.46168 790.5871 L 389.46168 786.5871 L 397.46168 786.5871 L 397.46168 790.5871 Z M 381.46168 790.5871 L 373.46168 790.5871 L 373.46168 786.5871 L 381.46168 786.5871 L 381.46168 790.5871 Z M 365.46168 790.5871 L 357.46168 790.5871 L 357.46168 786.5871 L 365.46168 786.5871 L 365.46168 790.5871 Z M 349.46168 790.5871 L 341.46168 790.5871 L 341.46168 786.5871 L 349.46168 786.5871 L 349.46168 790.5871 Z M 333.46168 790.5871 L 325.4616 790.5871 L 325.4616 786.5871 L 333.46168 786.5871 L 333.46168 790.5871 Z M 317.46168 790.5871 L 309.46168 790.5871 L 309.46168 786.5871 L 317.46168 786.5871 L 317.46168 790.5871 Z M 301.46168 790.5871 L 293.46168 790.5871 L 293.46168 786.5871 L 301.46168 786.5871 L 301.46168 790.5871 Z M 285.46168 790.5871 L 277.46168 790.5871 L 277.46168 786.5871 L 285.46168 786.5871 L 285.46168 790.5871 Z M 269.46168 790.5871 L 261.46168 790.5871 L 261.46168 786.5871 L 269.46168 786.5871 L 269.46168 790.5871 Z M 253.46167 790.5871 L 245.46167 790.5871 L 245.46167 786.5871 L 253.46167 786.5871 L 253.46167 790.5871 Z M 237.46167 790.5871 L 229.46167 790.5871 L 229.46167 786.5871 L 237.46167 786.5871 L 237.46167 790.5871 Z M 221.46161 790.5871 L 213.46167 790.5871 L 213.46167 786.5871 L 221.46161 786.5871 L 221.46161 790.5871 Z M 205.46167 790.5871 L 197.46167 790.5871 L 197.46167 786.5871 L 205.46167 786.5871 L 205.46167 790.5871 Z M 189.46167 790.5871 L 181.46167 790.5871 L 181.46167 786.5871 L 189.46167 786.5871 L 189.46167 790.5871 Z M 173.46167 790.5871 L 165.46167 790.5871 L 165.46167 786.5871 L 173.46167 786.5871 L 173.46167 790.5871 Z M 157.46167 790.5871 L 149.46167 790.5871 L 149.46167 786.5871 L 157.46167 786.5871 L 157.46167 790.5871 Z M 141.46167 790.5871 L 133.46167 790.5871 L 133.46167 786.5871 L 141.46167 786.5871 L 141.46167 790.5871 Z M 125.46167 790.5871 L 117.46161 790.5871 L 117.46161 786.5871 L 125.46167 786.5871 L 125.46167 790.5871 Z M 109.46167 790.5871 L 101.46167 790.5871 L 101.46167 786.5871 L 109.46167 786.5871 L 109.46167 790.5871 Z M 93.46167 790.5871 L 85.46167 790.5871 L 85.46167 786.5871 L 93.46167 786.5871 L 93.46167 790.5871 Z M 77.46167 790.5871 L 69.46167 790.5871 L 69.46167 786.5871 L 77.46167 786.5871 L 77.46167 790.5871 Z M 61.46167 790.5871 L 53.46167 790.5871 L 53.46167 786.5871 L 61.46167 786.5871 L 61.46167 790.5871 Z M 45.46167 790.5871 L 37.46167 790.5871 L 37.46167 786.5871 L 45.46167 786.5871 L 45.46167 790.5871 Z M 29.46167 790.5871 L 21.46167 790.5871 L 21.46167 786.5871 L 29.46167 786.5871 L 29.46167 790.5871 Z M 13.46167 790.5871 L 5.46167 790.5871 L 5.46167 786.5871 L 13.46167 786.5871 L 13.46167 790.5871 Z M -2 786.04879 L -2 778.04879 L 2 778.04879 L 2 786.04879 L -2 786.04879 Z M -2 770.04879 L -2 762.04879 L 2 762.04879 L 2 770.04879 L -2 770.04879 Z M -2 754.04879 L -2 746.04879 L 2 746.04879 L 2 754.04879 L -2 754.04879 Z M -2 738.04879 L -2 730.04879 L 2 730.04879 L 2 738.04879 L -2 738.04879 Z M -2 722.04879 L -2 714.04879 L 2 714.04879 L 2 722.04879 L -2 722.04879 Z M -2 706.04879 L -2 698.04879 L 2 698.04879 L 2 706.04879 L -2 706.04879 Z M -2 690.04879 L -2 682.04879 L 2 682.04879 L 2 690.04879 L -2 690.04879 Z M -2 674.04879 L -2 666.04879 L 2 666.04879 L 2 674.04879 L -2 674.04879 Z M -2 658.04879 L -2 650.04879 L 2 650.04879 L 2 658.04879 L -2 658.04879 Z M -2 642.04879 L -2 634.04879 L 2 634.04879 L 2 642.04879 L -2 642.04879 Z M -2 626.04879 L -2 618.04879 L 2 618.04879 L 2 626.04879 L -2 626.04879 Z M -2 610.04879 L -2 602.04879 L 2 602.04879 L 2 610.04879 L -2 610.04879 Z M -2 594.04879 L -2 586.0488 L 2 586.0488 L 2 594.04879 L -2 594.04879 Z M -2 578.04879 L -2 570.0488 L 2 570.0488 L 2 578.04879 L -2 578.04879 Z M -2 562.04879 L -2 554.0488 L 2 554.0488 L 2 562.04879 L -2 562.04879 Z M -2 546.04879 L -2 538.0488 L 2 538.0488 L 2 546.04879 L -2 546.04879 Z M -2 530.0488 L -2 522.0488 L 2 522.0488 L 2 530.0488 L -2 530.0488 Z M -2 514.0488 L -2 506.0488 L 2 506.0488 L 2 514.0488 L -2 514.0488 Z M -2 498.0488 L -2 490.0488 L 2 490.0488 L 2 498.0488 L -2 498.0488 Z M -2 482.0488 L -2 474.0488 L 2 474.0488 L 2 482.0488 L -2 482.0488 Z M -2 466.0488 L -2 458.0488 L 2 458.0488 L 2 466.0488 L -2 466.0488 Z M -2 450.0488 L -2 442.0488 L 2 442.0488 L 2 450.0488 L -2 450.0488 Z M -2 434.0488 L -2 426.0488 L 2 426.0488 L 2 434.0488 L -2 434.0488 Z M -2 418.0488 L -2 410.0488 L 2 410.0488 L 2 418.0488 L -2 418.0488 Z M -2 402.0488 L -2 394.0488 L 2 394.0488 L 2 402.0488 L -2 402.0488 Z M -2 386.04884 L -2 378.04878 L 2 378.04878 L 2 386.04884 L -2 386.04884 Z M -2 370.0488 L -2 362.0488 L 2 362.0488 L 2 370.0488 L -2 370.0488 Z M -2 354.04884 L -2 346.04878 L 2 346.04878 L 2 354.04884 L -2 354.04884 Z M -2 338.0488 L -2 330.0488 L 2 330.0488 L 2 338.0488 L -2 338.0488 Z M -2 322.04884 L -2 314.04878 L 2 314.04878 L 2 322.04884 L -2 322.04884 Z M -2 306.0488 L -2 298.0488 L 2 298.0488 L 2 306.0488 L -2 306.0488 Z M -2 290.04884 L -2 282.0488 L 2 282.0488 L 2 290.04884 L -2 290.04884 Z M -2 274.04878 L -2 266.04884 L 2 266.04884 L 2 274.04878 L -2 274.04878 Z M -2 258.04884 L -2 250.04877 L 2 250.04877 L 2 258.04884 L -2 258.04884 Z M -2 242.04883 L -2 234.04883 L 2 234.04883 L 2 242.04883 L -2 242.04883 Z M -2 226.04883 L -2 218.04883 L 2 218.04883 L 2 226.04883 L -2 226.04883 Z M -2 210.04883 L -2 202.04883 L 2 202.04883 L 2 210.04883 L -2 210.04883 Z M -2 194.04883 L -2 186.04883 L 2 186.04883 L 2 194.04883 L -2 194.04883 Z M -2 178.04883 L -2 170.04883 L 2 170.04883 L 2 178.04883 L -2 178.04883 Z M -2 162.04883 L -2 154.04883 L 2 154.04883 L 2 162.04883 L -2 162.04883 Z M -2 146.04883 L -2 138.04883 L 2 138.04883 L 2 146.04883 L -2 146.04883 Z M -2 130.04883 L -2 122.04883 L 2 122.04883 L 2 130.04883 L -2 130.04883 Z M -2 114.04883 L -2 106.04883 L 2 106.04883 L 2 114.04883 L -2 114.04883 Z M -2 98.04883 L -2 90.04883 L 2 90.04883 L 2 98.04883 L -2 98.04883 Z M -2 82.04883 L -2 74.04883 L 2 74.04883 L 2 82.04883 L -2 82.04883 Z M -2 66.04883 L -2 58.04883 L 2 58.04883 L 2 66.04883 L -2 66.04883 Z M -2 50.04883 L -2 42.04883 L 2 42.04883 L 2 50.04883 L -2 50.04883 Z M -2 34.04883 L -2 26.048829 L 2 26.048829 L 2 34.04883 L -2 34.04883 Z M -2 18.048829 L -2 10.048828 L 2 10.048828 L 2 18.048829 L -2 18.048829 Z M -2 2.0488282 L -2 -2 L 8 -2 L 8 2 L 0 2 L 0 0 L 2 0 L 2 2.0488282 L -2 2.0488282 Z " fill="#1a1a1a"/>
</g>
<clipPath id="cp16">
<path transform="matrix(.24,0,0,.24,0,0)" d="M 0 0 L 2550 0 L 2550 3278.125 L 0 3278.125 Z " fill-rule="evenodd"/>
</clipPath>
<g clip-path="url(#cp16)">
<g id="Layer-1" data-name="P">
</g>
<text fill="#1a1a1a" xml:space="preserve" transform="matrix(.52502748 0 0 .52524867 47.502706 186.45272)" font-size="26" font-family="OpenSans"><tspan y="699.7284" x="0 23.478 38.064004 50.466005 62.868005 77.324008 91.57201 98.15001 114.11401 128.36202 135.12201 151.52802 167.23201 183.19602 195.59803 211.56203 235.74204 250.32804">Messaging Consumer</tspan></text>
</g>
<clipPath id="cp17">
<path transform="matrix(.24,0,0,.24,0,0)" d="M 0 0 L 2550 0 L 2550 3278.125 L 0 3278.125 Z "/>
</clipPath>
<g clip-path="url(#cp17)">
<clipPath id="cp18">
<path transform="matrix(.24,0,0,.24,0,0)" d="M 0 0 L 2550 0 L 2550 3281.25 L 0 3281.25 Z "/>
</clipPath>
<g clip-path="url(#cp18)">
<clipPath id="cp19">
<path transform="matrix(.24,0,0,.24,0,0)" d="M 1096.4443 1384.4375 L 1781.9778 1384.4375 L 1781.9778 1670.3574 L 1096.4443 1670.3574 Z "/>
</clipPath>
<g clip-path="url(#cp19)">
<clipPath id="cp20">
<path transform="matrix(.24,0,0,.24,0,0)" d="M 1096.4443 1613.1735 L 1096.4443 1441.6215 C 1096.4442 1434.0383 1097.8945 1426.7438 1100.7953 1419.7379 C 1103.6959 1412.7322 1107.8262 1406.5482 1113.186 1401.1862 C 1118.5458 1395.8241 1124.727 1391.6921 1131.73 1388.7902 C 1138.7329 1385.8884 1146.0243 1384.4375 1153.6043 1384.4375 L 1724.8179 1384.4375 C 1732.3976 1384.4375 1739.689 1385.8884 1746.6918 1388.7902 C 1753.6946 1391.6921 1759.876 1395.8241 1765.2359 1401.1862 C 1770.5956 1406.5482 1774.7257 1412.7322 1777.6265 1419.7379 C 1780.5272 1426.7438 1781.9777 1434.0383 1781.9778 1441.6215 L 1781.9778 1613.1735 C 1781.9777 1620.7564 1780.5274 1628.0508 1777.6266 1635.0565 C 1774.7258 1642.0624 1770.5957 1648.2463 1765.236 1653.6085 C 1759.876 1658.9705 1753.6946 1663.1023 1746.6918 1666.0043 C 1739.689 1668.9063 1732.3976 1670.3573 1724.8179 1670.3574 L 1153.6043 1670.3574 C 1146.0243 1670.3573 1138.7329 1668.9063 1131.73 1666.0043 C 1124.727 1663.1023 1118.5458 1658.9705 1113.186 1653.6085 C 1107.8262 1648.2463 1103.6959 1642.0624 1100.7953 1635.0565 C 1097.8945 1628.0508 1096.4442 1620.7564 1096.4443 1613.1735 Z "/>
</clipPath>
<g clip-path="url(#cp20)">
<path transform="matrix(.52502748,0,0,.52524867,263.14665,332.26499)" stroke-width="4" stroke-linecap="butt" stroke-miterlimit="4" stroke-linejoin="miter" fill="none" stroke="#1a1a1a" d="M 26.128878 0 L 287.2415 0 C 288.95713 0 290.65629 .16735298 292.33894 .502059 C 294.0216 .836765 295.65547 1.3323927 297.2405 1.9889422 C 298.82557 2.6454917 300.33137 3.4503473 301.75785 4.4035098 C 303.18437 5.356672 304.50419 6.4398257 305.71736 7.652971 C 306.93049 8.866116 308.01365 10.185943 308.9668 11.61245 C 309.91996 13.038958 310.7248 14.544737 311.38139 16.129788 C 312.03794 17.714838 312.53358 19.348704 312.8683 21.031384 C 313.20298 22.714066 313.37034 24.41323 313.37037 26.128878 L 313.37037 104.5155 C 313.37034 106.23114 313.20298 107.9303 312.8683 109.61298 C 312.53358 111.29566 312.03794 112.92953 311.38139 114.51457 C 310.7248 116.09962 309.91993 117.6054 308.96678 119.031909 C 308.0136 120.45842 306.93049 121.77825 305.71736 122.991397 C 304.50419 124.20454 303.18437 125.28768 301.75785 126.240848 C 300.33137 127.19401 298.8256 127.99887 297.24055 128.65543 C 295.6555 129.31197 294.02165 129.8076 292.33897 130.14232 C 290.65629 130.47702 288.95713 130.64437 287.2415 130.64438 L 26.128878 130.64438 C 24.41323 130.64437 22.714066 130.47702 21.031386 130.14232 C 19.348704 129.8076 17.714838 129.31197 16.129788 128.65543 C 14.544737 127.99888 13.038958 127.194019 11.61245 126.24085 C 10.185943 125.2877 8.866116 124.204547 7.652971 122.9914 C 6.4398257 121.77825 5.356672 120.45842 4.403509 119.03191 C 3.450347 117.60541 2.6454917 116.09963 1.9889422 114.51458 C 1.3323927 112.92953 .836765 111.29566 .502059 109.61298 C .16735298 107.9303 0 106.23114 0 104.5155 L 0 26.128878 C 0 24.41323 .16735298 22.714066 .502059 21.031386 C .836765 19.348704 1.3323927 17.714838 1.9889422 16.129788 C 2.6454917 14.544737 3.4503473 13.038958 4.4035098 11.61245 C 5.356672 10.185943 6.4398257 8.866116 7.652971 7.652971 C 8.866116 6.4398257 10.185943 5.356672 11.61245 4.403509 C 13.038958 3.450347 14.544737 2.6454917 16.129788 1.9889422 C 17.714838 1.3323927 19.348704 .836765 21.031384 .502059 C 22.714066 .16735298 24.41323 0 26.128878 0 Z "/>
</g>
</g>
</g>
</g>
<clipPath id="cp21">
<path transform="matrix(.24,0,0,.24,0,0)" d="M 0 0 L 2550 0 L 2550 3278.125 L 0 3278.125 Z " fill-rule="evenodd"/>
</clipPath>
<g clip-path="url(#cp21)">
<g id="Layer-1" data-name="P">
<g id="Layer-2" data-name="Span">
</g>
</g>
<text fill="#1a1a1a" xml:space="preserve" transform="matrix(.52502748 0 0 .52524867 266.57624 335.696)" font-size="24" font-family="OpenSans"><tspan y="49.789976" x="47.256479 68.92848 82.39249 93.840488 105.28848 118.632488 131.78449 137.85649 152.5925 165.7445 171.98451 186.26451 199.72852 209.52053 215.59253 229.80054 243.26454">Messaging Veri&#xfb01;er</tspan></text>
</g>
<clipPath id="cp22">
<path transform="matrix(.24,0,0,.24,0,0)" d="M 0 0 L 2550 0 L 2550 3278.125 L 0 3278.125 Z "/>
</clipPath>
<g clip-path="url(#cp22)">
<clipPath id="cp23">
<path transform="matrix(.24,0,0,.24,0,0)" d="M 0 0 L 2550 0 L 2550 3281.25 L 0 3281.25 Z "/>
</clipPath>
<g clip-path="url(#cp23)">
<clipPath id="cp24">
<path transform="matrix(.24,0,0,.24,0,0)" d="M 1096.4443 855.1875 L 1781.9778 855.1875 L 1781.9778 1141.1074 L 1096.4443 1141.1074 Z "/>
</clipPath>
<g clip-path="url(#cp24)">
<clipPath id="cp25">
<path transform="matrix(.24,0,0,.24,0,0)" d="M 1096.4443 1083.9235 L 1096.4443 912.3715 C 1096.4442 904.7883 1097.8945 897.49386 1100.7953 890.488 C 1103.6959 883.4821 1107.8262 877.2982 1113.186 871.9363 C 1118.5458 866.5742 1124.727 862.4422 1131.73 859.5403 C 1138.7329 856.6384 1146.0243 855.1875 1153.6043 855.1875 L 1724.8179 855.1875 C 1732.3976 855.1875 1739.689 856.6384 1746.6918 859.54037 C 1753.6946 862.44229 1759.876 866.5742 1765.2359 871.9363 C 1770.5956 877.2982 1774.7257 883.4821 1777.6265 890.48806 C 1780.5272 897.49386 1781.9777 904.7883 1781.9778 912.3715 L 1781.9778 1083.9235 C 1781.9777 1091.5065 1780.5274 1098.8009 1777.6266 1105.8067 C 1774.7258 1112.8125 1770.5957 1118.9965 1765.236 1124.3585 C 1759.876 1129.7205 1753.6946 1133.8524 1746.6918 1136.7544 C 1739.689 1139.6563 1732.3976 1141.1073 1724.8179 1141.1074 L 1153.6043 1141.1074 C 1146.0243 1141.1073 1138.7329 1139.6563 1131.73 1136.7544 C 1124.727 1133.8524 1118.5458 1129.7205 1113.186 1124.3585 C 1107.8262 1118.9965 1103.6959 1112.8125 1100.7953 1105.8067 C 1097.8945 1098.8009 1096.4442 1091.5065 1096.4443 1083.9235 Z "/>
</clipPath>
<g clip-path="url(#cp25)">
<path transform="matrix(.52502748,0,0,.52524867,263.14665,205.245)" stroke-width="4" stroke-linecap="butt" stroke-miterlimit="4" stroke-linejoin="miter" fill="none" stroke="#1a1a1a" d="M 26.128878 0 L 287.2415 0 C 288.95713 0 290.65629 .16735298 292.33894 .502059 C 294.0216 .836765 295.65547 1.3323927 297.2405 1.9889422 C 298.82557 2.6454917 300.33137 3.4503473 301.75785 4.4035098 C 303.18437 5.356672 304.50419 6.4398257 305.71736 7.652971 C 306.93049 8.866116 308.01365 10.185943 308.9668 11.61245 C 309.91996 13.038958 310.7248 14.544737 311.38139 16.129788 C 312.03794 17.714838 312.53358 19.348704 312.8683 21.031384 C 313.20298 22.714066 313.37034 24.41323 313.37037 26.128878 L 313.37037 104.5155 C 313.37034 106.23114 313.20298 107.9303 312.8683 109.61298 C 312.53358 111.29566 312.03794 112.92953 311.38139 114.51457 C 310.7248 116.09962 309.91993 117.6054 308.96678 119.031909 C 308.0136 120.45842 306.93049 121.77825 305.71736 122.991397 C 304.50419 124.20454 303.18437 125.28768 301.75785 126.240848 C 300.33137 127.19401 298.8256 127.99887 297.24055 128.65543 C 295.6555 129.31197 294.02165 129.8076 292.33897 130.14232 C 290.65629 130.47702 288.95713 130.64437 287.2415 130.64438 L 26.128878 130.64438 C 24.41323 130.64437 22.714066 130.47702 21.031386 130.14232 C 19.348704 129.8076 17.714838 129.31197 16.129788 128.65543 C 14.544737 127.99888 13.038958 127.194019 11.61245 126.24085 C 10.185943 125.2877 8.866116 124.204547 7.652971 122.9914 C 6.4398257 121.77825 5.356672 120.45842 4.403509 119.03191 C 3.450347 117.60541 2.6454917 116.09963 1.9889422 114.51458 C 1.3323927 112.92953 .836765 111.29566 .502059 109.61298 C .16735298 107.9303 0 106.23114 0 104.5155 L 0 26.128878 C 0 24.41323 .16735298 22.714066 .502059 21.031386 C .836765 19.348704 1.3323927 17.714838 1.9889422 16.129788 C 2.6454917 14.544737 3.4503473 13.038958 4.4035098 11.61245 C 5.356672 10.185943 6.4398257 8.866116 7.652971 7.652971 C 8.866116 6.4398257 10.185943 5.356672 11.61245 4.403509 C 13.038958 3.450347 14.544737 2.6454917 16.129788 1.9889422 C 17.714838 1.3323927 19.348704 .836765 21.031384 .502059 C 22.714066 .16735298 24.41323 0 26.128878 0 Z "/>
</g>
</g>
</g>
</g>
<clipPath id="cp26">
<path transform="matrix(.24,0,0,.24,0,0)" d="M 0 0 L 2550 0 L 2550 3278.125 L 0 3278.125 Z " fill-rule="evenodd"/>
</clipPath>
<g clip-path="url(#cp26)">
<g id="Layer-1" data-name="P">
</g>
<text fill="#1a1a1a" xml:space="preserve" transform="matrix(.52502748 0 0 .52524867 266.57624 208.67603)" font-size="24" font-family="OpenSans"><tspan y="49.789976" x="50.256479 71.92848 85.39249 96.840488 108.28848 121.632488 134.78449 140.85649 155.5925 168.7445 174.98451 193.68051 208.4165 221.88051 236.61652">Messaging Queue</tspan></text>
</g>
<clipPath id="cp27">
<path transform="matrix(.24,0,0,.24,0,0)" d="M 0 0 L 2550 0 L 2550 3278.125 L 0 3278.125 Z "/>
</clipPath>
<g clip-path="url(#cp27)">
<clipPath id="cp28">
<path transform="matrix(.24,0,0,.24,0,0)" d="M 0 0 L 2550 0 L 2550 3281.25 L 0 3281.25 Z "/>
</clipPath>
<g clip-path="url(#cp28)">
<clipPath id="cp29">
<path transform="matrix(.24,0,0,.24,0,0)" d="M 1437.0186 615.5927 L 3226.4874 615.5927 L 3226.4874 2915.7442 L 1437.0186 2915.7442 Z "/>
</clipPath>
<g clip-path="url(#cp29)">
<clipPath id="cp30">
<path transform="matrix(.24,0,0,.24,0,0)" d="M 1437.0186 721.071 L 1575.9321 721.071 L 1575.9321 769.21878 L 1437.0186 769.21878 M 1437.0186 615.5927 L 3225.0653 615.5927 L 3225.0653 2915.7442 L 1437.0186 2915.7442 " fill-rule="evenodd"/>
</clipPath>
<g clip-path="url(#cp30)">
<path transform="matrix(.52502748,0,0,.52524867,345.4095,148.2675)" stroke-width="1" stroke-linecap="butt" stroke-miterlimit="4" stroke-linejoin="miter" fill="none" stroke="#000000" d="M 0 .8 L 0 95.67762 "/>
</g>
</g>
</g>
</g>
<clipPath id="cp31">
<path transform="matrix(.24,0,0,.24,0,0)" d="M 0 0 L 2550 0 L 2550 3278.125 L 0 3278.125 Z " fill-rule="evenodd"/>
</clipPath>
<g clip-path="url(#cp31)">
<path transform="matrix(.00000000000000003214866,.52524867,-.52502748,.000000000000000032162206,345.4095,205.24523)" d="M -16 -4 L 0 0 L -16 4 L -16 -4 Z "/>
<g id="Layer-1" data-name="P">
</g>
<text xml:space="preserve" transform="matrix(.52502748 0 0 .52524867 312.59526 174.10753)" font-size="14" font-family="OpenSans"><tspan y="14" x="0 8.652 17.108002 25.704003 30.646004 38.500005 45.178007 48.818006 61.838006 69.69201 76.37001 83.04801 90.832019 98.50401 106.35802 109.99802 114.94002">Routes message to</tspan></text>
</g>
<clipPath id="cp32">
<path transform="matrix(.24,0,0,.24,0,0)" d="M 0 0 L 2550 0 L 2550 3278.125 L 0 3278.125 Z "/>
</clipPath>
<g clip-path="url(#cp32)">
<clipPath id="cp33">
<path transform="matrix(.24,0,0,.24,0,0)" d="M 0 0 L 2550 0 L 2550 3281.25 L 0 3281.25 Z "/>
</clipPath>
<g clip-path="url(#cp33)">
<clipPath id="cp34">
<path transform="matrix(.24,0,0,.24,0,0)" d="M 1437.0186 1138.9053 L 3226.4874 1138.9053 L 3226.4874 3439.0567 L 1437.0186 3439.0567 Z "/>
</clipPath>
<g clip-path="url(#cp34)">
<clipPath id="cp35">
<path transform="matrix(.24,0,0,.24,0,0)" d="M 1437.0186 1223.3584 L 1569.3693 1223.3584 L 1569.3693 1271.5062 L 1437.0186 1271.5062 M 1437.0186 1138.9053 L 3225.0653 1138.9053 L 3225.0653 3439.0567 L 1437.0186 3439.0567 " fill-rule="evenodd"/>
</clipPath>
<g clip-path="url(#cp35)">
<path transform="matrix(.52502748,0,0,.52524867,345.4095,273.8625)" stroke-width="1" stroke-linecap="butt" stroke-miterlimit="4" stroke-linejoin="miter" fill="none" stroke="#000000" d="M 0 .8 L 0 98.37781 "/>
</g>
</g>
</g>
</g>
<clipPath id="cp36">
<path transform="matrix(.24,0,0,.24,0,0)" d="M 0 0 L 2550 0 L 2550 3278.125 L 0 3278.125 Z " fill-rule="evenodd"/>
</clipPath>
<g clip-path="url(#cp36)">
<path transform="matrix(.00000000000000003214866,.52524867,-.52502748,.000000000000000032162206,345.4095,332.25849)" d="M -16 -4 L 0 0 L -16 4 L -16 -4 Z "/>
<g id="Layer-1" data-name="P">
</g>
<text xml:space="preserve" transform="matrix(.52502748 0 0 .52524867 314.17036 294.6565)" font-size="14" font-family="OpenSans"><tspan y="14" x="0 7.6860005 15.540001 24.136002 32.718004 39.396005 43.036005 56.056005 63.910005 70.588008 77.26601 85.05001 92.72201 100.57601 104.21601 109.15801">Sends message to</tspan></text>
</g>
<clipPath id="cp37">
<path transform="matrix(.24,0,0,.24,0,0)" d="M 0 0 L 2550 0 L 2550 3278.125 L 0 3278.125 Z "/>
</clipPath>
<g clip-path="url(#cp37)">
<clipPath id="cp38">
<path transform="matrix(.24,0,0,.24,0,0)" d="M 0 0 L 2550 0 L 2550 3281.25 L 0 3281.25 Z "/>
</clipPath>
<g clip-path="url(#cp38)">
<clipPath id="cp39">
<path transform="matrix(.24,0,0,.24,0,0)" d="M 1096.4443 1914.5314 L 1781.9778 1914.5314 L 1781.9778 2200.4515 L 1096.4443 2200.4515 Z "/>
</clipPath>
<g clip-path="url(#cp39)">
<clipPath id="cp40">
<path transform="matrix(.24,0,0,.24,0,0)" d="M 1096.4443 2143.2674 L 1096.4443 1971.7153 C 1096.4442 1964.1322 1097.8945 1956.8377 1100.7953 1949.8318 C 1103.6959 1942.8258 1107.8262 1936.642 1113.186 1931.28 C 1118.5458 1925.918 1124.727 1921.786 1131.73 1918.884 C 1138.7329 1915.9823 1146.0243 1914.5314 1153.6043 1914.5314 L 1724.8179 1914.5314 C 1732.3976 1914.5314 1739.689 1915.9823 1746.6918 1918.884 C 1753.6946 1921.786 1759.876 1925.918 1765.2359 1931.28 C 1770.5956 1936.642 1774.7257 1942.8258 1777.6265 1949.8318 C 1780.5272 1956.8377 1781.9777 1964.1322 1781.9778 1971.7153 L 1781.9778 2143.2674 C 1781.9777 2150.8504 1780.5274 2158.1448 1777.6266 2165.1505 C 1774.7258 2172.1563 1770.5957 2178.3404 1765.236 2183.7025 C 1759.876 2189.0645 1753.6946 2193.1964 1746.6918 2196.0982 C 1739.689 2199.0003 1732.3976 2200.4512 1724.8179 2200.4515 L 1153.6043 2200.4515 C 1146.0243 2200.4512 1138.7329 2199.0003 1131.73 2196.0982 C 1124.727 2193.1964 1118.5458 2189.0645 1113.186 2183.7025 C 1107.8262 2178.3404 1103.6959 2172.1563 1100.7953 2165.1507 C 1097.8945 2158.1448 1096.4442 2150.8504 1096.4443 2143.2674 Z "/>
</clipPath>
<g clip-path="url(#cp40)">
<path transform="matrix(.52502748,0,0,.52524867,263.14665,459.48753)" stroke-width="4" stroke-linecap="butt" stroke-miterlimit="4" stroke-linejoin="miter" fill="none" stroke="#1a1a1a" d="M 26.128878 0 L 287.2415 0 C 288.95713 0 290.65629 .16735298 292.33894 .502059 C 294.0216 .836765 295.65547 1.3323927 297.2405 1.9889422 C 298.82557 2.6454917 300.33137 3.4503473 301.75785 4.4035098 C 303.18437 5.356672 304.50419 6.4398257 305.71736 7.652971 C 306.93049 8.866116 308.01365 10.185943 308.9668 11.61245 C 309.91996 13.038958 310.7248 14.544737 311.38139 16.129788 C 312.03794 17.714838 312.53358 19.348704 312.8683 21.031384 C 313.20298 22.714066 313.37034 24.41323 313.37037 26.128878 L 313.37037 104.5155 C 313.37034 106.23114 313.20298 107.9303 312.8683 109.61298 C 312.53358 111.29566 312.03794 112.92953 311.38139 114.51457 C 310.7248 116.09962 309.91993 117.6054 308.96678 119.031909 C 308.0136 120.45842 306.93049 121.77825 305.71736 122.991397 C 304.50419 124.20454 303.18437 125.28768 301.75785 126.240848 C 300.33137 127.19401 298.8256 127.99887 297.24055 128.65543 C 295.6555 129.31197 294.02165 129.8076 292.33897 130.14232 C 290.65629 130.47702 288.95713 130.64437 287.2415 130.64438 L 26.128878 130.64438 C 24.41323 130.64437 22.714066 130.47702 21.031386 130.14232 C 19.348704 129.8076 17.714838 129.31197 16.129788 128.65543 C 14.544737 127.99888 13.038958 127.194019 11.61245 126.24085 C 10.185943 125.2877 8.866116 124.204547 7.652971 122.9914 C 6.4398257 121.77825 5.356672 120.45842 4.403509 119.03191 C 3.450347 117.60541 2.6454917 116.09963 1.9889422 114.51458 C 1.3323927 112.92953 .836765 111.29566 .502059 109.61298 C .16735298 107.9303 0 106.23114 0 104.5155 L 0 26.128878 C 0 24.41323 .16735298 22.714066 .502059 21.031386 C .836765 19.348704 1.3323927 17.714838 1.9889422 16.129788 C 2.6454917 14.544737 3.4503473 13.038958 4.4035098 11.61245 C 5.356672 10.185943 6.4398257 8.866116 7.652971 7.652971 C 8.866116 6.4398257 10.185943 5.356672 11.61245 4.403509 C 13.038958 3.450347 14.544737 2.6454917 16.129788 1.9889422 C 17.714838 1.3323927 19.348704 .836765 21.031384 .502059 C 22.714066 .16735298 24.41323 0 26.128878 0 Z "/>
</g>
</g>
</g>
</g>
<clipPath id="cp41">
<path transform="matrix(.24,0,0,.24,0,0)" d="M 0 0 L 2550 0 L 2550 3278.125 L 0 3278.125 Z " fill-rule="evenodd"/>
</clipPath>
<g clip-path="url(#cp41)">
<g id="Layer-1" data-name="P">
</g>
<text fill="#1a1a1a" xml:space="preserve" transform="matrix(.52502748 0 0 .52524867 266.57624 462.91856)" font-size="24" font-family="OpenSans"><tspan y="49.789976" x=".059212068 21.731213 35.195215 46.643217 58.091218 71.43522 84.58722 90.65922 105.39522 118.54722 124.78722 137.96321 151.42722 161.21923 173.24323 179.31523 190.73923 204.20323 210.44324 228.15525 241.49924 256.23524 270.94725 277.01924 290.48323">Messaging Service Handler</tspan></text>
</g>
<clipPath id="cp42">
<path transform="matrix(.24,0,0,.24,0,0)" d="M 0 0 L 2550 0 L 2550 3278.125 L 0 3278.125 Z "/>
</clipPath>
<g clip-path="url(#cp42)">
<clipPath id="cp43">
<path transform="matrix(.24,0,0,.24,0,0)" d="M 0 0 L 2550 0 L 2550 3281.25 L 0 3281.25 Z "/>
</clipPath>
<g clip-path="url(#cp43)">
<clipPath id="cp44">
<path transform="matrix(.24,0,0,.24,0,0)" d="M 1437.0186 1668.1553 L 3226.4874 1668.1553 L 3226.4874 3968.3067 L 1437.0186 3968.3067 Z "/>
</clipPath>
<g clip-path="url(#cp44)">
<clipPath id="cp45">
<path transform="matrix(.24,0,0,.24,0,0)" d="M 1437.0186 1753.0452 L 1569.3693 1753.0452 L 1569.3693 1801.193 L 1437.0186 1801.193 M 1437.0186 1668.1553 L 3225.0653 1668.1553 L 3225.0653 3968.3067 L 1437.0186 3968.3067 " fill-rule="evenodd"/>
</clipPath>
<g clip-path="url(#cp45)">
<path transform="matrix(.52502748,0,0,.52524867,345.4095,400.88249)" stroke-width="1" stroke-linecap="butt" stroke-miterlimit="4" stroke-linejoin="miter" fill="none" stroke="#000000" d="M 0 .8 L 0 98.77696 "/>
</g>
</g>
</g>
</g>
<clipPath id="cp46">
<path transform="matrix(.24,0,0,.24,0,0)" d="M 0 0 L 2550 0 L 2550 3278.125 L 0 3278.125 Z " fill-rule="evenodd"/>
</clipPath>
<g clip-path="url(#cp46)">
<path transform="matrix(.00000000000000003214866,.52524867,-.52502748,.000000000000000032162206,345.4095,459.48814)" d="M -16 -4 L 0 0 L -16 4 L -16 -4 Z "/>
<g id="Layer-1" data-name="P">
</g>
<text xml:space="preserve" transform="matrix(.52502748 0 0 .52524867 314.17036 421.78135)" font-size="14" font-family="OpenSans"><tspan y="14" x="0 7.6860005 15.540001 24.136002 32.718004 39.396005 43.036005 56.056005 63.910005 70.588008 77.26601 85.05001 92.72201 100.57601 104.21601 109.15801">Sends message to</tspan></text>
</g>
<clipPath id="cp47">
<path transform="matrix(.24,0,0,.24,0,0)" d="M 0 0 L 2550 0 L 2550 3278.125 L 0 3278.125 Z "/>
</clipPath>
<g clip-path="url(#cp47)">
<clipPath id="cp48">
<path transform="matrix(.24,0,0,.24,0,0)" d="M 0 0 L 2550 0 L 2550 3281.25 L 0 3281.25 Z "/>
</clipPath>
<g clip-path="url(#cp48)">
<clipPath id="cp49">
<path transform="matrix(.24,0,0,.24,0,0)" d="M 1437.0186 2198.2803 L 3226.4874 2198.2803 L 3226.4874 4498.4318 L 1437.0186 4498.4318 Z "/>
</clipPath>
<g clip-path="url(#cp49)">
<clipPath id="cp50">
<path transform="matrix(.24,0,0,.24,0,0)" d="M 1437.0186 2340.5506 L 1569.3693 2340.5506 L 1569.3693 2388.6983 L 1437.0186 2388.6983 M 1437.0186 2198.2803 L 3225.0653 2198.2803 L 3225.0653 4498.4318 L 1437.0186 4498.4318 " fill-rule="evenodd"/>
</clipPath>
<g clip-path="url(#cp50)">
<path transform="matrix(.52502748,0,0,.52524867,345.4095,528.1125)" stroke-width="1" stroke-linecap="butt" stroke-miterlimit="4" stroke-linejoin="miter" fill="none" stroke="#000000" d="M .000000000010004442 .8 L .000000000010004442 82.00702 L 0 82.00702 L 0 151.21404 "/>
</g>
</g>
</g>
</g>
<clipPath id="cp51">
<path transform="matrix(.24,0,0,.24,0,0)" d="M 0 0 L 2550 0 L 2550 3278.125 L 0 3278.125 Z " fill-rule="evenodd"/>
</clipPath>
<g clip-path="url(#cp51)">
<path transform="matrix(.00000000000000003214866,.52524867,-.52502748,.000000000000000032162206,345.4095,614.2606)" d="M -16 -4 L 0 0 L -16 4 L -16 -4 Z "/>
<g id="Layer-1" data-name="P">
</g>
<text xml:space="preserve" transform="matrix(.52502748 0 0 .52524867 314.17036 562.7826)" font-size="14" font-family="OpenSans"><tspan y="14" x="0 7.6860005 15.540001 24.136002 32.718004 39.396005 43.036005 56.056005 63.910005 70.588008 77.26601 85.05001 92.72201 100.57601 104.21601 109.15801">Sends message to</tspan></text>
<g id="Layer-1" data-name="P">
</g>
<text fill="#1a1a1a" xml:space="preserve" transform="matrix(.52502748 0 0 .52524867 285.49473 243.58499)" font-size="14" font-family="OpenSans"><tspan y="14" x="13.057836 20.743836 33.763837 41.547838 47.25984 52.20184 55.84184 62.50584 70.96184 79.55784 84.49984 90.21184 97.99584 104.65984 109.601848 113.241847 121.697849 130.29386 133.93386 142.51586 146.05786 154.51386 161.17786 168.52787 175.19187 183.78787 191.57187 195.11388 203.70987 207.34987 215.18987">Smart contract on blockchain Y&#x00a0;</tspan></text>
<g id="Layer-1" data-name="P">
</g>
<text fill="#1a1a1a" xml:space="preserve" transform="matrix(.52502748 0 0 .52524867 285.49473 243.58499)" font-size="14" font-family="OpenSans"><tspan y="34" x="19.849339 24.79134 33.38734 41.17134 46.113344 49.75334 58.209344 63.921346 72.50334 80.357349 86.06934 92.747348 96.387348 102.09934 110.55534 119.151348 124.093349 131.94734 140.52935 144.16934 157.18935 165.04335 171.72135 178.39934 186.18334 193.85533 201.70934">that orders routed messages</tspan></text>
<g id="Layer-1" data-name="P">
</g>
<text fill="#1a1a1a" xml:space="preserve" transform="matrix(.52502748 0 0 .52524867 290.3077 496.62)" font-size="14" font-family="OpenSans"><tspan y="14" x="3.8834546 11.569455 24.589455 32.373456 38.085458 43.02746 46.667459 53.33146 61.78746 70.38346 75.32546 81.03746 88.821468 95.485469 100.42747 104.06747 112.52347 121.11947 124.75947 133.34146 136.88347 145.33946 152.00347 159.35347 166.01747 174.61347 182.39746 185.93947 194.53546 198.17546 206.01546">Smart contract on blockchain Y&#x00a0;</tspan></text>
<g id="Layer-1" data-name="P">
</g>
<text fill="#1a1a1a" xml:space="preserve" transform="matrix(.52502748 0 0 .52524867 290.3077 496.62)" font-size="14" font-family="OpenSans"><tspan y="34" x="13.252107 18.194108 26.790108 34.57411 39.51611 43.15611 46.69811 55.29411 60.23611 68.09011 73.80211 78.54811 86.332118 92.99612 100.85012 107.52812 111.16812 122.06012 125.60212 130.54412 139.1401 142.7801 147.7221 156.31812 164.17212 167.81212 176.40811 183.0861 190.94011">that interfaces with the user</tspan></text>
<g id="Layer-1" data-name="P">
</g>
<text fill="#1a1a1a" xml:space="preserve" transform="matrix(.52502748 0 0 .52524867 285.49473 367.76249)" font-size="14" font-family="OpenSans"><tspan y="14" x="13.057836 20.743836 33.763837 41.547838 47.25984 52.20184 55.84184 62.50584 70.96184 79.55784 84.49984 90.21184 97.99584 104.65984 109.601848 113.241847 121.697849 130.29386 133.93386 142.51586 146.05786 154.51386 161.17786 168.52787 175.19187 183.78787 191.57187 195.11388 203.70987 207.34987 215.18987">Smart contract on blockchain Y&#x00a0;</tspan></text>
<g id="Layer-1" data-name="P">
<g id="Layer-2" data-name="Span">
</g>
</g>
<text fill="#1a1a1a" xml:space="preserve" transform="matrix(.52502748 0 0 .52524867 285.49473 367.76249)" font-size="14" font-family="OpenSans"><tspan y="34" x="15.747777 20.689778 29.285778 37.06978 42.01178 45.65178 52.66578 60.51978 66.23178 69.77378 78.06178 85.91579 92.59379 96.23379 101.945789 109.79979 116.46379 124.317798 127.859798 134.8738 142.7278 151.3098 154.9498 167.9698 175.8238 182.5018 189.1798 196.96379 204.63579 212.48979">that veri&#xfb01;es received message&#x00a0;</tspan></text>
<g id="Layer-1" data-name="P">
</g>
<text fill="#1a1a1a" xml:space="preserve" transform="matrix(.52502748 0 0 .52524867 285.49473 367.76249)" font-size="14" font-family="OpenSans"><tspan y="54" x="42.69846 50.55246 57.88846 61.430459 68.10846 73.05046 79.72846 83.36846 91.82446 100.42046 104.06046 112.64246 116.18446 124.640468 131.30446 138.65447 145.31847 153.91446 161.69846 165.24047 173.83646 177.47646">exists on blockchain X</tspan></text>
<g id="Layer-1" data-name="P">
<g id="Layer-2" data-name="Span">
</g>
<g id="Layer-2" data-name="Span">
</g>
</g>
<text fill="#1a1a1a" xml:space="preserve" transform="matrix(.52502748 0 0 .52524867 287.9012 119.490009)" font-size="14" font-family="OpenSans"><tspan y="14" x="31.64789 42.55389 52.04589 56.55389 56.55121 63.21521 71.81121 79.595218 83.137218 91.733219 95.373218 102.03722 110.49322 119.08922 124.03122 131.81522 135.35723 143.95322 151.80722 157.51923 161.15923 166.10123 174.69724 182.48123 187.42324">O&#xfb00;- chain container that&#x00a0;</tspan></text>
<g id="Layer-1" data-name="P">
</g>
<text fill="#1a1a1a" xml:space="preserve" transform="matrix(.52502748 0 0 .52524867 287.9012 119.490009)" font-size="14" font-family="OpenSans"><tspan y="34" x="2.1986724 7.1406729 12.852673 20.636673 29.232674 35.910676 40.656679 49.11268 54.82468 67.84468 74.52268 78.16268 85.946689 94.54269 103.12469 106.76469 112.476688 120.932689 129.52869 134.47069 142.32469 149.00269 152.64269 165.66269 173.5167 180.19469 186.87268 194.65668 202.32868 210.18268">transforms and routes messages</tspan></text>
</g>
<clipPath id="cp52">
<path transform="matrix(.24,0,0,.24,0,0)" d="M 0 0 L 2550 0 L 2550 3278.125 L 0 3278.125 Z "/>
</clipPath>
<g clip-path="url(#cp52)">
<clipPath id="cp53">
<path transform="matrix(.24,0,0,.24,0,0)" d="M 0 0 L 2550 0 L 2550 3281.25 L 0 3281.25 Z "/>
</clipPath>
<g clip-path="url(#cp53)">
<clipPath id="cp54">
<path transform="matrix(.24,0,0,.24,0,0)" d="M 1779.7803 472.62397 L 3569.249 472.62397 L 3569.249 2772.7755 L 1779.7803 2772.7755 Z "/>
</clipPath>
<g clip-path="url(#cp54)">
<clipPath id="cp55">
<path transform="matrix(.24,0,0,.24,0,0)" d="M 1779.7803 723.34487 L 1944.9452 723.34487 L 1944.9452 771.4927 L 1779.7803 771.4927 M 1779.7803 472.62397 L 3567.827 472.62397 L 3567.827 2772.7755 L 1779.7803 2772.7755 " fill-rule="evenodd"/>
</clipPath>
<g clip-path="url(#cp55)">
<path transform="matrix(.52502748,0,0,.52524867,427.67228,113.954998)" d="M .8 238.622 L 4.8 238.622 L 4.8 239.622 L .8 239.622 L .8 238.622 Z M 9.8 238.622 L 13.8 238.622 L 13.8 239.622 L 9.8 239.622 L 9.8 238.622 Z M 18.8 238.622 L 22.8 238.622 L 22.8 239.622 L 18.8 239.622 L 18.8 238.622 Z M 27.8 238.622 L 30 238.622 L 30 239.122 L 29.5 239.122 L 29.5 237.32199 L 30.5 237.32199 L 30.5 239.622 L 27.8 239.622 L 27.8 238.622 Z M 29.5 232.32199 L 29.5 228.32199 L 30.5 228.32199 L 30.5 232.32199 L 29.5 232.32199 Z M 29.5 223.32199 L 29.5 219.32199 L 30.5 219.32199 L 30.5 223.32199 L 29.5 223.32199 Z M 29.5 214.32199 L 29.5 210.32199 L 30.5 210.32199 L 30.5 214.32199 L 29.5 214.32199 Z M 29.5 205.32199 L 29.5 201.32199 L 30.5 201.32199 L 30.5 205.32199 L 29.5 205.32199 Z M 29.5 196.32199 L 29.5 192.32199 L 30.5 192.32199 L 30.5 196.32199 L 29.5 196.32199 Z M 29.5 187.32199 L 29.5 183.32199 L 30.5 183.32199 L 30.5 187.32199 L 29.5 187.32199 Z M 29.5 178.32199 L 29.5 174.32199 L 30.5 174.32199 L 30.5 178.32199 L 29.5 178.32199 Z M 29.5 169.32199 L 29.5 165.32199 L 30.5 165.32199 L 30.5 169.32199 L 29.5 169.32199 Z M 29.5 160.32199 L 29.5 156.32199 L 30.5 156.32199 L 30.5 160.32199 L 29.5 160.32199 Z M 29.5 151.32199 L 29.5 147.32199 L 30.5 147.32199 L 30.5 151.32199 L 29.5 151.32199 Z M 29.5 142.32199 L 29.5 138.32199 L 30.5 138.32199 L 30.5 142.32199 L 29.5 142.32199 Z M 29.5 133.32199 L 29.5 129.32199 L 30.5 129.32199 L 30.5 133.32199 L 29.5 133.32199 Z M 29.5 124.32199 L 29.5 120.32199 L 30.5 120.32199 L 30.5 124.32199 L 29.5 124.32199 Z M 29.5 115.32199 L 29.5 111.32199 L 30.5 111.32199 L 30.5 115.32199 L 29.5 115.32199 Z M 29.5 106.32199 L 29.5 102.32199 L 30.5 102.32199 L 30.5 106.32199 L 29.5 106.32199 Z M 29.5 97.32199 L 29.5 93.32199 L 30.5 93.32199 L 30.5 97.32199 L 29.5 97.32199 Z M 29.5 88.32199 L 29.5 84.32199 L 30.5 84.32199 L 30.5 88.32199 L 29.5 88.32199 Z M 29.5 79.32199 L 29.5 75.32199 L 30.5 75.32199 L 30.5 79.32199 L 29.5 79.32199 Z M 29.5 70.32199 L 29.5 66.32199 L 30.5 66.32199 L 30.5 70.32199 L 29.5 70.32199 Z M 29.5 61.32199 L 29.5 57.32199 L 30.5 57.32199 L 30.5 61.32199 L 29.5 61.32199 Z M 29.5 52.32199 L 29.5 48.32199 L 30.5 48.32199 L 30.5 52.32199 L 29.5 52.32199 Z M 29.5 43.32199 L 29.5 39.32199 L 30.5 39.32199 L 30.5 43.32199 L 29.5 43.32199 Z M 29.5 34.32199 L 29.5 30.321991 L 30.5 30.321991 L 30.5 34.32199 L 29.5 34.32199 Z M 29.5 25.321991 L 29.5 21.321991 L 30.5 21.321991 L 30.5 25.321991 L 29.5 25.321991 Z M 29.5 16.321991 L 29.5 12.321991 L 30.5 12.321991 L 30.5 16.321991 L 29.5 16.321991 Z M 29.5 7.321991 L 29.5 3.321991 L 30.5 3.321991 L 30.5 7.321991 L 29.5 7.321991 Z M 28.321993 .5 L 24.321995 .5 L 24.321995 -.5 L 28.321993 -.5 L 28.321993 .5 Z M 19.321999 .5 L 15.3220009 .5 L 15.3220009 -.5 L 19.321999 -.5 L 19.321999 .5 Z "/>
</g>
</g>
</g>
</g>
<clipPath id="cp56">
<path transform="matrix(.24,0,0,.24,0,0)" d="M 0 0 L 2550 0 L 2550 3278.125 L 0 3278.125 Z " fill-rule="evenodd"/>
</clipPath>
<g clip-path="url(#cp56)">
<path transform="matrix(-.52502748,.00000000000000006432441,-.00000000000000006429732,-.52524867,427.67228,113.954998)" d="M -16 -4 L 0 0 L -16 4 L -16 -4 Z "/>
<g id="Layer-1" data-name="P">
</g>
<text xml:space="preserve" transform="matrix(.52502748 0 0 .52524867 420.05943 174.65326)" font-size="14" font-family="OpenSans"><tspan y="14" x="0 7.6860005 16.282002 24.864003 31.542004 38.206007 43.918008 47.460008 56.042009 63.896009 70.574008 74.214008 79.156009">Subscribes to</tspan></text>
</g>
<clipPath id="cp57">
<path transform="matrix(.24,0,0,.24,0,0)" d="M 0 0 L 2550 0 L 2550 3278.125 L 0 3278.125 Z "/>
</clipPath>
<g clip-path="url(#cp57)">
<clipPath id="cp58">
<path transform="matrix(.24,0,0,.24,0,0)" d="M 0 0 L 2550 0 L 2550 3281.25 L 0 3281.25 Z "/>
</clipPath>
<g clip-path="url(#cp58)">
<clipPath id="cp59">
<path transform="matrix(.24,0,0,.24,0,0)" d="M 1028.628 2094.374 L 2818.0968 2094.374 L 2818.0968 4394.5256 L 1028.628 4394.5256 Z "/>
</clipPath>
<g clip-path="url(#cp59)">
<clipPath id="cp60">
<path transform="matrix(.24,0,0,.24,0,0)" d="M 1028.628 2529.294 L 1267.078 2529.294 L 1267.078 2577.4417 L 1028.628 2577.4417 M 1028.628 2094.374 L 2816.6749 2094.374 L 2816.6749 4394.5256 L 1028.628 4394.5256 " fill-rule="evenodd"/>
</clipPath>
<g clip-path="url(#cp60)">
<path transform="matrix(.52502748,0,0,.52524867,247.39575,503.175)" d="M 29.2 407.9528 L 25.2 407.9528 L 25.2 406.9528 L 29.2 406.9528 L 29.2 407.9528 Z M 20.2 407.9528 L 16.2 407.9528 L 16.2 406.9528 L 20.2 406.9528 L 20.2 407.9528 Z M 11.200001 407.9528 L 7.200001 407.9528 L 7.200001 406.9528 L 11.200001 406.9528 L 11.200001 407.9528 Z M 2.2000008 407.9528 L -.5 407.9528 L -.5 405.6528 L .5 405.6528 L .5 407.4528 L 0 407.4528 L 0 406.9528 L 2.2000008 406.9528 L 2.2000008 407.9528 Z M -.5 400.6528 L -.5 396.6528 L .5 396.6528 L .5 400.6528 L -.5 400.6528 Z M -.5 391.6528 L -.5 387.6528 L .5 387.6528 L .5 391.6528 L -.5 391.6528 Z M -.5 382.6528 L -.5 378.6528 L .5 378.6528 L .5 382.6528 L -.5 382.6528 Z M -.5 373.6528 L -.5 369.6528 L .5 369.6528 L .5 373.6528 L -.5 373.6528 Z M -.5 364.6528 L -.5 360.6528 L .5 360.6528 L .5 364.6528 L -.5 364.6528 Z M -.5 355.65278 L -.5 351.6528 L .5 351.6528 L .5 355.65278 L -.5 355.65278 Z M -.5 346.6528 L -.5 342.65278 L .5 342.65278 L .5 346.6528 L -.5 346.6528 Z M -.5 337.65278 L -.5 333.65278 L .5 333.65278 L .5 337.65278 L -.5 337.65278 Z M -.5 328.65278 L -.5 324.65278 L .5 324.65278 L .5 328.65278 L -.5 328.65278 Z M -.5 319.65278 L -.5 315.65278 L .5 315.65278 L .5 319.65278 L -.5 319.65278 Z M -.5 310.65278 L -.5 306.65278 L .5 306.65278 L .5 310.65278 L -.5 310.65278 Z M -.5 301.65278 L -.5 297.6528 L .5 297.6528 L .5 301.65278 L -.5 301.65278 Z M -.5 292.65278 L -.5 288.65278 L .5 288.65278 L .5 292.65278 L -.5 292.65278 Z M -.5 283.6528 L -.5 279.65278 L .5 279.65278 L .5 283.6528 L -.5 283.6528 Z M -.5 274.65278 L -.5 270.65278 L .5 270.65278 L .5 274.65278 L -.5 274.65278 Z M -.5 265.65278 L -.5 261.65278 L .5 261.65278 L .5 265.65278 L -.5 265.65278 Z M -.5 256.65278 L -.5 252.65279 L .5 252.65279 L .5 256.65278 L -.5 256.65278 Z M -.5 247.65279 L -.5 243.65279 L .5 243.65279 L .5 247.65279 L -.5 247.65279 Z M -.5 238.65279 L -.5 234.65279 L .5 234.65279 L .5 238.65279 L -.5 238.65279 Z M -.5 229.65279 L -.5 225.65279 L .5 225.65279 L .5 229.65279 L -.5 229.65279 Z M -.5 220.65279 L -.5 216.65279 L .5 216.65279 L .5 220.65279 L -.5 220.65279 Z M -.5 211.65279 L -.5 207.65279 L .5 207.65279 L .5 211.65279 L -.5 211.65279 Z M -.5 202.65279 L -.5 198.65279 L .5 198.65279 L .5 202.65279 L -.5 202.65279 Z M -.5 193.6528 L -.5 189.65279 L .5 189.65279 L .5 193.6528 L -.5 193.6528 Z M -.5 184.65279 L -.5 180.6528 L .5 180.6528 L .5 184.65279 L -.5 184.65279 Z M -.5 175.65279 L -.5 171.65279 L .5 171.65279 L .5 175.65279 L -.5 175.65279 Z M -.5 166.6528 L -.5 162.65279 L .5 162.65279 L .5 166.6528 L -.5 166.6528 Z M -.5 157.65279 L -.5 153.65277 L .5 153.65277 L .5 157.65279 L -.5 157.65279 Z M -.5 148.6528 L -.5 144.6528 L .5 144.6528 L .5 148.6528 L -.5 148.6528 Z M -.5 139.6528 L -.5 135.6528 L .5 135.6528 L .5 139.6528 L -.5 139.6528 Z M -.5 130.6528 L -.5 126.6528 L .5 126.6528 L .5 130.6528 L -.5 130.6528 Z M -.5 121.6528 L -.5 117.6528 L .5 117.6528 L .5 121.6528 L -.5 121.6528 Z M -.5 112.6528 L -.5 108.6528 L .5 108.6528 L .5 112.6528 L -.5 112.6528 Z M -.5 103.6528 L -.5 99.6528 L .5 99.6528 L .5 103.6528 L -.5 103.6528 Z M -.5 94.6528 L -.5 90.6528 L .5 90.6528 L .5 94.6528 L -.5 94.6528 Z M -.5 85.6528 L -.5 81.6528 L .5 81.6528 L .5 85.6528 L -.5 85.6528 Z M -.5 76.6528 L -.5 72.6528 L .5 72.6528 L .5 76.6528 L -.5 76.6528 Z M -.5 67.6528 L -.5 63.6528 L .5 63.6528 L .5 67.6528 L -.5 67.6528 Z M -.5 58.6528 L -.5 54.6528 L .5 54.6528 L .5 58.6528 L -.5 58.6528 Z M -.5 49.6528 L -.5 45.6528 L .5 45.6528 L .5 49.6528 L -.5 49.6528 Z M -.5 40.6528 L -.5 36.6528 L .5 36.6528 L .5 40.6528 L -.5 40.6528 Z M -.5 31.652802 L -.5 27.652802 L .5 27.652802 L .5 31.652802 L -.5 31.652802 Z M -.5 22.652802 L -.5 18.652802 L .5 18.652802 L .5 22.652802 L -.5 22.652802 Z M -.5 13.6528019 L -.5 9.6528019 L .5 9.6528019 L .5 13.6528019 L -.5 13.6528019 Z M -.5 4.6528017 L -.5 .6528015 L .5 .6528015 L .5 4.6528017 L -.5 4.6528017 Z M 4.3471958 -.5 L 8.347193 -.5 L 8.347193 .5 L 4.3471958 .5 L 4.3471958 -.5 Z M 13.34719 -.5 L 17.2 -.5 L 17.2 .5 L 13.34719 .5 L 13.34719 -.5 Z "/>
</g>
</g>
</g>
</g>
<clipPath id="cp61">
<path transform="matrix(.24,0,0,.24,0,0)" d="M 0 0 L 2550 0 L 2550 3278.125 L 0 3278.125 Z " fill-rule="evenodd"/>
</clipPath>
<g clip-path="url(#cp61)">
<path transform="matrix(.52502748,0,0,.52524867,263.14659,503.175)" d="M -16 -4 L 0 0 L -16 4 L -16 -4 Z "/>
<g id="Layer-1" data-name="P">
<g id="Layer-2" data-name="Span">
</g>
</g>
<text xml:space="preserve" transform="matrix(.52502748 0 0 .52524867 190.6928 608.081)" font-size="14" font-family="OpenSans"><tspan y="14" x="0 7.6860005 15.540001 24.136002 32.718004 39.396005 43.036005 48.748006 56.602006 63.266008 71.12001 74.66201 83.24401 88.18601 91.82601 98.49001 106.946018 115.542018 123.83002 129.54203 142.56203 150.34603 155.28803 158.83003 167.28603 175.88202 179.52202 188.11801 194.796 198.33802 206.93402">Sends receipt con&#xfb01;rmation using</tspan></text>
</g>
<clipPath id="cp62">
<path transform="matrix(.24,0,0,.24,0,0)" d="M 0 0 L 2550 0 L 2550 3278.125 L 0 3278.125 Z "/>
</clipPath>
<g clip-path="url(#cp62)">
<clipPath id="cp63">
<path transform="matrix(.24,0,0,.24,0,0)" d="M 0 0 L 2550 0 L 2550 3281.25 L 0 3281.25 Z "/>
</clipPath>
<g clip-path="url(#cp63)">
<clipPath id="cp64">
<path transform="matrix(.24,0,0,.24,0,0)" d="M 853.3583 995.9677 L 2642.827 995.9677 L 2642.827 3296.1192 L 853.3583 3296.1192 Z "/>
</clipPath>
<g clip-path="url(#cp64)">
<clipPath id="cp65">
<path transform="matrix(.24,0,0,.24,0,0)" d="M 853.3583 1514.6985 L 1067.7445 1514.6985 L 1067.7445 1562.8462 L 853.3583 1562.8462 M 853.3583 995.9677 L 2641.4049 995.9677 L 2641.4049 3296.1192 L 853.3583 3296.1192 " fill-rule="evenodd"/>
</clipPath>
<g clip-path="url(#cp65)">
<path transform="matrix(.52502748,0,0,.52524867,205.33101,239.5575)" d="M 109.31169 484.54356 L 105.31169 484.54356 L 105.31169 483.54356 L 109.31169 483.54356 L 109.31169 484.54356 Z M 100.31169 484.54356 L 96.31169 484.54356 L 96.31169 483.54356 L 100.31169 483.54356 L 100.31169 484.54356 Z M 91.31169 484.54356 L 87.31169 484.54356 L 87.31169 483.54356 L 91.31169 483.54356 L 91.31169 484.54356 Z M 82.31169 484.54356 L 78.31169 484.54356 L 78.31169 483.54356 L 82.31169 483.54356 L 82.31169 484.54356 Z M 73.31169 484.54356 L 69.31169 484.54356 L 69.31169 483.54356 L 73.31169 483.54356 L 73.31169 484.54356 Z M 64.31169 484.54356 L 60.31169 484.54356 L 60.31169 483.54356 L 64.31169 483.54356 L 64.31169 484.54356 Z M 55.31169 484.54356 L 51.311689 484.54356 L 51.311689 483.54356 L 55.31169 483.54356 L 55.31169 484.54356 Z M 46.31169 484.54356 L 42.31169 484.54356 L 42.31169 483.54356 L 46.31169 483.54356 L 46.31169 484.54356 Z M 37.31169 484.54356 L 33.31169 484.54356 L 33.31169 483.54356 L 37.31169 483.54356 L 37.31169 484.54356 Z M 28.311692 484.54356 L 24.311692 484.54356 L 24.311692 483.54356 L 28.311692 483.54356 L 28.311692 484.54356 Z M 19.311692 484.54356 L 15.311691 484.54356 L 15.311691 483.54356 L 19.311692 483.54356 L 19.311692 484.54356 Z M 10.311691 484.54356 L 6.3116915 484.54356 L 6.3116915 483.54356 L 10.311691 483.54356 L 10.311691 484.54356 Z M 1.3116913 484.54356 L -.5 484.54356 L -.5 481.35523 L .5 481.35523 L .5 484.04356 L 0 484.04356 L 0 483.54356 L 1.3116913 483.54356 L 1.3116913 484.54356 Z M -.5 476.35523 L -.5 472.35523 L .5 472.35523 L .5 476.35523 L -.5 476.35523 Z M -.5 467.35523 L -.5 463.35523 L .5 463.35523 L .5 467.35523 L -.5 467.35523 Z M -.5 458.35523 L -.5 454.35523 L .5 454.35523 L .5 458.35523 L -.5 458.35523 Z M -.5 449.35523 L -.5 445.35523 L .5 445.35523 L .5 449.35523 L -.5 449.35523 Z M -.5 440.35523 L -.5 436.35523 L .5 436.35523 L .5 440.35523 L -.5 440.35523 Z M -.5 431.35523 L -.5 427.35523 L .5 427.35523 L .5 431.35523 L -.5 431.35523 Z M -.5 422.35523 L -.5 418.35523 L .5 418.35523 L .5 422.35523 L -.5 422.35523 Z M -.5 413.35523 L -.5 409.35523 L .5 409.35523 L .5 413.35523 L -.5 413.35523 Z M -.5 404.35523 L -.5 400.35523 L .5 400.35523 L .5 404.35523 L -.5 404.35523 Z M -.5 395.35523 L -.5 391.35523 L .5 391.35523 L .5 395.35523 L -.5 395.35523 Z M -.5 386.35523 L -.5 382.35523 L .5 382.35523 L .5 386.35523 L -.5 386.35523 Z M -.5 377.35523 L -.5 373.35523 L .5 373.35523 L .5 377.35523 L -.5 377.35523 Z M -.5 368.35523 L -.5 364.35523 L .5 364.35523 L .5 368.35523 L -.5 368.35523 Z M -.5 359.35523 L -.5 355.35523 L .5 355.35523 L .5 359.35523 L -.5 359.35523 Z M -.5 350.35523 L -.5 346.35523 L .5 346.35523 L .5 350.35523 L -.5 350.35523 Z M -.5 341.35523 L -.5 337.35523 L .5 337.35523 L .5 341.35523 L -.5 341.35523 Z M -.5 332.35523 L -.5 328.35523 L .5 328.35523 L .5 332.35523 L -.5 332.35523 Z M -.5 323.35523 L -.5 319.35523 L .5 319.35523 L .5 323.35523 L -.5 323.35523 Z M -.5 314.35523 L -.5 310.35523 L .5 310.35523 L .5 314.35523 L -.5 314.35523 Z M -.5 305.35523 L -.5 301.35523 L .5 301.35523 L .5 305.35523 L -.5 305.35523 Z M -.5 296.35523 L -.5 292.35523 L .5 292.35523 L .5 296.35523 L -.5 296.35523 Z M -.5 287.35523 L -.5 283.35523 L .5 283.35523 L .5 287.35523 L -.5 287.35523 Z M -.5 278.35523 L -.5 274.35523 L .5 274.35523 L .5 278.35523 L -.5 278.35523 Z M -.5 269.35523 L -.5 265.35523 L .5 265.35523 L .5 269.35523 L -.5 269.35523 Z M -.5 260.35523 L -.5 256.35523 L .5 256.35523 L .5 260.35523 L -.5 260.35523 Z M -.5 251.35523 L -.5 247.35523 L .5 247.35523 L .5 251.35523 L -.5 251.35523 Z M -.5 242.35523 L -.5 238.35521 L .5 238.35521 L .5 242.35523 L -.5 242.35523 Z M -.5 233.35524 L -.5 229.35521 L .5 229.35521 L .5 233.35524 L -.5 233.35524 Z M -.5 224.35523 L -.5 220.35526 L .5 220.35526 L .5 224.35523 L -.5 224.35523 Z M -.5 215.35523 L -.5 211.35523 L .5 211.35523 L .5 215.35523 L -.5 215.35523 Z M -.5 206.35523 L -.5 202.35523 L .5 202.35523 L .5 206.35523 L -.5 206.35523 Z M -.5 197.35523 L -.5 193.35523 L .5 193.35523 L .5 197.35523 L -.5 197.35523 Z M -.5 188.35523 L -.5 184.35523 L .5 184.35523 L .5 188.35523 L -.5 188.35523 Z M -.5 179.35523 L -.5 175.35523 L .5 175.35523 L .5 179.35523 L -.5 179.35523 Z M -.5 170.35523 L -.5 166.35523 L .5 166.35523 L .5 170.35523 L -.5 170.35523 Z M -.5 161.35523 L -.5 157.35523 L .5 157.35523 L .5 161.35523 L -.5 161.35523 Z M -.5 152.35523 L -.5 148.35523 L .5 148.35523 L .5 152.35523 L -.5 152.35523 Z M -.5 143.35523 L -.5 139.35523 L .5 139.35523 L .5 143.35523 L -.5 143.35523 Z M -.5 134.35523 L -.5 130.35523 L .5 130.35523 L .5 134.35523 L -.5 134.35523 Z M -.5 125.355228 L -.5 121.355228 L .5 121.355228 L .5 125.355228 L -.5 125.355228 Z M -.5 116.355228 L -.5 112.355228 L .5 112.355228 L .5 116.355228 L -.5 116.355228 Z M -.5 107.355228 L -.5 103.355228 L .5 103.355228 L .5 107.355228 L -.5 107.355228 Z M -.5 98.355228 L -.5 94.355228 L .5 94.355228 L .5 98.355228 L -.5 98.355228 Z M -.5 89.355228 L -.5 85.355228 L .5 85.355228 L .5 89.355228 L -.5 89.355228 Z M -.5 80.355258 L -.5 76.355228 L .5 76.355228 L .5 80.355258 L -.5 80.355258 Z M -.5 71.355258 L -.5 67.355228 L .5 67.355228 L .5 71.355258 L -.5 71.355258 Z M -.5 62.355257 L -.5 58.355226 L .5 58.355226 L .5 62.355257 L -.5 62.355257 Z M -.5 53.355226 L -.5 49.355226 L .5 49.355226 L .5 53.355226 L -.5 53.355226 Z M -.5 44.355226 L -.5 40.355226 L .5 40.355226 L .5 44.355226 L -.5 44.355226 Z M -.5 35.355226 L -.5 31.355225 L .5 31.355225 L .5 35.355226 L -.5 35.355226 Z M -.5 26.355225 L -.5 22.355225 L .5 22.355225 L .5 26.355225 L -.5 26.355225 Z M -.5 17.355225 L -.5 13.355225 L .5 13.355225 L .5 17.355225 L -.5 17.355225 Z M -.5 8.355225 L -.5 4.3552248 L .5 4.3552248 L .5 8.355225 L -.5 8.355225 Z M .6447753 -.5 L 4.6447746 -.5 L 4.6447746 .5 L .6447753 .5 L .6447753 -.5 Z M 9.644774 -.5 L 13.644773 -.5 L 13.644773 .5 L 9.644774 .5 L 9.644774 -.5 Z M 18.644774 -.5 L 22.644772 -.5 L 22.644772 .5 L 18.644774 .5 L 18.644774 -.5 Z M 27.644772 -.5 L 31.64477 -.5 L 31.64477 .5 L 27.644772 .5 L 27.644772 -.5 Z M 36.644769 -.5 L 40.64477 -.5 L 40.64477 .5 L 36.644769 .5 L 36.644769 -.5 Z M 45.644769 -.5 L 49.644769 -.5 L 49.644769 .5 L 45.644769 .5 L 45.644769 -.5 Z M 54.644769 -.5 L 58.644769 -.5 L 58.644769 .5 L 54.644769 .5 L 54.644769 -.5 Z M 63.644769 -.5 L 67.64476 -.5 L 67.64476 .5 L 63.644769 .5 L 63.644769 -.5 Z M 72.64476 -.5 L 76.64476 -.5 L 76.64476 .5 L 72.64476 .5 L 72.64476 -.5 Z M 81.64476 -.5 L 85.64476 -.5 L 85.64476 .5 L 81.64476 .5 L 81.64476 -.5 Z M 90.64476 -.5 L 94.64476 -.5 L 94.64476 .5 L 90.64476 .5 L 90.64476 -.5 Z "/>
</g>
</g>
</g>
</g>
<clipPath id="cp66">
<path transform="matrix(.24,0,0,.24,0,0)" d="M 0 0 L 2550 0 L 2550 3278.125 L 0 3278.125 Z " fill-rule="evenodd"/>
</clipPath>
<g clip-path="url(#cp66)">
<path transform="matrix(.52502748,0,0,.52524867,263.14268,239.5575)" d="M -16 -4 L 0 0 L -16 4 L -16 -4 Z "/>
<g id="Layer-1" data-name="P">
<g id="Layer-2" data-name="Span">
</g>
</g>
<text xml:space="preserve" transform="matrix(.52502748 0 0 .52524867 154.40335 364.5781)" font-size="14" font-family="OpenSans"><tspan y="14" x="0 7.6860005 15.540001 24.136002 32.718004 39.396005 43.036005 48.748006 56.602006 63.266008 71.12001 74.66201 83.24401 88.18601 91.82601 98.49001 106.946018 115.542018 123.83002 129.54203 142.56203 150.34603 155.28803 158.83003 167.28603 175.88202 179.52202 184.46402">Sends receipt con&#xfb01;rmation to</tspan></text>
</g>
</g>
</svg>
